<svg width="44" height="11" viewBox="0 0 44 11" fill="none" xmlns="http://www.w3.org/2000/svg">
<path d="M2.55279 8.65859H5.8968V10.6292H0V0.149286H2.55279V8.65859Z" fill="white"/>
<path d="M12.0707 10.7337C11.0854 10.7337 10.1798 10.5048 9.35371 10.047C8.53761 9.58915 7.88573 8.95219 7.39806 8.13609C6.92034 7.31004 6.68149 6.38447 6.68149 5.35937C6.68149 4.33427 6.92034 3.41368 7.39806 2.59758C7.88573 1.78148 8.53761 1.14453 9.35371 0.686716C10.1798 0.228905 11.0854 0 12.0707 0C13.056 0 13.9567 0.228905 14.7728 0.686716C15.5988 1.14453 16.2458 1.78148 16.7135 2.59758C17.1912 3.41368 17.4301 4.33427 17.4301 5.35937C17.4301 6.38447 17.1912 7.31004 16.7135 8.13609C16.2358 8.95219 15.5889 9.58915 14.7728 10.047C13.9567 10.5048 13.056 10.7337 12.0707 10.7337ZM12.0707 8.40481C12.9067 8.40481 13.5735 8.12614 14.0711 7.56881C14.5787 7.01147 14.8325 6.27499 14.8325 5.35937C14.8325 4.4338 14.5787 3.69732 14.0711 3.14994C13.5735 2.5926 12.9067 2.31393 12.0707 2.31393C11.2248 2.31393 10.548 2.58763 10.0404 3.13501C9.5428 3.68239 9.29399 4.42385 9.29399 5.35937C9.29399 6.28495 9.5428 7.0264 10.0404 7.58373C10.548 8.13112 11.2248 8.40481 12.0707 8.40481Z" fill="white"/>
<path d="M25.807 3.46344C25.6179 3.1151 25.3442 2.85136 24.9859 2.67222C24.6376 2.48313 24.2246 2.38858 23.7469 2.38858C22.9208 2.38858 22.259 2.66227 21.7614 3.20965C21.2637 3.74708 21.0149 4.46863 21.0149 5.3743C21.0149 6.33968 21.2737 7.09607 21.7912 7.64345C22.3187 8.18088 23.0403 8.44959 23.9559 8.44959C24.5829 8.44959 25.1104 8.29036 25.5383 7.97188C25.9762 7.6534 26.2947 7.19559 26.4937 6.59845H23.2542V4.71744H28.8077V7.09109C28.6186 7.72804 28.2951 8.32021 27.8373 8.8676C27.3895 9.41498 26.8172 9.85786 26.1205 10.1962C25.4239 10.5346 24.6376 10.7038 23.7618 10.7038C22.7268 10.7038 21.8012 10.4799 20.9851 10.032C20.1789 9.57422 19.547 8.94224 19.0891 8.13609C18.6413 7.32995 18.4174 6.40935 18.4174 5.3743C18.4174 4.33925 18.6413 3.41865 19.0891 2.61251C19.547 1.79641 20.1789 1.16443 20.9851 0.716573C21.7912 0.258762 22.7118 0.0298568 23.7469 0.0298568C25.0009 0.0298568 26.0558 0.333405 26.9117 0.940502C27.7776 1.5476 28.3499 2.38858 28.6285 3.46344H25.807Z" fill="white"/>
<path d="M32.7745 0.149286V10.6292H30.2217V0.149286H32.7745Z" fill="white"/>
<path d="M43.9996 10.6292H41.4468L37.1773 4.16508V10.6292H34.6245V0.149286H37.1773L41.4468 6.64323V0.149286H43.9996V10.6292Z" fill="white"/>
</svg>
