<svg width="178" height="32" viewBox="0 0 178 32" fill="none" xmlns="http://www.w3.org/2000/svg">
<path d="M6 24.85V0.35H16.08C18.25 0.35 20.105 0.7 21.645 1.4C23.2083 2.1 24.41 3.10333 25.25 4.41C26.09 5.71667 26.51 7.26833 26.51 9.065C26.51 10.8617 26.09 12.4133 25.25 13.72C24.41 15.0033 23.2083 15.995 21.645 16.695C20.105 17.3717 18.25 17.71 16.08 17.71H8.52L10.55 15.645V24.85H6ZM22.03 24.85L15.835 15.96H20.7L26.93 24.85H22.03ZM10.55 16.135L8.52 13.965H15.87C17.8767 13.965 19.3817 13.5333 20.385 12.67C21.4117 11.8067 21.925 10.605 21.925 9.065C21.925 7.50167 21.4117 6.3 20.385 5.46C19.3817 4.62 17.8767 4.2 15.87 4.2H8.52L10.55 1.96V16.135Z" fill="black"/>
<path d="M41.5406 25.095C40.0239 25.095 38.6356 24.745 37.3756 24.045C36.1389 23.345 35.1473 22.295 34.4006 20.895C33.6773 19.4717 33.3156 17.675 33.3156 15.505C33.3156 13.3117 33.6656 11.515 34.3656 10.115C35.0889 8.715 36.0689 7.67667 37.3056 7C38.5423 6.3 39.9539 5.95 41.5406 5.95C43.3839 5.95 45.0056 6.34667 46.4056 7.14C47.8289 7.93333 48.9489 9.04167 49.7656 10.465C50.6056 11.8883 51.0256 13.5683 51.0256 15.505C51.0256 17.4417 50.6056 19.1333 49.7656 20.58C48.9489 22.0033 47.8289 23.1117 46.4056 23.905C45.0056 24.6983 43.3839 25.095 41.5406 25.095ZM31.1806 31.64V6.16H35.3456V10.57L35.2056 15.54L35.5556 20.51V31.64H31.1806ZM41.0506 21.35C42.1006 21.35 43.0339 21.1167 43.8506 20.65C44.6906 20.1833 45.3556 19.5067 45.8456 18.62C46.3356 17.7333 46.5806 16.695 46.5806 15.505C46.5806 14.2917 46.3356 13.2533 45.8456 12.39C45.3556 11.5033 44.6906 10.8267 43.8506 10.36C43.0339 9.89333 42.1006 9.66 41.0506 9.66C40.0006 9.66 39.0556 9.89333 38.2156 10.36C37.3756 10.8267 36.7106 11.5033 36.2206 12.39C35.7306 13.2533 35.4856 14.2917 35.4856 15.505C35.4856 16.695 35.7306 17.7333 36.2206 18.62C36.7106 19.5067 37.3756 20.1833 38.2156 20.65C39.0556 21.1167 40.0006 21.35 41.0506 21.35Z" fill="black"/>
<path d="M63.2026 24.85V21.805L72.9326 12.565C73.7492 11.795 74.3559 11.1183 74.7526 10.535C75.1492 9.95167 75.4059 9.415 75.5226 8.925C75.6626 8.41167 75.7326 7.93333 75.7326 7.49C75.7326 6.37 75.3476 5.50667 74.5776 4.9C73.8076 4.27 72.6759 3.955 71.1826 3.955C69.9926 3.955 68.9076 4.165 67.9276 4.585C66.9709 5.005 66.1426 5.64667 65.4426 6.51L62.2576 4.06C63.2142 2.77667 64.4976 1.785 66.1076 1.085C67.7409 0.361667 69.5609 0 71.5676 0C73.3409 0 74.8809 0.291666 76.1876 0.874999C77.5176 1.435 78.5326 2.24 79.2326 3.29C79.9559 4.34 80.3176 5.58833 80.3176 7.035C80.3176 7.82833 80.2126 8.62167 80.0026 9.415C79.7926 10.185 79.3959 11.0017 78.8126 11.865C78.2292 12.7283 77.3776 13.6967 76.2576 14.77L67.8926 22.715L66.9476 21H81.2626V24.85H63.2026Z" fill="black"/>
<path d="M87.8087 24.85V2.1L89.8037 4.165H82.6287V0.35H92.3587V24.85H87.8087Z" fill="black"/>
<path d="M99.9488 25.095C99.1554 25.095 98.4787 24.8267 97.9187 24.29C97.3587 23.73 97.0788 23.03 97.0788 22.19C97.0788 21.3033 97.3587 20.6033 97.9187 20.09C98.4787 19.5533 99.1554 19.285 99.9488 19.285C100.742 19.285 101.419 19.5533 101.979 20.09C102.539 20.6033 102.819 21.3033 102.819 22.19C102.819 23.03 102.539 23.73 101.979 24.29C101.419 24.8267 100.742 25.095 99.9488 25.095Z" fill="black"/>
<path d="M115.574 25.2C113.637 25.2 111.887 24.71 110.324 23.73C108.784 22.75 107.57 21.3267 106.684 19.46C105.797 17.57 105.354 15.2833 105.354 12.6C105.354 9.91667 105.797 7.64167 106.684 5.775C107.57 3.885 108.784 2.45 110.324 1.47C111.887 0.49 113.637 0 115.574 0C117.534 0 119.284 0.49 120.824 1.47C122.364 2.45 123.577 3.885 124.464 5.775C125.374 7.64167 125.829 9.91667 125.829 12.6C125.829 15.2833 125.374 17.57 124.464 19.46C123.577 21.3267 122.364 22.75 120.824 23.73C119.284 24.71 117.534 25.2 115.574 25.2ZM115.574 21.245C116.717 21.245 117.709 20.9417 118.549 20.335C119.389 19.705 120.042 18.7483 120.509 17.465C120.999 16.1817 121.244 14.56 121.244 12.6C121.244 10.6167 120.999 8.995 120.509 7.735C120.042 6.45167 119.389 5.50667 118.549 4.9C117.709 4.27 116.717 3.955 115.574 3.955C114.477 3.955 113.497 4.27 112.634 4.9C111.794 5.50667 111.129 6.45167 110.639 7.735C110.172 8.995 109.939 10.6167 109.939 12.6C109.939 14.56 110.172 16.1817 110.639 17.465C111.129 18.7483 111.794 19.705 112.634 20.335C113.497 20.9417 114.477 21.245 115.574 21.245Z" fill="black"/>
<path d="M139.123 25.2C137.187 25.2 135.437 24.71 133.873 23.73C132.333 22.75 131.12 21.3267 130.233 19.46C129.347 17.57 128.903 15.2833 128.903 12.6C128.903 9.91667 129.347 7.64167 130.233 5.775C131.12 3.885 132.333 2.45 133.873 1.47C135.437 0.49 137.187 0 139.123 0C141.083 0 142.833 0.49 144.373 1.47C145.913 2.45 147.127 3.885 148.013 5.775C148.923 7.64167 149.378 9.91667 149.378 12.6C149.378 15.2833 148.923 17.57 148.013 19.46C147.127 21.3267 145.913 22.75 144.373 23.73C142.833 24.71 141.083 25.2 139.123 25.2ZM139.123 21.245C140.267 21.245 141.258 20.9417 142.098 20.335C142.938 19.705 143.592 18.7483 144.058 17.465C144.548 16.1817 144.793 14.56 144.793 12.6C144.793 10.6167 144.548 8.995 144.058 7.735C143.592 6.45167 142.938 5.50667 142.098 4.9C141.258 4.27 140.267 3.955 139.123 3.955C138.027 3.955 137.047 4.27 136.183 4.9C135.343 5.50667 134.678 6.45167 134.188 7.735C133.722 8.995 133.488 10.6167 133.488 12.6C133.488 14.56 133.722 16.1817 134.188 17.465C134.678 18.7483 135.343 19.705 136.183 20.335C137.047 20.9417 138.027 21.245 139.123 21.245Z" fill="black"/>
<path d="M162.673 25.2C160.736 25.2 158.986 24.71 157.423 23.73C155.883 22.75 154.67 21.3267 153.783 19.46C152.896 17.57 152.453 15.2833 152.453 12.6C152.453 9.91667 152.896 7.64167 153.783 5.775C154.67 3.885 155.883 2.45 157.423 1.47C158.986 0.49 160.736 0 162.673 0C164.633 0 166.383 0.49 167.923 1.47C169.463 2.45 170.676 3.885 171.563 5.775C172.473 7.64167 172.928 9.91667 172.928 12.6C172.928 15.2833 172.473 17.57 171.563 19.46C170.676 21.3267 169.463 22.75 167.923 23.73C166.383 24.71 164.633 25.2 162.673 25.2ZM162.673 21.245C163.816 21.245 164.808 20.9417 165.648 20.335C166.488 19.705 167.141 18.7483 167.608 17.465C168.098 16.1817 168.343 14.56 168.343 12.6C168.343 10.6167 168.098 8.995 167.608 7.735C167.141 6.45167 166.488 5.50667 165.648 4.9C164.808 4.27 163.816 3.955 162.673 3.955C161.576 3.955 160.596 4.27 159.733 4.9C158.893 5.50667 158.228 6.45167 157.738 7.735C157.271 8.995 157.038 10.6167 157.038 12.6C157.038 14.56 157.271 16.1817 157.738 17.465C158.228 18.7483 158.893 19.705 159.733 20.335C160.596 20.9417 161.576 21.245 162.673 21.245Z" fill="black"/>
<path d="M0 16H178" stroke="black" stroke-width="5"/>
</svg>
