<svg width="116" height="23" viewBox="0 0 116 23" fill="none" xmlns="http://www.w3.org/2000/svg">
<mask id="path-1-outside-1_409_89" maskUnits="userSpaceOnUse" x="-0.500674" y="-0.500674" width="117.158" height="23.031" fill="black">
<rect fill="white" x="-0.500674" y="-0.500674" width="117.158" height="23.031"/>
<path d="M8.6096 0.500674C13.8225 0.500674 17.2063 3.53299 17.2063 8.26339C17.2063 10.6589 16.3222 12.6602 14.6151 13.9641C13.0909 15.1771 11.0179 15.7835 8.6096 15.7835H6.68907V21.6965H0.500674V14.51H8.6096C10.3167 14.51 15.9259 14.0854 15.9259 8.26339C15.9259 4.26074 13.1213 1.77425 8.6096 1.77425H1.78103V10.1737H5.40871V5.10979H8.6096C10.8045 5.10979 12.2373 6.35304 12.2373 8.26339C12.2373 10.2647 10.8655 11.4473 8.6096 11.4473H0.500674V0.500674H8.6096ZM6.68907 6.38336V10.1737H8.6096C10.1643 10.1737 10.9569 9.53696 10.9569 8.26339C10.9569 7.08079 10.1034 6.38336 8.6096 6.38336H6.68907ZM5.40871 20.423V15.8138H1.78103V20.423H5.40871Z"/>
<path d="M38.3596 21.6965H31.8358L30.6774 17.9971H24.0318L22.8733 21.6965H16.3191L24.0013 0.500674H30.6774L35.2196 13.0241L35.6769 14.2977H23.8184L27.3546 3.26008L30.4336 13.0241H33.8478L29.7934 1.77425H24.9158L18.1482 20.423H21.9283L23.0867 16.7235H36.5305L36.7439 17.239L38.3596 21.6965ZM25.5865 13.0241H29.0922L27.3546 7.47499L25.5865 13.0241ZM32.7809 20.423H36.5305L35.6464 17.9971H32.0188L32.7809 20.423Z"/>
<path d="M47.3888 0.500674C54.3393 0.500674 58.6681 4.56397 58.6681 11.0834C58.6681 17.6332 54.3393 21.6965 47.3888 21.6965H39.7371V20.423H47.3888C53.6381 20.423 57.3877 16.9358 57.3877 11.0834C57.3877 5.2614 53.6381 1.77425 47.3888 1.77425H41.0175V15.8442H44.6451V5.10979H47.3888C51.2603 5.10979 53.7905 7.44467 53.7905 11.0834C53.7905 14.7525 51.2603 17.1177 47.3888 17.1177H39.7371V0.500674H47.3888ZM45.956 6.38336V15.8442H47.3888C50.5897 15.8442 52.5102 14.0551 52.5102 11.0834C52.5102 8.1421 50.5897 6.38336 47.3888 6.38336H45.956Z"/>
<path d="M81.0501 21.6965H74.5263L73.3679 17.9971H66.7222L65.5638 21.6965H59.0096L66.6918 0.500674H73.3679L77.9101 13.0241L78.3674 14.2977H66.5089L70.0451 3.26008L73.124 13.0241H76.5383L72.4838 1.77425H67.6063L60.8387 20.423H64.6188L65.7772 16.7235H79.221L79.4344 17.239L81.0501 21.6965ZM68.277 13.0241H71.7827L70.0451 7.47499L68.277 13.0241ZM75.4714 20.423H79.221L78.3369 17.9971H74.7092L75.4714 20.423Z"/>
<path d="M79.0357 0.500674H94.5829V6.38336H89.8882V21.7572H88.6079V5.10979H93.3025V1.77425H80.316V5.10979H85.0107V21.7572H83.7303V6.38336H79.0357V0.500674Z"/>
<path d="M115.286 21.6965H108.762L107.604 17.9971H100.958L99.7996 21.6965H93.2454L100.928 0.500674H107.604L112.146 13.0241L112.603 14.2977H100.745L104.281 3.26008L107.36 13.0241H110.774L106.72 1.77425H101.842L95.0744 20.423H98.8545L100.013 16.7235H113.457L113.67 17.239L115.286 21.6965ZM102.513 13.0241H106.018L104.281 7.47499L102.513 13.0241ZM109.707 20.423H113.457L112.573 17.9971H108.945L109.707 20.423Z"/>
</mask>
<path d="M8.6096 0.500674C13.8225 0.500674 17.2063 3.53299 17.2063 8.26339C17.2063 10.6589 16.3222 12.6602 14.6151 13.9641C13.0909 15.1771 11.0179 15.7835 8.6096 15.7835H6.68907V21.6965H0.500674V14.51H8.6096C10.3167 14.51 15.9259 14.0854 15.9259 8.26339C15.9259 4.26074 13.1213 1.77425 8.6096 1.77425H1.78103V10.1737H5.40871V5.10979H8.6096C10.8045 5.10979 12.2373 6.35304 12.2373 8.26339C12.2373 10.2647 10.8655 11.4473 8.6096 11.4473H0.500674V0.500674H8.6096ZM6.68907 6.38336V10.1737H8.6096C10.1643 10.1737 10.9569 9.53696 10.9569 8.26339C10.9569 7.08079 10.1034 6.38336 8.6096 6.38336H6.68907ZM5.40871 20.423V15.8138H1.78103V20.423H5.40871Z" fill="#647F7C"/>
<path d="M38.3596 21.6965H31.8358L30.6774 17.9971H24.0318L22.8733 21.6965H16.3191L24.0013 0.500674H30.6774L35.2196 13.0241L35.6769 14.2977H23.8184L27.3546 3.26008L30.4336 13.0241H33.8478L29.7934 1.77425H24.9158L18.1482 20.423H21.9283L23.0867 16.7235H36.5305L36.7439 17.239L38.3596 21.6965ZM25.5865 13.0241H29.0922L27.3546 7.47499L25.5865 13.0241ZM32.7809 20.423H36.5305L35.6464 17.9971H32.0188L32.7809 20.423Z" fill="#647F7C"/>
<path d="M47.3888 0.500674C54.3393 0.500674 58.6681 4.56397 58.6681 11.0834C58.6681 17.6332 54.3393 21.6965 47.3888 21.6965H39.7371V20.423H47.3888C53.6381 20.423 57.3877 16.9358 57.3877 11.0834C57.3877 5.2614 53.6381 1.77425 47.3888 1.77425H41.0175V15.8442H44.6451V5.10979H47.3888C51.2603 5.10979 53.7905 7.44467 53.7905 11.0834C53.7905 14.7525 51.2603 17.1177 47.3888 17.1177H39.7371V0.500674H47.3888ZM45.956 6.38336V15.8442H47.3888C50.5897 15.8442 52.5102 14.0551 52.5102 11.0834C52.5102 8.1421 50.5897 6.38336 47.3888 6.38336H45.956Z" fill="#647F7C"/>
<path d="M81.0501 21.6965H74.5263L73.3679 17.9971H66.7222L65.5638 21.6965H59.0096L66.6918 0.500674H73.3679L77.9101 13.0241L78.3674 14.2977H66.5089L70.0451 3.26008L73.124 13.0241H76.5383L72.4838 1.77425H67.6063L60.8387 20.423H64.6188L65.7772 16.7235H79.221L79.4344 17.239L81.0501 21.6965ZM68.277 13.0241H71.7827L70.0451 7.47499L68.277 13.0241ZM75.4714 20.423H79.221L78.3369 17.9971H74.7092L75.4714 20.423Z" fill="#647F7C"/>
<path d="M79.0357 0.500674H94.5829V6.38336H89.8882V21.7572H88.6079V5.10979H93.3025V1.77425H80.316V5.10979H85.0107V21.7572H83.7303V6.38336H79.0357V0.500674Z" fill="#647F7C"/>
<path d="M115.286 21.6965H108.762L107.604 17.9971H100.958L99.7996 21.6965H93.2454L100.928 0.500674H107.604L112.146 13.0241L112.603 14.2977H100.745L104.281 3.26008L107.36 13.0241H110.774L106.72 1.77425H101.842L95.0744 20.423H98.8545L100.013 16.7235H113.457L113.67 17.239L115.286 21.6965ZM102.513 13.0241H106.018L104.281 7.47499L102.513 13.0241ZM109.707 20.423H113.457L112.573 17.9971H108.945L109.707 20.423Z" fill="#647F7C"/>
<path d="M8.6096 0.500674C13.8225 0.500674 17.2063 3.53299 17.2063 8.26339C17.2063 10.6589 16.3222 12.6602 14.6151 13.9641C13.0909 15.1771 11.0179 15.7835 8.6096 15.7835H6.68907V21.6965H0.500674V14.51H8.6096C10.3167 14.51 15.9259 14.0854 15.9259 8.26339C15.9259 4.26074 13.1213 1.77425 8.6096 1.77425H1.78103V10.1737H5.40871V5.10979H8.6096C10.8045 5.10979 12.2373 6.35304 12.2373 8.26339C12.2373 10.2647 10.8655 11.4473 8.6096 11.4473H0.500674V0.500674H8.6096ZM6.68907 6.38336V10.1737H8.6096C10.1643 10.1737 10.9569 9.53696 10.9569 8.26339C10.9569 7.08079 10.1034 6.38336 8.6096 6.38336H6.68907ZM5.40871 20.423V15.8138H1.78103V20.423H5.40871Z" stroke="#647F7C" mask="url(#path-1-outside-1_409_89)"/>
<path d="M38.3596 21.6965H31.8358L30.6774 17.9971H24.0318L22.8733 21.6965H16.3191L24.0013 0.500674H30.6774L35.2196 13.0241L35.6769 14.2977H23.8184L27.3546 3.26008L30.4336 13.0241H33.8478L29.7934 1.77425H24.9158L18.1482 20.423H21.9283L23.0867 16.7235H36.5305L36.7439 17.239L38.3596 21.6965ZM25.5865 13.0241H29.0922L27.3546 7.47499L25.5865 13.0241ZM32.7809 20.423H36.5305L35.6464 17.9971H32.0188L32.7809 20.423Z" stroke="#647F7C" mask="url(#path-1-outside-1_409_89)"/>
<path d="M47.3888 0.500674C54.3393 0.500674 58.6681 4.56397 58.6681 11.0834C58.6681 17.6332 54.3393 21.6965 47.3888 21.6965H39.7371V20.423H47.3888C53.6381 20.423 57.3877 16.9358 57.3877 11.0834C57.3877 5.2614 53.6381 1.77425 47.3888 1.77425H41.0175V15.8442H44.6451V5.10979H47.3888C51.2603 5.10979 53.7905 7.44467 53.7905 11.0834C53.7905 14.7525 51.2603 17.1177 47.3888 17.1177H39.7371V0.500674H47.3888ZM45.956 6.38336V15.8442H47.3888C50.5897 15.8442 52.5102 14.0551 52.5102 11.0834C52.5102 8.1421 50.5897 6.38336 47.3888 6.38336H45.956Z" stroke="#647F7C" mask="url(#path-1-outside-1_409_89)"/>
<path d="M81.0501 21.6965H74.5263L73.3679 17.9971H66.7222L65.5638 21.6965H59.0096L66.6918 0.500674H73.3679L77.9101 13.0241L78.3674 14.2977H66.5089L70.0451 3.26008L73.124 13.0241H76.5383L72.4838 1.77425H67.6063L60.8387 20.423H64.6188L65.7772 16.7235H79.221L79.4344 17.239L81.0501 21.6965ZM68.277 13.0241H71.7827L70.0451 7.47499L68.277 13.0241ZM75.4714 20.423H79.221L78.3369 17.9971H74.7092L75.4714 20.423Z" stroke="#647F7C" mask="url(#path-1-outside-1_409_89)"/>
<path d="M79.0357 0.500674H94.5829V6.38336H89.8882V21.7572H88.6079V5.10979H93.3025V1.77425H80.316V5.10979H85.0107V21.7572H83.7303V6.38336H79.0357V0.500674Z" stroke="#647F7C" mask="url(#path-1-outside-1_409_89)"/>
<path d="M115.286 21.6965H108.762L107.604 17.9971H100.958L99.7996 21.6965H93.2454L100.928 0.500674H107.604L112.146 13.0241L112.603 14.2977H100.745L104.281 3.26008L107.36 13.0241H110.774L106.72 1.77425H101.842L95.0744 20.423H98.8545L100.013 16.7235H113.457L113.67 17.239L115.286 21.6965ZM102.513 13.0241H106.018L104.281 7.47499L102.513 13.0241ZM109.707 20.423H113.457L112.573 17.9971H108.945L109.707 20.423Z" stroke="#647F7C" mask="url(#path-1-outside-1_409_89)"/>
</svg>
