<svg width="230" height="34" viewBox="0 0 230 34" fill="none" xmlns="http://www.w3.org/2000/svg">
<path d="M18.1044 33.4412L10.721 20.9947H8.64763V33.4412H0V0.46968H14.5139C17.3121 0.46968 19.689 0.923704 21.6444 1.83175C23.6335 2.7398 25.1169 3.99228 26.0946 5.58919C27.0723 7.1548 27.5612 8.90827 27.5612 10.8496C27.5612 13.0415 26.8869 14.9985 25.5383 16.7206C24.2235 18.4428 22.2681 19.6639 19.6721 20.3841L27.8646 33.4412H18.1044ZM8.64763 15.3116H14.0082C15.5927 15.3116 16.7727 14.9515 17.5481 14.2313C18.3573 13.5111 18.7618 12.4935 18.7618 11.1784C18.7618 9.92591 18.3573 8.93958 17.5481 8.21941C16.7727 7.49923 15.5927 7.13914 14.0082 7.13914H8.64763V15.3116Z" fill="white"/>
<path d="M41.6373 6.9043V13.5738H53.218V19.7735H41.6373V27.0066H54.7352V33.4412H32.9896V0.46968H54.7352V6.9043H41.6373Z" fill="white"/>
<path d="M83.9154 10.8966C83.2748 9.80066 82.3477 8.97089 81.134 8.40728C79.954 7.81235 78.5549 7.51488 76.9366 7.51488C74.1383 7.51488 71.8964 8.37597 70.2107 10.0981C68.525 11.789 67.6821 14.0591 67.6821 16.9085C67.6821 19.9458 68.5587 22.3255 70.3118 24.0476C72.0986 25.7385 74.5429 26.5839 77.6446 26.5839C79.7686 26.5839 81.5554 26.0829 83.0051 25.0809C84.4885 24.0789 85.5674 22.6386 86.2416 20.7599H75.2678V14.8419H94.0801V22.3098C93.4396 24.3138 92.3439 26.1769 90.793 27.899C89.2759 29.6212 87.3373 31.0146 84.9774 32.0792C82.6174 33.1438 79.954 33.6761 76.9872 33.6761C73.4809 33.6761 70.3455 32.9716 67.581 31.5625C64.8501 30.1222 62.7093 28.1339 61.1585 25.5976C59.6413 23.0613 58.8828 20.1649 58.8828 16.9085C58.8828 13.652 59.6413 10.7557 61.1585 8.21941C62.7093 5.65182 64.8501 3.66351 67.581 2.25446C70.3118 0.814111 73.4303 0.0939349 76.9366 0.0939349C81.1846 0.0939349 84.7582 1.04895 87.6576 2.95898C90.5907 4.86902 92.5293 7.51489 93.4733 10.8966H83.9154Z" fill="white"/>
<path d="M107.518 0.46968V33.4412H98.8702V0.46968H107.518Z" fill="white"/>
<path d="M126.63 33.77C124.034 33.77 121.707 33.3786 119.651 32.5958C117.594 31.813 115.942 30.6545 114.695 29.1202C113.481 27.5859 112.841 25.7385 112.773 23.578H121.977C122.112 24.7991 122.567 25.7385 123.343 26.396C124.118 27.0223 125.129 27.3354 126.377 27.3354C127.658 27.3354 128.669 27.0692 129.411 26.5369C130.153 25.9733 130.524 25.2062 130.524 24.2355C130.524 23.4214 130.22 22.7482 129.613 22.2159C129.04 21.6836 128.315 21.2452 127.439 20.9008C126.596 20.5563 125.382 20.1649 123.798 19.7266C121.505 19.069 119.634 18.4115 118.184 17.7539C116.735 17.0964 115.487 16.1257 114.442 14.8419C113.397 13.5581 112.874 11.8829 112.874 9.81632C112.874 6.74774 114.071 4.35237 116.465 2.63021C118.859 0.876737 121.977 0 125.821 0C129.731 0 132.884 0.876737 135.277 2.63021C137.671 4.35237 138.952 6.7634 139.121 9.86329H129.765C129.698 8.79868 129.276 7.96891 128.501 7.37398C127.725 6.74774 126.731 6.43462 125.517 6.43462C124.472 6.43462 123.629 6.70077 122.989 7.23308C122.348 7.73407 122.028 8.4699 122.028 9.44057C122.028 10.5052 122.567 11.335 123.646 11.9299C124.725 12.5248 126.411 13.1667 128.703 13.8556C130.996 14.5757 132.85 15.2646 134.266 15.9222C135.716 16.5797 136.963 17.5347 138.008 18.7872C139.053 20.0397 139.576 21.6523 139.576 23.6249C139.576 25.5036 139.053 27.2101 138.008 28.7444C136.997 30.2787 135.513 31.4999 133.558 32.4079C131.602 33.316 129.293 33.77 126.63 33.77Z" fill="white"/>
<path d="M170.436 0.46968V6.9043H161.03V33.4412H152.382V6.9043H142.976V0.46968H170.436Z" fill="white"/>
<path d="M183.424 6.9043V13.5738H195.004V19.7735H183.424V27.0066H196.521V33.4412H174.776V0.46968H196.521V6.9043H183.424Z" fill="white"/>
<path d="M220.24 33.4412L212.857 20.9947H210.783V33.4412H202.136V0.46968H216.649C219.448 0.46968 221.825 0.923704 223.78 1.83175C225.769 2.7398 227.253 3.99228 228.23 5.58919C229.208 7.1548 229.697 8.90827 229.697 10.8496C229.697 13.0415 229.023 14.9985 227.674 16.7206C226.359 18.4428 224.404 19.6639 221.808 20.3841L230 33.4412H220.24ZM210.783 15.3116H216.144C217.728 15.3116 218.908 14.9515 219.684 14.2313C220.493 13.5111 220.897 12.4935 220.897 11.1784C220.897 9.92591 220.493 8.93958 219.684 8.21941C218.908 7.49923 217.728 7.13914 216.144 7.13914H210.783V15.3116Z" fill="white"/>
</svg>
