<svg width="55" height="20" viewBox="0 0 55 20" fill="none" xmlns="http://www.w3.org/2000/svg">
<g filter="url(#filter0_d_409_420)">
<path d="M14.0121 11.8606H11.6668L6.35636 3.83627V11.8606H4.01104V0.15077H6.35636L11.6668 8.19186V0.15077H14.0121V11.8606Z" fill="#3E505B"/>
<path d="M18.6752 2.06053V4.99218H22.612V6.85168H18.6752V9.95085H23.1145V11.8606H16.3299V0.15077H23.1145V2.06053H18.6752Z" fill="#3E505B"/>
<path d="M40.8757 0.167523L37.609 11.8606H34.8449L32.6504 3.53473L30.3553 11.8606L27.6079 11.8774L24.4585 0.167523H26.9713L29.0319 9.24726L31.4107 0.167523H34.024L36.2689 9.197L38.3461 0.167523H40.8757Z" fill="#3E505B"/>
<path d="M46.4444 11.9779C45.6291 11.9779 44.892 11.8383 44.2331 11.5591C43.5854 11.2799 43.0716 10.8778 42.6919 10.3529C42.3122 9.828 42.1168 9.20817 42.1056 8.4934H44.6184C44.6519 8.97364 44.8194 9.35335 45.121 9.63256C45.4337 9.91176 45.8581 10.0514 46.3942 10.0514C46.9414 10.0514 47.3714 9.92293 47.6841 9.66606C47.9968 9.39803 48.1532 9.05181 48.1532 8.62742C48.1532 8.28121 48.0471 7.99642 47.8349 7.77306C47.6227 7.54969 47.3546 7.37659 47.0307 7.25374C46.718 7.11972 46.2825 6.97453 45.7241 6.81818C44.9646 6.59481 44.3448 6.37703 43.8646 6.16484C43.3955 5.94147 42.9879 5.61201 42.6417 5.17645C42.3066 4.72973 42.1391 4.13781 42.1391 3.40071C42.1391 2.70828 42.3122 2.1052 42.6584 1.59147C43.0046 1.07773 43.4904 0.686843 44.1159 0.418806C44.7413 0.139602 45.456 0 46.2601 0C47.4663 0 48.4435 0.295957 49.1918 0.88787C49.9512 1.46862 50.37 2.28389 50.4482 3.3337H47.8684C47.846 2.93165 47.6729 2.60219 47.349 2.34532C47.0363 2.07728 46.6175 1.94326 46.0926 1.94326C45.6347 1.94326 45.2662 2.06053 44.987 2.29506C44.7189 2.52959 44.5849 2.87022 44.5849 3.31695C44.5849 3.62966 44.6854 3.89211 44.8865 4.10431C45.0987 4.30533 45.3555 4.47286 45.6571 4.60688C45.9698 4.72973 46.4053 4.87491 46.9637 5.04243C47.7232 5.2658 48.343 5.48916 48.8232 5.71253C49.3035 5.93589 49.7167 6.27093 50.0629 6.71766C50.4091 7.16439 50.5822 7.75072 50.5822 8.47665C50.5822 9.10207 50.4203 9.68282 50.0964 10.2189C49.7725 10.755 49.2979 11.1849 48.6725 11.5088C48.0471 11.8215 47.3044 11.9779 46.4444 11.9779Z" fill="#3E505B"/>
</g>
<defs>
<filter id="filter0_d_409_420" x="0" y="0" width="54.5936" height="20" filterUnits="userSpaceOnUse" color-interpolation-filters="sRGB">
<feFlood flood-opacity="0" result="BackgroundImageFix"/>
<feColorMatrix in="SourceAlpha" type="matrix" values="0 0 0 0 0 0 0 0 0 0 0 0 0 0 0 0 0 0 127 0" result="hardAlpha"/>
<feOffset dy="4"/>
<feGaussianBlur stdDeviation="2"/>
<feComposite in2="hardAlpha" operator="out"/>
<feColorMatrix type="matrix" values="0 0 0 0 0 0 0 0 0 0 0 0 0 0 0 0 0 0 0.25 0"/>
<feBlend mode="normal" in2="BackgroundImageFix" result="effect1_dropShadow_409_420"/>
<feBlend mode="normal" in="SourceGraphic" in2="effect1_dropShadow_409_420" result="shape"/>
</filter>
</defs>
</svg>
