<svg width="111" height="27" viewBox="0 0 111 27" fill="none" xmlns="http://www.w3.org/2000/svg">
<path d="M6.44005 21.7803H14.8761V26.7371H0V0.375521H6.44005V21.7803Z" fill="white"/>
<path d="M30.4514 27C27.9657 27 25.681 26.4242 23.597 25.2726C21.5382 24.121 19.8937 22.5188 18.6634 20.4659C17.4583 18.388 16.8557 16.0598 16.8557 13.4812C16.8557 10.9026 17.4583 8.58693 18.6634 6.53407C19.8937 4.48122 21.5382 2.879 23.597 1.7274C25.681 0.5758 27.9657 0 30.4514 0C32.937 0 35.2092 0.5758 37.268 1.7274C39.352 2.879 40.9839 4.48122 42.164 6.53407C43.3691 8.58693 43.9717 10.9026 43.9717 13.4812C43.9717 16.0598 43.3691 18.388 42.164 20.4659C40.9588 22.5188 39.3269 24.121 37.268 25.2726C35.2092 26.4242 32.937 27 30.4514 27ZM30.4514 21.1419C32.5604 21.1419 34.2426 20.4409 35.498 19.0389C36.7784 17.637 37.4187 15.7844 37.4187 13.4812C37.4187 11.153 36.7784 9.30042 35.498 7.9235C34.2426 6.52156 32.5604 5.82058 30.4514 5.82058C28.3172 5.82058 26.6099 6.50904 25.3295 7.88595C24.0741 9.26286 23.4464 11.128 23.4464 13.4812C23.4464 15.8095 24.0741 17.6745 25.3295 19.0765C26.6099 20.4534 28.3172 21.1419 30.4514 21.1419Z" fill="white"/>
<path d="M65.1046 8.7121C64.6276 7.83588 63.9371 7.17246 63.0333 6.72183C62.1545 6.24617 61.1125 6.00834 59.9074 6.00834C57.8235 6.00834 56.1538 6.6968 54.8984 8.07371C53.6431 9.42559 53.0154 11.2406 53.0154 13.5188C53.0154 15.9471 53.6682 17.8498 54.9738 19.2267C56.3045 20.5786 58.1248 21.2545 60.4346 21.2545C62.0164 21.2545 63.3471 20.854 64.4267 20.0529C65.5314 19.2517 66.3349 18.1001 66.837 16.5981H58.6646V11.8665H72.6745V17.8373C72.1975 19.4395 71.3815 20.9291 70.2265 22.306C69.0967 23.6829 67.653 24.7969 65.8955 25.6481C64.138 26.4993 62.1545 26.9249 59.945 26.9249C57.3339 26.9249 54.9989 26.3616 52.9401 25.235C50.9064 24.0834 49.312 22.4937 48.1571 20.4659C47.0273 18.4381 46.4624 16.1224 46.4624 13.5188C46.4624 10.9152 47.0273 8.59944 48.1571 6.57163C49.312 4.51878 50.9064 2.92907 52.9401 1.8025C54.9738 0.650903 57.2962 0.0751033 59.9074 0.0751033C63.0709 0.0751033 65.7323 0.838664 67.8915 2.36578C70.0759 3.89291 71.5196 6.00834 72.2226 8.7121H65.1046Z" fill="white"/>
<path d="M82.6818 0.375521V26.7371H76.2417V0.375521H82.6818Z" fill="white"/>
<path d="M111 26.7371H104.56L93.7889 10.4771V26.7371H87.3488V0.375521H93.7889L104.56 16.7107V0.375521H111V26.7371Z" fill="white"/>
</svg>
