<svg width="87" height="20" viewBox="0 0 87 20" fill="none" xmlns="http://www.w3.org/2000/svg">
<g filter="url(#filter0_d_409_421)">
<path d="M12.5379 3.78601C12.5379 4.41143 12.3872 4.99776 12.0856 5.545C11.7953 6.09224 11.3318 6.53339 10.6952 6.86843C10.0698 7.20348 9.27684 7.371 8.31638 7.371H6.35636V11.8606H4.01104V0.167523H8.31638C9.221 0.167523 9.9916 0.323877 10.6282 0.636586C11.2648 0.949295 11.7394 1.37927 12.0521 1.92651C12.376 2.47375 12.5379 3.09359 12.5379 3.78601ZM8.21586 5.47799C8.86362 5.47799 9.34385 5.33281 9.65656 5.04243C9.96927 4.74089 10.1256 4.32209 10.1256 3.78601C10.1256 2.64686 9.48904 2.07728 8.21586 2.07728H6.35636V5.47799H8.21586Z" fill="#3E505B"/>
<path d="M20.2339 11.8606L17.6541 7.30399H16.5484V11.8606H14.2031V0.167523H18.5922C19.4968 0.167523 20.2674 0.329461 20.904 0.653338C21.5406 0.966047 22.0152 1.39602 22.328 1.94326C22.6518 2.47934 22.8138 3.08242 22.8138 3.75251C22.8138 4.52311 22.5904 5.22113 22.1437 5.84654C21.697 6.46079 21.0324 6.88518 20.1502 7.11972L22.9478 11.8606H20.2339ZM16.5484 5.545H18.5084C19.145 5.545 19.6197 5.39423 19.9324 5.09269C20.2451 4.77998 20.4014 4.35001 20.4014 3.80277C20.4014 3.26669 20.2451 2.85347 19.9324 2.5631C19.6197 2.26156 19.145 2.11079 18.5084 2.11079H16.5484V5.545Z" fill="#3E505B"/>
<path d="M30.3628 11.9779C29.2683 11.9779 28.2631 11.721 27.3474 11.2073C26.4316 10.6935 25.7056 9.98436 25.1696 9.07973C24.6335 8.16394 24.3654 7.13089 24.3654 5.98056C24.3654 4.84141 24.6335 3.81952 25.1696 2.9149C25.7056 1.9991 26.4316 1.28434 27.3474 0.770604C28.2631 0.256868 29.2683 0 30.3628 0C31.4684 0 32.4736 0.256868 33.3782 0.770604C34.294 1.28434 35.0143 1.9991 35.5392 2.9149C36.0753 3.81952 36.3433 4.84141 36.3433 5.98056C36.3433 7.13089 36.0753 8.16394 35.5392 9.07973C35.0143 9.98436 34.294 10.6935 33.3782 11.2073C32.4624 11.721 31.4572 11.9779 30.3628 11.9779ZM30.3628 9.88384C31.0664 9.88384 31.6862 9.72749 32.2223 9.41478C32.7583 9.0909 33.1771 8.63301 33.4787 8.04109C33.7802 7.44918 33.931 6.76234 33.931 5.98056C33.931 5.19879 33.7802 4.51753 33.4787 3.93678C33.1771 3.34487 32.7583 2.89256 32.2223 2.57985C31.6862 2.26714 31.0664 2.11079 30.3628 2.11079C29.6592 2.11079 29.0337 2.26714 28.4865 2.57985C27.9504 2.89256 27.5316 3.34487 27.2301 3.93678C26.9285 4.51753 26.7778 5.19879 26.7778 5.98056C26.7778 6.76234 26.9285 7.44918 27.2301 8.04109C27.5316 8.63301 27.9504 9.0909 28.4865 9.41478C29.0337 9.72749 29.6592 9.88384 30.3628 9.88384Z" fill="#3E505B"/>
<path d="M42.1757 0.167523C43.4042 0.167523 44.482 0.407638 45.4089 0.88787C46.3471 1.3681 47.0674 2.05495 47.57 2.9484C48.0837 3.83069 48.3406 4.85816 48.3406 6.03082C48.3406 7.20348 48.0837 8.23095 47.57 9.11324C47.0674 9.98436 46.3471 10.66 45.4089 11.1403C44.482 11.6205 43.4042 11.8606 42.1757 11.8606H38.0882V0.167523H42.1757ZM42.092 9.86709C43.3205 9.86709 44.2698 9.53204 44.9399 8.86195C45.61 8.19186 45.945 7.24815 45.945 6.03082C45.945 4.81349 45.61 3.86419 44.9399 3.18293C44.2698 2.4905 43.3205 2.14429 42.092 2.14429H40.4335V9.86709H42.092Z" fill="#3E505B"/>
<path d="M52.408 0.167523V7.40451C52.408 8.19745 52.6146 8.80611 53.0278 9.2305C53.441 9.64373 54.0218 9.85034 54.77 9.85034C55.5295 9.85034 56.1158 9.64373 56.529 9.2305C56.9423 8.80611 57.1489 8.19745 57.1489 7.40451V0.167523H59.5109V7.38775C59.5109 8.38172 59.2932 9.22492 58.8576 9.91735C58.4332 10.5986 57.858 11.1123 57.1321 11.4586C56.4173 11.8048 55.6188 11.9779 54.7365 11.9779C53.8654 11.9779 53.0725 11.8048 52.3577 11.4586C51.6541 11.1123 51.0957 10.5986 50.6825 9.91735C50.2693 9.22492 50.0627 8.38172 50.0627 7.38775V0.167523H52.408Z" fill="#3E505B"/>
<path d="M61.2074 5.99731C61.2074 4.84699 61.4642 3.81952 61.978 2.9149C62.5029 1.9991 63.2121 1.28992 64.1055 0.787357C65.0101 0.27362 66.0209 0.0167521 67.1377 0.0167521C68.4443 0.0167521 69.5891 0.351798 70.5719 1.02189C71.5547 1.69198 72.2415 2.61894 72.6324 3.80277H69.9353C69.6673 3.24436 69.2876 2.82555 68.7961 2.54635C68.3159 2.26714 67.7575 2.12754 67.1209 2.12754C66.4397 2.12754 65.831 2.28948 65.2949 2.61335C64.77 2.92606 64.3568 3.37279 64.0552 3.95354C63.7649 4.53428 63.6197 5.21554 63.6197 5.99731C63.6197 6.76792 63.7649 7.44918 64.0552 8.04109C64.3568 8.62184 64.77 9.07415 65.2949 9.39803C65.831 9.71074 66.4397 9.86709 67.1209 9.86709C67.7575 9.86709 68.3159 9.72749 68.7961 9.44828C69.2876 9.15791 69.6673 8.73352 69.9353 8.17511H72.6324C72.2415 9.37011 71.5547 10.3026 70.5719 10.9727C69.6003 11.6317 68.4555 11.9611 67.1377 11.9611C66.0209 11.9611 65.0101 11.7098 64.1055 11.2073C63.2121 10.6935 62.5029 9.98436 61.978 9.07973C61.4642 8.17511 61.2074 7.14764 61.2074 5.99731Z" fill="#3E505B"/>
<path d="M82.593 0.167523V2.06053H79.477V11.8606H77.1317V2.06053H74.0158V0.167523H82.593Z" fill="#3E505B"/>
</g>
<defs>
<filter id="filter0_d_409_421" x="0" y="0" width="86.6036" height="20" filterUnits="userSpaceOnUse" color-interpolation-filters="sRGB">
<feFlood flood-opacity="0" result="BackgroundImageFix"/>
<feColorMatrix in="SourceAlpha" type="matrix" values="0 0 0 0 0 0 0 0 0 0 0 0 0 0 0 0 0 0 127 0" result="hardAlpha"/>
<feOffset dy="4"/>
<feGaussianBlur stdDeviation="2"/>
<feComposite in2="hardAlpha" operator="out"/>
<feColorMatrix type="matrix" values="0 0 0 0 0 0 0 0 0 0 0 0 0 0 0 0 0 0 0.25 0"/>
<feBlend mode="normal" in2="BackgroundImageFix" result="effect1_dropShadow_409_421"/>
<feBlend mode="normal" in="SourceGraphic" in2="effect1_dropShadow_409_421" result="shape"/>
</filter>
</defs>
</svg>
