<svg width="212" height="40" viewBox="0 0 212 40" fill="none" xmlns="http://www.w3.org/2000/svg">
<g filter="url(#filter0_d_409_119)">
<path d="M13.1724 5.60762C13.1724 6.58988 12.9452 7.48416 12.4907 8.29049C12.0362 9.08215 11.3619 9.71255 10.4676 10.1817C9.58794 10.6508 8.51773 10.8854 7.25693 10.8854H5.32175V15.8333H0.439814V0.263889H7.25693C9.16279 0.263889 10.6215 0.747684 11.6331 1.71527C12.6593 2.68286 13.1724 3.98031 13.1724 5.60762ZM6.70716 7.03702C7.71873 7.03702 8.22452 6.56055 8.22452 5.60762C8.22452 4.6547 7.71873 4.17823 6.70716 4.17823H5.32175V7.03702H6.70716Z" fill="white"/>
<path d="M24.7046 13.4803H19.5148L18.7452 15.8333H13.6213L19.3169 0.263889H24.9465L30.6201 15.8333H25.4743L24.7046 13.4803ZM23.5171 9.80785L22.1097 5.47568L20.7023 9.80785H23.5171Z" fill="white"/>
<path d="M38.2165 0.263889C39.8439 0.263889 41.2659 0.593749 42.4827 1.25347C43.7142 1.91319 44.6598 2.82947 45.3195 4.0023C45.9793 5.17514 46.3091 6.50924 46.3091 8.00461C46.3091 9.48532 45.9793 10.8194 45.3195 12.0069C44.6598 13.1944 43.7142 14.1327 42.4827 14.8217C41.2659 15.4961 39.8439 15.8333 38.2165 15.8333H31.7293V0.263889H38.2165ZM37.7767 11.4791C38.8763 11.4791 39.7486 11.1786 40.3936 10.5775C41.0387 9.97644 41.3612 9.11881 41.3612 8.00461C41.3612 6.89042 41.0387 6.03278 40.3936 5.4317C39.7486 4.83062 38.8763 4.53008 37.7767 4.53008H36.6112V11.4791H37.7767Z" fill="white"/>
<path d="M58.0558 13.4803H52.866L52.0963 15.8333H46.9724L52.668 0.263889H58.2977L63.9712 15.8333H58.8254L58.0558 13.4803ZM56.8683 9.80785L55.4609 5.47568L54.0535 9.80785H56.8683Z" fill="white"/>
<path d="M77.3072 0.263889V4.13425H73.173V15.8333H68.291V4.13425H64.2008V0.263889H77.3072Z" fill="white"/>
<path d="M88.6151 13.4803H83.4253L82.6556 15.8333H77.5318L83.2274 0.263889H88.857L94.5306 15.8333H89.3847L88.6151 13.4803ZM87.4276 9.80785L86.0202 5.47568L84.6128 9.80785H87.4276Z" fill="white"/>
<path d="M98.9366 8.0266C98.9366 6.48725 99.2445 5.1165 99.8602 3.91434C100.491 2.71218 101.385 1.78125 102.543 1.12152C103.701 0.447144 105.065 0.109953 106.633 0.109953C107.982 0.109953 109.184 0.366511 110.24 0.879628C111.31 1.37808 112.175 2.08912 112.835 3.01272C113.509 3.93633 113.956 5.01388 114.176 6.24535H109.03C108.796 5.73224 108.459 5.33641 108.019 5.05786C107.594 4.76465 107.102 4.61804 106.545 4.61804C105.724 4.61804 105.072 4.92591 104.588 5.54165C104.119 6.15739 103.885 6.98571 103.885 8.0266C103.885 9.06749 104.119 9.89581 104.588 10.5115C105.072 11.1273 105.724 11.4352 106.545 11.4352C107.102 11.4352 107.594 11.2959 108.019 11.0173C108.459 10.7241 108.796 10.321 109.03 9.80785H114.176C113.956 11.0393 113.509 12.1169 112.835 13.0405C112.175 13.9641 111.31 14.6824 110.24 15.1956C109.184 15.694 107.982 15.9432 106.633 15.9432C105.065 15.9432 103.701 15.6134 102.543 14.9537C101.385 14.2793 100.491 13.341 99.8602 12.1389C99.2445 10.9367 98.9366 9.56595 98.9366 8.0266Z" fill="white"/>
<path d="M123.521 15.9872C122.055 15.9872 120.706 15.6427 119.474 14.9537C118.258 14.2646 117.29 13.3117 116.572 12.0949C115.853 10.8781 115.494 9.50731 115.494 7.98262C115.494 6.45793 115.853 5.08718 116.572 3.87036C117.29 2.65354 118.258 1.70794 119.474 1.03356C120.706 0.344521 122.055 0 123.521 0C124.987 0 126.328 0.344521 127.545 1.03356C128.762 1.70794 129.722 2.65354 130.426 3.87036C131.144 5.08718 131.503 6.45793 131.503 7.98262C131.503 9.50731 131.144 10.8781 130.426 12.0949C129.722 13.3117 128.754 14.2646 127.523 14.9537C126.306 15.6427 124.972 15.9872 123.521 15.9872ZM123.521 11.4352C124.488 11.4352 125.236 11.1273 125.764 10.5115C126.291 9.88115 126.555 9.03817 126.555 7.98262C126.555 6.91241 126.291 6.06943 125.764 5.45369C125.236 4.82329 124.488 4.50809 123.521 4.50809C122.538 4.50809 121.783 4.82329 121.256 5.45369C120.728 6.06943 120.464 6.91241 120.464 7.98262C120.464 9.03817 120.728 9.88115 121.256 10.5115C121.783 11.1273 122.538 11.4352 123.521 11.4352Z" fill="white"/>
<path d="M140.851 15.9872C139.385 15.9872 138.036 15.6427 136.805 14.9537C135.588 14.2646 134.621 13.3117 133.902 12.0949C133.184 10.8781 132.825 9.50731 132.825 7.98262C132.825 6.45793 133.184 5.08718 133.902 3.87036C134.621 2.65354 135.588 1.70794 136.805 1.03356C138.036 0.344521 139.385 0 140.851 0C142.317 0 143.659 0.344521 144.875 1.03356C146.092 1.70794 147.053 2.65354 147.756 3.87036C148.475 5.08718 148.834 6.45793 148.834 7.98262C148.834 9.50731 148.475 10.8781 147.756 12.0949C147.053 13.3117 146.085 14.2646 144.854 14.9537C143.637 15.6427 142.303 15.9872 140.851 15.9872ZM140.851 11.4352C141.819 11.4352 142.566 11.1273 143.094 10.5115C143.622 9.88115 143.886 9.03817 143.886 7.98262C143.886 6.91241 143.622 6.06943 143.094 5.45369C142.566 4.82329 141.819 4.50809 140.851 4.50809C139.869 4.50809 139.114 4.82329 138.586 5.45369C138.058 6.06943 137.795 6.91241 137.795 7.98262C137.795 9.03817 138.058 9.88115 138.586 10.5115C139.114 11.1273 139.869 11.4352 140.851 11.4352Z" fill="white"/>
<path d="M160.007 15.8333L155.477 9.08215V15.8333H150.595V0.263889H155.477V6.81711L159.941 0.263889H165.461L160.095 7.71873L165.813 15.8333H160.007Z" fill="white"/>
<path d="M172.077 0.263889V15.8333H167.195V0.263889H172.077Z" fill="white"/>
<path d="M189.214 15.8333H184.332L179.164 8.00461V15.8333H174.282V0.263889H179.164L184.332 8.22452V0.263889H189.214V15.8333Z" fill="white"/>
<path d="M200.963 5.58563C200.773 5.27776 200.502 5.0432 200.15 4.88193C199.798 4.70601 199.373 4.61804 198.874 4.61804C197.936 4.61804 197.21 4.92591 196.697 5.54165C196.184 6.14273 195.928 6.97105 195.928 8.0266C195.928 9.24342 196.213 10.1524 196.785 10.7534C197.357 11.3545 198.237 11.6551 199.424 11.6551C200.553 11.6551 201.462 11.2006 202.151 10.2916H198.259V6.8391H206.197V11.721C205.523 12.8792 204.592 13.8761 203.404 14.7118C202.217 15.5328 200.714 15.9432 198.896 15.9432C197.284 15.9432 195.876 15.6134 194.674 14.9537C193.487 14.2793 192.57 13.341 191.925 12.1389C191.295 10.9367 190.98 9.56595 190.98 8.0266C190.98 6.48725 191.295 5.1165 191.925 3.91434C192.57 2.71218 193.487 1.78125 194.674 1.12152C195.862 0.447144 197.254 0.109953 198.852 0.109953C200.89 0.109953 202.547 0.601079 203.822 1.58333C205.112 2.56558 205.875 3.89968 206.109 5.58563H200.963Z" fill="white"/>
<path d="M0 31.5881C0 30.0487 0.30787 28.6779 0.923609 27.4758C1.55401 26.2736 2.4483 25.3427 3.60647 24.683C4.76465 24.0086 6.12807 23.6714 7.69674 23.6714C9.0455 23.6714 10.2477 23.928 11.3032 24.4411C12.3734 24.9395 13.2384 25.6506 13.8981 26.5742C14.5725 27.4978 15.0196 28.5753 15.2395 29.8068H10.0937C9.85916 29.2937 9.52197 28.8979 9.08215 28.6193C8.657 28.3261 8.16588 28.1795 7.60878 28.1795C6.78779 28.1795 6.1354 28.4874 5.65161 29.1031C5.18247 29.7188 4.9479 30.5472 4.9479 31.5881C4.9479 32.6289 5.18247 33.4573 5.65161 34.073C6.1354 34.6887 6.78779 34.9966 7.60878 34.9966C8.16588 34.9966 8.657 34.8573 9.08215 34.5788C9.52197 34.2856 9.85916 33.8824 10.0937 33.3693H15.2395C15.0196 34.6008 14.5725 35.6783 13.8981 36.6019C13.2384 37.5255 12.3734 38.2439 11.3032 38.757C10.2477 39.2555 9.0455 39.5047 7.69674 39.5047C6.12807 39.5047 4.76465 39.1748 3.60647 38.5151C2.4483 37.8407 1.55401 36.9025 0.923609 35.7003C0.30787 34.4982 0 33.1274 0 31.5881Z" fill="white"/>
<path d="M24.584 39.5487C23.118 39.5487 21.7692 39.2042 20.5378 38.5151C19.3209 37.8261 18.3533 36.8731 17.635 35.6563C16.9166 34.4395 16.5574 33.0688 16.5574 31.5441C16.5574 30.0194 16.9166 28.6486 17.635 27.4318C18.3533 26.215 19.3209 25.2694 20.5378 24.595C21.7692 23.906 23.118 23.5614 24.584 23.5614C26.0501 23.5614 27.3915 23.906 28.6083 24.595C29.8252 25.2694 30.7854 26.215 31.4891 27.4318C32.2075 28.6486 32.5667 30.0194 32.5667 31.5441C32.5667 33.0688 32.2075 34.4395 31.4891 35.6563C30.7854 36.8731 29.8178 37.8261 28.5863 38.5151C27.3695 39.2042 26.0354 39.5487 24.584 39.5487ZM24.584 34.9966C25.5516 34.9966 26.2993 34.6887 26.8271 34.073C27.3549 33.4426 27.6188 32.5996 27.6188 31.5441C27.6188 30.4739 27.3549 29.6309 26.8271 29.0151C26.2993 28.3847 25.5516 28.0695 24.584 28.0695C23.6018 28.0695 22.8468 28.3847 22.319 29.0151C21.7912 29.6309 21.5273 30.4739 21.5273 31.5441C21.5273 32.5996 21.7912 33.4426 22.319 34.073C22.8468 34.6887 23.6018 34.9966 24.584 34.9966Z" fill="white"/>
<path d="M53.0419 23.8253V39.3947H48.1819V31.632L45.785 39.3947H41.6067L39.2097 31.632V39.3947H34.3278V23.8253H40.3093L43.7398 33.1714L47.0824 23.8253H53.0419Z" fill="white"/>
<path d="M67.9773 29.1691C67.9773 30.1513 67.7501 31.0456 67.2956 31.8519C66.8411 32.6436 66.1668 33.274 65.2725 33.7431C64.3929 34.2123 63.3226 34.4468 62.0618 34.4468H60.1267V39.3947H55.2447V23.8253H62.0618C63.9677 23.8253 65.4264 24.3091 66.438 25.2767C67.4642 26.2443 67.9773 27.5418 67.9773 29.1691ZM61.5121 30.5985C62.5236 30.5985 63.0294 30.122 63.0294 29.1691C63.0294 28.2161 62.5236 27.7397 61.5121 27.7397H60.1267V30.5985H61.5121Z" fill="white"/>
<path d="M74.4077 27.7177V29.6309H79.2457V33.3033H74.4077V35.5024H79.9054V39.3947H69.5258V23.8253H79.9054V27.7177H74.4077Z" fill="white"/>
<path d="M93.972 23.8253V27.6957H89.8378V39.3947H84.9559V27.6957H80.8656V23.8253H93.972Z" fill="white"/>
<path d="M100.178 23.8253V39.3947H95.2961V23.8253H100.178Z" fill="white"/>
<path d="M114.61 23.8253V27.6957H110.476V39.3947H105.594V27.6957H101.503V23.8253H114.61Z" fill="white"/>
<path d="M120.816 23.8253V39.3947H115.934V23.8253H120.816Z" fill="white"/>
<path d="M130.607 39.5487C129.141 39.5487 127.793 39.2042 126.561 38.5151C125.344 37.8261 124.377 36.8731 123.658 35.6563C122.94 34.4395 122.581 33.0688 122.581 31.5441C122.581 30.0194 122.94 28.6486 123.658 27.4318C124.377 26.215 125.344 25.2694 126.561 24.595C127.793 23.906 129.141 23.5614 130.607 23.5614C132.074 23.5614 133.415 23.906 134.632 24.595C135.849 25.2694 136.809 26.215 137.513 27.4318C138.231 28.6486 138.59 30.0194 138.59 31.5441C138.59 33.0688 138.231 34.4395 137.513 35.6563C136.809 36.8731 135.841 37.8261 134.61 38.5151C133.393 39.2042 132.059 39.5487 130.607 39.5487ZM130.607 34.9966C131.575 34.9966 132.323 34.6887 132.851 34.073C133.378 33.4426 133.642 32.5996 133.642 31.5441C133.642 30.4739 133.378 29.6309 132.851 29.0151C132.323 28.3847 131.575 28.0695 130.607 28.0695C129.625 28.0695 128.87 28.3847 128.342 29.0151C127.815 29.6309 127.551 30.4739 127.551 31.5441C127.551 32.5996 127.815 33.4426 128.342 34.073C128.87 34.6887 129.625 34.9966 130.607 34.9966Z" fill="white"/>
<path d="M155.283 39.3947H150.401L145.233 31.5661V39.3947H140.351V23.8253H145.233L150.401 31.786V23.8253H155.283V39.3947Z" fill="white"/>
<path d="M160.741 35.5024C162.706 34.0363 164.26 32.7096 165.403 31.5221C166.547 30.3199 167.119 29.1984 167.119 28.1575C167.119 27.8057 167.038 27.5344 166.877 27.3438C166.73 27.1533 166.532 27.058 166.283 27.058C165.99 27.058 165.755 27.2119 165.579 27.5198C165.418 27.813 165.359 28.2675 165.403 28.8832H160.675C160.719 27.5198 161.013 26.3982 161.555 25.5186C162.112 24.639 162.831 23.9939 163.71 23.5834C164.59 23.1729 165.557 22.9677 166.613 22.9677C168.489 22.9677 169.86 23.4222 170.725 24.3311C171.605 25.2254 172.045 26.3763 172.045 27.7837C172.045 29.2644 171.568 30.6571 170.615 31.9619C169.677 33.252 168.497 34.3442 167.075 35.2385H172.111V39.1748H160.741V35.5024Z" fill="white"/>
<path d="M173.285 31.1262C173.285 28.59 173.82 26.5962 174.89 25.1448C175.975 23.6934 177.639 22.9677 179.882 22.9677C182.111 22.9677 183.767 23.7007 184.852 25.1668C185.937 26.6182 186.479 28.6046 186.479 31.1262C186.479 33.6625 185.937 35.6637 184.852 37.1297C183.767 38.5811 182.111 39.3068 179.882 39.3068C177.639 39.3068 175.975 38.5811 174.89 37.1297C173.82 35.6637 173.285 33.6625 173.285 31.1262ZM181.664 31.1262C181.664 29.9534 181.546 29.0738 181.312 28.4874C181.077 27.8863 180.601 27.5857 179.882 27.5857C179.149 27.5857 178.665 27.8863 178.431 28.4874C178.196 29.0738 178.079 29.9534 178.079 31.1262C178.079 32.3137 178.196 33.208 178.431 33.8091C178.665 34.3955 179.149 34.6887 179.882 34.6887C180.601 34.6887 181.077 34.3955 181.312 33.8091C181.546 33.208 181.664 32.3137 181.664 31.1262Z" fill="white"/>
<path d="M187.757 35.5024C189.722 34.0363 191.276 32.7096 192.419 31.5221C193.563 30.3199 194.135 29.1984 194.135 28.1575C194.135 27.8057 194.054 27.5344 193.893 27.3438C193.746 27.1533 193.548 27.058 193.299 27.058C193.006 27.058 192.771 27.2119 192.595 27.5198C192.434 27.813 192.375 28.2675 192.419 28.8832H187.691C187.735 27.5198 188.029 26.3982 188.571 25.5186C189.128 24.639 189.846 23.9939 190.726 23.5834C191.606 23.1729 192.573 22.9677 193.629 22.9677C195.505 22.9677 196.876 23.4222 197.741 24.3311C198.621 25.2254 199.061 26.3763 199.061 27.7837C199.061 29.2644 198.584 30.6571 197.631 31.9619C196.693 33.252 195.513 34.3442 194.091 35.2385H199.127V39.1748H187.757V35.5024Z" fill="white"/>
<path d="M200.587 28.3554C200.631 26.6108 201.137 25.2767 202.104 24.3531C203.086 23.4295 204.472 22.9677 206.26 22.9677C207.419 22.9677 208.408 23.1656 209.229 23.5614C210.05 23.9573 210.666 24.4924 211.076 25.1668C211.502 25.8411 211.714 26.6035 211.714 27.4538C211.714 28.48 211.472 29.2864 210.988 29.8728C210.505 30.4445 209.962 30.833 209.361 31.0383V31.1262C211.12 31.786 212 33.0101 212 34.7987C212 35.737 211.78 36.5653 211.34 37.2836C210.9 38.002 210.27 38.5591 209.449 38.9549C208.643 39.3508 207.683 39.5487 206.568 39.5487C204.662 39.5487 203.167 39.0942 202.082 38.1853C200.997 37.2763 200.44 35.8542 200.411 33.9191H205.161C205.132 34.4468 205.205 34.85 205.381 35.1285C205.571 35.3924 205.894 35.5244 206.348 35.5244C206.612 35.5244 206.832 35.4291 207.008 35.2385C207.184 35.0333 207.272 34.7694 207.272 34.4468C207.272 34.0363 207.133 33.7285 206.854 33.5232C206.59 33.3033 206.136 33.1934 205.491 33.1934H204.677V29.257H205.469C206.466 29.3157 206.964 28.9198 206.964 28.0695C206.964 27.703 206.883 27.4318 206.722 27.2559C206.576 27.08 206.385 26.992 206.15 26.992C205.608 26.992 205.337 27.4465 205.337 28.3554H200.587Z" fill="white"/>
</g>
<defs>
<filter id="filter0_d_409_119" x="-4.00291" y="0" width="220.006" height="47.5545" filterUnits="userSpaceOnUse" color-interpolation-filters="sRGB">
<feFlood flood-opacity="0" result="BackgroundImageFix"/>
<feColorMatrix in="SourceAlpha" type="matrix" values="0 0 0 0 0 0 0 0 0 0 0 0 0 0 0 0 0 0 127 0" result="hardAlpha"/>
<feOffset dy="4"/>
<feGaussianBlur stdDeviation="2"/>
<feComposite in2="hardAlpha" operator="out"/>
<feColorMatrix type="matrix" values="0 0 0 0 0 0 0 0 0 0 0 0 0 0 0 0 0 0 1 0"/>
<feBlend mode="normal" in2="BackgroundImageFix" result="effect1_dropShadow_409_119"/>
<feBlend mode="normal" in="SourceGraphic" in2="effect1_dropShadow_409_119" result="shape"/>
</filter>
</defs>
</svg>
