<svg width="228" height="27" viewBox="0 0 228 27" fill="none" xmlns="http://www.w3.org/2000/svg">
<path d="M13.9307 27C11.9441 27 10.0941 26.675 8.38075 26.025C6.69218 25.35 5.21469 24.4125 3.94826 23.2125C2.70667 21.9875 1.73823 20.55 1.04294 18.9C0.347646 17.25 0 15.45 0 13.5C0 11.55 0.347646 9.75 1.04294 8.1C1.73823 6.45 2.71909 5.025 3.98551 3.825C5.25194 2.6 6.72943 1.6625 8.418 1.0125C10.1066 0.3375 11.9565 0 13.9679 0C16.1035 0 18.0528 0.375 19.8158 1.125C21.5789 1.85 23.0688 2.9375 24.2856 4.3875L21.1567 7.35C20.2131 6.325 19.1578 5.5625 17.9907 5.0625C16.8236 4.5375 15.5572 4.275 14.1914 4.275C12.8257 4.275 11.5716 4.5 10.4294 4.95C9.31195 5.4 8.33109 6.0375 7.4868 6.8625C6.66735 7.6875 6.02173 8.6625 5.54992 9.7875C5.10295 10.9125 4.87946 12.15 4.87946 13.5C4.87946 14.85 5.10295 16.0875 5.54992 17.2125C6.02173 18.3375 6.66735 19.3125 7.4868 20.1375C8.33109 20.9625 9.31195 21.6 10.4294 22.05C11.5716 22.5 12.8257 22.725 14.1914 22.725C15.5572 22.725 16.8236 22.475 17.9907 21.975C19.1578 21.45 20.2131 20.6625 21.1567 19.6125L24.2856 22.6125C23.0688 24.0375 21.5789 25.125 19.8158 25.875C18.0528 26.625 16.091 27 13.9307 27Z" fill="white"/>
<path d="M47.2511 0.375H52.0933V26.625H47.2511V0.375ZM33.7674 26.625H28.9252V0.375H33.7674V26.625ZM47.6236 15.375H33.3577V11.2125H47.6236V15.375Z" fill="white"/>
<path d="M63.5497 11.2875H76.5119V15.3H63.5497V11.2875ZM63.9221 22.5375H78.635V26.625H59.0799V0.375H78.1135V4.4625H63.9221V22.5375Z" fill="white"/>
<path d="M96.1013 27C94.1148 27 92.2648 26.675 90.5514 26.025C88.8628 25.35 87.3853 24.4125 86.1189 23.2125C84.8773 21.9875 83.9089 20.55 83.2136 18.9C82.5183 17.25 82.1706 15.45 82.1706 13.5C82.1706 11.55 82.5183 9.75 83.2136 8.1C83.9089 6.45 84.8897 5.025 86.1562 3.825C87.4226 2.6 88.9001 1.6625 90.5886 1.0125C92.2772 0.3375 94.1272 0 96.1386 0C98.2741 0 100.223 0.375 101.986 1.125C103.75 1.85 105.239 2.9375 106.456 4.3875L103.327 7.35C102.384 6.325 101.328 5.5625 100.161 5.0625C98.9942 4.5375 97.7278 4.275 96.362 4.275C94.9963 4.275 93.7423 4.5 92.6 4.95C91.4826 5.4 90.5017 6.0375 89.6574 6.8625C88.838 7.6875 88.1924 8.6625 87.7206 9.7875C87.2736 10.9125 87.0501 12.15 87.0501 13.5C87.0501 14.85 87.2736 16.0875 87.7206 17.2125C88.1924 18.3375 88.838 19.3125 89.6574 20.1375C90.5017 20.9625 91.4826 21.6 92.6 22.05C93.7423 22.5 94.9963 22.725 96.362 22.725C97.7278 22.725 98.9942 22.475 100.161 21.975C101.328 21.45 102.384 20.6625 103.327 19.6125L106.456 22.6125C105.239 24.0375 103.75 25.125 101.986 25.875C100.223 26.625 98.2617 27 96.1013 27Z" fill="white"/>
<path d="M115.417 20.4375L115.156 14.6625L128.826 0.375H134.264L122.903 12.525L120.222 15.4875L115.417 20.4375ZM111.096 26.625V0.375H115.938V26.625H111.096ZM129.273 26.625L119.29 14.6625L122.494 11.1L134.934 26.625H129.273Z" fill="white"/>
<path d="M160.743 27C158.707 27 156.832 26.6625 155.118 25.9875C153.405 25.3125 151.915 24.375 150.649 23.175C149.382 21.95 148.401 20.525 147.706 18.9C147.011 17.25 146.663 15.45 146.663 13.5C146.663 11.55 147.011 9.7625 147.706 8.1375C148.401 6.4875 149.382 5.0625 150.649 3.8625C151.915 2.6375 153.405 1.6875 155.118 1.0125C156.832 0.3375 158.694 0 160.706 0C162.742 0 164.604 0.3375 166.293 1.0125C168.006 1.6875 169.496 2.6375 170.762 3.8625C172.029 5.0625 173.01 6.4875 173.705 8.1375C174.4 9.7625 174.748 11.55 174.748 13.5C174.748 15.45 174.4 17.25 173.705 18.9C173.01 20.55 172.029 21.975 170.762 23.175C169.496 24.375 168.006 25.3125 166.293 25.9875C164.604 26.6625 162.754 27 160.743 27ZM160.706 22.725C162.022 22.725 163.238 22.5 164.356 22.05C165.473 21.6 166.442 20.9625 167.261 20.1375C168.081 19.2875 168.714 18.3125 169.161 17.2125C169.633 16.0875 169.869 14.85 169.869 13.5C169.869 12.15 169.633 10.925 169.161 9.825C168.714 8.7 168.081 7.725 167.261 6.9C166.442 6.05 165.473 5.4 164.356 4.95C163.238 4.5 162.022 4.275 160.706 4.275C159.389 4.275 158.173 4.5 157.055 4.95C155.963 5.4 154.994 6.05 154.15 6.9C153.33 7.725 152.685 8.7 152.213 9.825C151.766 10.925 151.543 12.15 151.543 13.5C151.543 14.825 151.766 16.05 152.213 17.175C152.685 18.3 153.33 19.2875 154.15 20.1375C154.969 20.9625 155.938 21.6 157.055 22.05C158.173 22.5 159.389 22.725 160.706 22.725Z" fill="white"/>
<path d="M191.092 27C187.516 27 184.71 25.9875 182.674 23.9625C180.663 21.9375 179.657 19.0125 179.657 15.1875V0.375H184.499V15C184.499 17.7 185.07 19.6625 186.213 20.8875C187.38 22.1125 189.019 22.725 191.129 22.725C193.24 22.725 194.867 22.1125 196.009 20.8875C197.151 19.6625 197.722 17.7 197.722 15V0.375H202.49V15.1875C202.49 19.0125 201.472 21.9375 199.436 23.9625C197.424 25.9875 194.643 27 191.092 27Z" fill="white"/>
<path d="M214.088 26.625V4.5H205.446V0.375H227.571V4.5H218.93V26.625H214.088Z" fill="white"/>
</svg>
