<svg width="64" height="22" viewBox="0 0 64 22" fill="none" xmlns="http://www.w3.org/2000/svg">
<rect width="64" height="21.3333" fill="#26413C"/>
<path d="M12.1092 10.2391C12.7544 10.3766 13.2727 10.6992 13.664 11.2069C14.0554 11.7041 14.2511 12.2752 14.2511 12.9204C14.2511 13.8512 13.9232 14.5916 13.2674 15.1416C12.6222 15.681 11.7179 15.9507 10.5544 15.9507H5.36636V4.81312H10.3799C11.5116 4.81312 12.3948 5.07226 13.0294 5.59053C13.6746 6.10881 13.9972 6.81218 13.9972 7.70065C13.9972 8.35643 13.8227 8.90114 13.4737 9.3348C13.1352 9.76846 12.6804 10.0699 12.1092 10.2391ZM8.07937 9.31894H9.85631C10.3005 9.31894 10.639 9.22374 10.8717 9.03336C11.115 8.83239 11.2366 8.54153 11.2366 8.16075C11.2366 7.77998 11.115 7.48911 10.8717 7.28815C10.639 7.08718 10.3005 6.9867 9.85631 6.9867H8.07937V9.31894ZM10.0784 13.7613C10.5332 13.7613 10.8823 13.6608 11.1256 13.4598C11.3794 13.2483 11.5063 12.9469 11.5063 12.5555C11.5063 12.1642 11.3741 11.8574 11.1097 11.6353C10.8558 11.4132 10.5015 11.3021 10.0467 11.3021H8.07937V13.7613H10.0784Z" fill="white"/>
<path d="M18.5376 6.9867V9.23961H22.1708V11.3339H18.5376V13.7772H22.6468V15.9507H15.8246V4.81312H22.6468V6.9867H18.5376Z" fill="white"/>
<path d="M30.088 15.9507L27.7716 11.7464H27.1211V15.9507H24.4081V4.81312H28.9615C29.8394 4.81312 30.5851 4.96649 31.1986 5.27322C31.8226 5.57996 32.288 6.00304 32.5947 6.54247C32.9015 7.07132 33.0548 7.66363 33.0548 8.31941C33.0548 9.0598 32.8433 9.72086 32.4202 10.3026C32.0077 10.8843 31.3942 11.2968 30.5798 11.5401L33.15 15.9507H30.088ZM27.1211 9.82663H28.8029C29.3 9.82663 29.6702 9.705 29.9135 9.46173C30.1673 9.21846 30.2942 8.8747 30.2942 8.43047C30.2942 8.00739 30.1673 7.67421 29.9135 7.43094C29.6702 7.18767 29.3 7.06603 28.8029 7.06603H27.1211V9.82663Z" fill="white"/>
<path d="M37.4709 4.81312V15.9507H34.7579V4.81312H37.4709Z" fill="white"/>
<path d="M47.4491 4.81312V6.9867H44.4981V15.9507H41.7851V6.9867H38.8341V4.81312H47.4491Z" fill="white"/>
<path d="M55.7439 13.9834H51.5872L50.9208 15.9507H48.0809L52.1107 4.81312H55.2521L59.2819 15.9507H56.4103L55.7439 13.9834ZM55.0458 11.8892L53.6655 7.81171L52.3011 11.8892H55.0458Z" fill="white"/>
</svg>
