<svg width="873" height="84" viewBox="0 0 873 84" fill="none" xmlns="http://www.w3.org/2000/svg">
<path d="M92.1282 0H70.2498C65.9748 0.00460139 61.8764 1.56223 58.8538 4.33114C55.8312 7.10005 54.1313 10.8541 54.127 14.7696V34.8083C54.132 38.7238 55.8326 42.4776 58.8557 45.246C61.8788 48.0145 65.9775 49.5715 70.2525 49.5754H92.1309C96.4059 49.5708 100.504 48.0132 103.527 45.2443C106.549 42.4754 108.249 38.7214 108.254 34.8059V14.7671C108.249 10.8516 106.548 7.09783 103.525 4.32939C100.502 1.56095 96.4031 0.00394305 92.1282 0ZM102.81 34.8059C102.81 36.0906 102.534 37.3628 101.997 38.5498C101.46 39.7368 100.673 40.8153 99.6813 41.7238C98.6894 42.6323 97.5118 43.3529 96.2159 43.8446C94.9199 44.3363 93.5309 44.5893 92.1282 44.5893H70.2498C67.4173 44.5887 64.701 43.5576 62.6984 41.7229C60.6958 39.8883 59.5708 37.4002 59.5708 34.8059V14.7671C59.5715 12.1728 60.6972 9.68496 62.7003 7.85074C64.7035 6.01652 67.42 4.9861 70.2525 4.9861H92.1309C94.9634 4.98676 97.6796 6.01781 99.6822 7.85249C101.685 9.68718 102.81 12.1753 102.81 14.7696V34.8059Z" fill="white"/>
<path d="M81.189 11.9661C77.4787 11.9713 73.922 13.3238 71.2987 15.727C68.6754 18.1302 67.1994 21.3881 67.1944 24.7864C67.1987 28.1856 68.6747 31.4445 71.2987 33.8483C73.9227 36.2521 77.4805 37.6046 81.1917 37.6092C84.9034 37.6053 88.4619 36.2531 91.0865 33.8492C93.7111 31.4453 95.1874 28.186 95.1918 24.7864C95.186 21.3872 93.7086 18.1289 91.0836 15.726C88.4586 13.3231 84.9003 11.9719 81.189 11.9686V11.9661ZM81.189 32.6231C78.9205 32.6231 76.7449 31.7978 75.1408 30.3286C73.5367 28.8594 72.6356 26.8667 72.6356 24.7889C72.6356 22.7111 73.5367 20.7185 75.1408 19.2493C76.7449 17.7801 78.9205 16.9547 81.189 16.9547C83.4575 16.9547 85.6331 17.7801 87.2372 19.2493C88.8413 20.7185 89.7425 22.7111 89.7425 24.7889C89.7425 26.8667 88.8413 28.8594 87.2372 30.3286C85.6331 31.7978 83.4575 32.6231 81.189 32.6231Z" fill="white"/>
<path d="M95.2161 15.1345C97.0682 15.1345 98.5697 13.7593 98.5697 12.0629C98.5697 10.3665 97.0682 8.9913 95.2161 8.9913C93.3639 8.9913 91.8625 10.3665 91.8625 12.0629C91.8625 13.7593 93.3639 15.1345 95.2161 15.1345Z" fill="white"/>
<path d="M14.3569 61.0064C16.3923 61.0064 18.1921 61.3682 19.7565 62.092C21.3209 62.8158 22.5236 63.8321 23.3646 65.141C24.2225 66.4345 24.6515 67.9206 24.6515 69.5991C24.6515 70.985 24.3823 72.24 23.844 73.3641C23.3058 74.4729 22.5152 75.3506 21.4723 75.9974C20.4293 76.6441 19.1762 76.9675 17.7127 76.9675C16.7875 76.9675 15.997 76.8135 15.3409 76.5055C14.7017 76.1976 14.2391 75.7587 13.9532 75.1889C13.5326 75.7895 12.9691 76.2515 12.2626 76.5748C11.573 76.8828 10.7824 77.0368 9.89086 77.0368C8.66291 77.0368 7.70411 76.7134 7.01444 76.0667C6.32477 75.4199 5.97993 74.5114 5.97993 73.341C5.97993 72.2477 6.21543 71.216 6.68642 70.2458C7.15742 69.2757 7.81344 68.498 8.6545 67.9129C9.49556 67.3123 10.4376 67.012 11.4805 67.012C12.1701 67.012 12.7421 67.1429 13.1962 67.4047C13.6672 67.6665 13.9868 68.0206 14.155 68.4672L14.4074 67.1275H18.7472L17.7632 72.2323C17.7127 72.4325 17.6875 72.625 17.6875 72.8098C17.6875 73.3949 17.9566 73.6875 18.4949 73.6875C19.1677 73.6875 19.6724 73.3179 20.0088 72.5788C20.3621 71.8242 20.5387 70.8772 20.5387 69.7376C20.5387 68.6751 20.2611 67.7435 19.706 66.9427C19.1677 66.1266 18.394 65.4952 17.3847 65.0486C16.3923 64.602 15.2232 64.3788 13.8775 64.3788C12.0608 64.3788 10.3955 64.7868 8.88159 65.603C7.3845 66.4037 6.19861 67.4971 5.32391 68.883C4.46603 70.2535 4.03709 71.7472 4.03709 73.3641C4.03709 75.1196 4.59219 76.5132 5.70238 77.545C6.81258 78.5767 8.3349 79.0926 10.2693 79.0926C11.9851 79.0926 13.5495 78.8154 14.9625 78.261L15.9213 81.4718C14.1719 82.1801 12.2038 82.5343 10.017 82.5343C8.0153 82.5343 6.25748 82.1724 4.74358 81.4487C3.22967 80.7249 2.0606 79.6932 1.23636 78.3534C0.412119 77.0291 0 75.4892 0 73.7337C0 71.2853 0.630795 69.0986 1.89238 67.1737C3.15397 65.2334 4.87815 63.7243 7.0649 62.6464C9.25166 61.553 11.6823 61.0064 14.3569 61.0064ZM11.7328 73.4796C12.1533 73.4796 12.5318 73.3102 12.8682 72.9715C13.2215 72.6327 13.3981 72.2092 13.3981 71.701C13.3981 71.3468 13.2972 71.0697 13.0953 70.8695C12.8934 70.6539 12.6327 70.5461 12.3131 70.5461C11.8758 70.5461 11.4889 70.7232 11.1525 71.0774C10.816 71.4161 10.6478 71.8473 10.6478 72.3709C10.6478 72.7097 10.7403 72.9792 10.9254 73.1793C11.1272 73.3795 11.3964 73.4796 11.7328 73.4796Z" fill="white"/>
<path d="M34.3722 65.6261C34.8432 65.0255 35.4403 64.5559 36.1637 64.2171C36.9038 63.8629 37.7364 63.6858 38.6616 63.6858C40.0914 63.6858 41.2437 64.1247 42.1184 65.0024C42.9931 65.8802 43.4304 67.0967 43.4304 68.652C43.4304 69.2372 43.3715 69.8069 43.2538 70.3613C42.9847 71.7318 42.4968 72.9253 41.7903 73.9416C41.0839 74.9425 40.2344 75.7125 39.2419 76.2515C38.2495 76.775 37.1982 77.0368 36.088 77.0368C35.1628 77.0368 34.3974 76.8674 33.7919 76.5286C33.2031 76.1745 32.791 75.6971 32.5555 75.0965L31.0164 83.1118H25.4149L29.124 63.8475H34.7254L34.3722 65.6261ZM37.5766 70.3613C37.6103 70.2227 37.6271 70.0379 37.6271 69.8069C37.6271 69.2834 37.4757 68.883 37.1729 68.6058C36.8701 68.3132 36.458 68.1669 35.9366 68.1669C35.331 68.1669 34.7927 68.3594 34.3217 68.7444C33.8676 69.1294 33.5732 69.6683 33.4386 70.3613C33.405 70.4999 33.3882 70.6847 33.3882 70.9157C33.3882 71.4392 33.5396 71.8473 33.8423 72.1399C34.1451 72.4171 34.5572 72.5557 35.0787 72.5557C35.6843 72.5557 36.2141 72.3632 36.6683 71.9782C37.1393 71.5932 37.4421 71.0543 37.5766 70.3613Z" fill="white"/>
<path d="M44.2552 70.3613C44.5243 68.9908 45.0121 67.8051 45.7186 66.8041C46.4251 65.7878 47.2746 65.0178 48.267 64.4943C49.2595 63.9553 50.3108 63.6858 51.421 63.6858C52.3462 63.6858 53.1115 63.8629 53.7171 64.2171C54.3227 64.5559 54.7432 65.0255 54.9787 65.6261L55.3319 63.8475H60.9082L58.385 76.8751H52.8088L53.162 75.0965C52.691 75.6971 52.0854 76.1745 51.3453 76.5286C50.6052 76.8674 49.7725 77.0368 48.8474 77.0368C47.4176 77.0368 46.2653 76.5979 45.3906 75.7202C44.5159 74.8424 44.0786 73.6259 44.0786 72.0706C44.0786 71.4854 44.1374 70.9157 44.2552 70.3613ZM54.0703 70.3613C54.104 70.2227 54.1208 70.0379 54.1208 69.8069C54.1208 69.2834 53.9694 68.883 53.6666 68.6058C53.3639 68.3132 52.9517 68.1669 52.4303 68.1669C51.8247 68.1669 51.2864 68.3594 50.8154 68.7444C50.3613 69.1294 50.0669 69.6683 49.9323 70.3613C49.8987 70.4999 49.8819 70.6847 49.8819 70.9157C49.8819 71.4392 50.0333 71.8473 50.336 72.1399C50.6388 72.4171 51.0509 72.5557 51.5724 72.5557C52.178 72.5557 52.7078 72.3632 53.162 71.9782C53.633 71.5932 53.9358 71.0543 54.0703 70.3613Z" fill="white"/>
<path d="M61.4049 70.3613C61.674 68.9908 62.1619 67.8051 62.8684 66.8041C63.5748 65.7878 64.4243 65.0178 65.4168 64.4943C66.4092 63.9553 67.4605 63.6858 68.5707 63.6858C69.4959 63.6858 70.2529 63.8629 70.8416 64.2171C71.4472 64.5559 71.8677 65.0255 72.1032 65.6261L73.2386 59.7821H78.8401L75.5347 76.8751H69.9333L70.2865 75.0965C69.8155 75.6971 69.2099 76.1745 68.4698 76.5286C67.7465 76.8674 66.9223 77.0368 65.9971 77.0368C64.5673 77.0368 63.415 76.5979 62.5403 75.7202C61.6656 74.8424 61.2283 73.6259 61.2283 72.0706C61.2283 71.4854 61.2872 70.9157 61.4049 70.3613ZM71.2201 70.3613C71.2537 70.2227 71.2705 70.0379 71.2705 69.8069C71.2705 69.2834 71.1191 68.883 70.8164 68.6058C70.5136 68.3132 70.1015 68.1669 69.58 68.1669C68.9744 68.1669 68.4362 68.3594 67.9652 68.7444C67.511 69.1294 67.2166 69.6683 67.0821 70.3613C67.0484 70.4999 67.0316 70.6847 67.0316 70.9157C67.0316 71.4392 67.183 71.8473 67.4858 72.1399C67.7886 72.4171 68.2007 72.5557 68.7221 72.5557C69.3277 72.5557 69.8576 72.3632 70.3117 71.9782C70.7827 71.5932 71.0855 71.0543 71.2201 70.3613Z" fill="white"/>
<path d="M78.5546 70.3613C78.8238 68.9908 79.3116 67.8051 80.0181 66.8041C80.7246 65.7878 81.574 65.0178 82.5665 64.4943C83.5589 63.9553 84.6103 63.6858 85.7205 63.6858C86.6456 63.6858 87.411 63.8629 88.0166 64.2171C88.6221 64.5559 89.0427 65.0255 89.2782 65.6261L89.6314 63.8475H95.2076L92.6844 76.8751H87.1082L87.4615 75.0965C86.9905 75.6971 86.3849 76.1745 85.6448 76.5286C84.9046 76.8674 84.072 77.0368 83.1468 77.0368C81.717 77.0368 80.5648 76.5979 79.6901 75.7202C78.8154 74.8424 78.378 73.6259 78.378 72.0706C78.378 71.4854 78.4369 70.9157 78.5546 70.3613ZM88.3698 70.3613C88.4035 70.2227 88.4203 70.0379 88.4203 69.8069C88.4203 69.2834 88.2689 68.883 87.9661 68.6058C87.6633 68.3132 87.2512 68.1669 86.7297 68.1669C86.1242 68.1669 85.5859 68.3594 85.1149 68.7444C84.6607 69.1294 84.3664 69.6683 84.2318 70.3613C84.1982 70.4999 84.1813 70.6847 84.1813 70.9157C84.1813 71.4392 84.3327 71.8473 84.6355 72.1399C84.9383 72.4171 85.3504 72.5557 85.8719 72.5557C86.4774 72.5557 87.0073 72.3632 87.4615 71.9782C87.9325 71.5932 88.2352 71.0543 88.3698 70.3613Z" fill="white"/>
<path d="M102.694 71.6317C102.677 71.6933 102.668 71.7703 102.668 71.8627C102.668 72.2939 102.971 72.5095 103.577 72.5095H104.914L104.056 76.8751H101.937C98.6228 76.8751 96.966 75.5893 96.966 73.0176C96.966 72.5557 97.0164 72.0629 97.1173 71.5393L97.7734 68.1207H96.0072L96.8398 63.8475H98.606L99.2116 60.7061H104.813L104.207 63.8475H106.529L105.696 68.1207H103.375L102.694 71.6317Z" fill="white"/>
<path d="M106.694 70.3613C106.963 68.9908 107.451 67.8051 108.157 66.8041C108.864 65.7878 109.713 65.0178 110.706 64.4943C111.698 63.9553 112.75 63.6858 113.86 63.6858C114.785 63.6858 115.55 63.8629 116.156 64.2171C116.761 64.5559 117.182 65.0255 117.418 65.6261L117.771 63.8475H123.347L120.824 76.8751H115.248L115.601 75.0965C115.13 75.6971 114.524 76.1745 113.784 76.5286C113.044 76.8674 112.211 77.0368 111.286 77.0368C109.856 77.0368 108.704 76.5979 107.829 75.7202C106.955 74.8424 106.517 73.6259 106.517 72.0706C106.517 71.4854 106.576 70.9157 106.694 70.3613ZM116.509 70.3613C116.543 70.2227 116.56 70.0379 116.56 69.8069C116.56 69.2834 116.408 68.883 116.105 68.6058C115.803 68.3132 115.391 68.1669 114.869 68.1669C114.264 68.1669 113.725 68.3594 113.254 68.7444C112.8 69.1294 112.506 69.6683 112.371 70.3613C112.338 70.4999 112.321 70.6847 112.321 70.9157C112.321 71.4392 112.472 71.8473 112.775 72.1399C113.078 72.4171 113.49 72.5557 114.011 72.5557C114.617 72.5557 115.147 72.3632 115.601 71.9782C116.072 71.5932 116.375 71.0543 116.509 70.3613Z" fill="white"/>
<path d="M126.089 77.0599C125.215 77.0599 124.525 76.8674 124.02 76.4824C123.533 76.0975 123.289 75.597 123.289 74.981C123.289 74.4421 123.448 73.9416 123.768 73.4796C124.104 73.0177 124.559 72.6558 125.131 72.394C125.719 72.1168 126.367 71.9782 127.073 71.9782C127.931 71.9782 128.604 72.1784 129.092 72.5788C129.58 72.9638 129.824 73.4642 129.824 74.0802C129.824 74.6192 129.664 75.1196 129.344 75.5816C129.025 76.0282 128.579 76.3901 128.007 76.6672C127.435 76.929 126.796 77.0599 126.089 77.0599Z" fill="white"/>
<path d="M131.901 70.3613C132.17 69.0062 132.709 67.8282 133.516 66.8272C134.323 65.8109 135.324 65.0332 136.519 64.4943C137.73 63.9553 139.042 63.6858 140.455 63.6858C142.305 63.6858 143.768 64.1632 144.845 65.1179C145.938 66.0727 146.494 67.397 146.51 69.0909H140.581C140.463 68.4133 140.093 68.0745 139.471 68.0745C139.017 68.0745 138.621 68.267 138.285 68.652C137.965 69.037 137.73 69.6068 137.578 70.3613C137.511 70.7925 137.477 71.0774 137.477 71.216C137.477 71.6933 137.578 72.0552 137.78 72.3016C137.982 72.5326 138.26 72.6481 138.613 72.6481C139.252 72.6481 139.74 72.3093 140.076 71.6317H146.006C145.35 73.3256 144.29 74.65 142.827 75.6047C141.38 76.5594 139.731 77.0368 137.881 77.0368C135.997 77.0368 134.5 76.5825 133.39 75.674C132.296 74.75 131.75 73.4719 131.75 71.8396C131.75 71.3622 131.8 70.8695 131.901 70.3613Z" fill="white"/>
<path d="M153.509 77.0368C152.247 77.0368 151.137 76.8135 150.178 76.367C149.22 75.9204 148.471 75.289 147.933 74.4729C147.395 73.6413 147.125 72.6789 147.125 71.5855C147.125 70.0764 147.512 68.7213 148.286 67.5202C149.077 66.319 150.153 65.3797 151.516 64.7021C152.878 64.0246 154.401 63.6858 156.083 63.6858C157.344 63.6858 158.454 63.9168 159.413 64.3788C160.372 64.8253 161.121 65.4644 161.659 66.2959C162.197 67.1121 162.466 68.0668 162.466 69.1602C162.466 70.6693 162.079 72.0244 161.306 73.2255C160.532 74.4267 159.464 75.366 158.101 76.0436C156.739 76.7057 155.208 77.0368 153.509 77.0368ZM154.367 72.6019C155.09 72.6019 155.662 72.3016 156.083 71.701C156.503 71.1005 156.713 70.4306 156.713 69.6914C156.713 69.1679 156.57 68.7752 156.285 68.5134C156.015 68.2516 155.662 68.1207 155.225 68.1207C154.501 68.1207 153.93 68.421 153.509 69.0216C153.088 69.6222 152.878 70.292 152.878 71.0312C152.878 71.5547 153.013 71.9474 153.282 72.2092C153.551 72.471 153.913 72.6019 154.367 72.6019Z" fill="white"/>
<path d="M813.436 0H820.959L804.523 21.0021L823.86 49.5754H808.72L796.864 32.2436L783.294 49.5754H775.767L793.347 27.1107L774.798 0.00228543H790.322L801.04 15.8441L813.436 0ZM810.797 44.5432H814.966L788.057 4.76946H783.584L810.797 44.5432Z" fill="white"/>
<path d="M738.749 61.0064C740.594 61.0064 742.225 61.3682 743.643 62.092C745.061 62.8158 746.151 63.8321 746.914 65.141C747.691 66.4345 748.08 67.9206 748.08 69.5991C748.08 70.985 747.836 72.24 747.348 73.3641C746.86 74.4729 746.144 75.3506 745.199 75.9974C744.253 76.6441 743.117 76.9675 741.791 76.9675C740.952 76.9675 740.236 76.8135 739.641 76.5055C739.061 76.1976 738.642 75.7587 738.383 75.1889C738.002 75.7895 737.491 76.2515 736.851 76.5748C736.225 76.8828 735.509 77.0368 734.701 77.0368C733.588 77.0368 732.719 76.7134 732.093 76.0667C731.468 75.4199 731.156 74.5114 731.156 73.341C731.156 72.2477 731.369 71.216 731.796 70.2458C732.223 69.2757 732.818 68.498 733.58 67.9129C734.342 67.3123 735.196 67.012 736.142 67.012C736.767 67.012 737.285 67.1429 737.697 67.4047C738.124 67.6665 738.413 68.0206 738.566 68.4672L738.795 67.1275H742.728L741.836 72.2323C741.791 72.4325 741.768 72.625 741.768 72.8098C741.768 73.3949 742.012 73.6875 742.5 73.6875C743.11 73.6875 743.567 73.3179 743.872 72.5788C744.192 71.8242 744.352 70.8772 744.352 69.7376C744.352 68.6751 744.101 67.7435 743.598 66.9427C743.11 66.1266 742.408 65.4952 741.493 65.0486C740.594 64.602 739.534 64.3788 738.314 64.3788C736.668 64.3788 735.158 64.7868 733.786 65.603C732.429 66.4037 731.354 67.4971 730.561 68.883C729.784 70.2535 729.395 71.7472 729.395 73.3641C729.395 75.1196 729.898 76.5132 730.904 77.545C731.91 78.5767 733.29 79.0926 735.044 79.0926C736.599 79.0926 738.017 78.8154 739.298 78.261L740.167 81.4718C738.581 82.1801 736.797 82.5343 734.815 82.5343C733.001 82.5343 731.407 82.1724 730.035 81.4487C728.663 80.7249 727.603 79.6932 726.856 78.3534C726.109 77.0291 725.735 75.4892 725.735 73.7337C725.735 71.2853 726.307 69.0986 727.451 67.1737C728.594 65.2334 730.157 63.7243 732.139 62.6464C734.121 61.553 736.325 61.0064 738.749 61.0064ZM736.37 73.4796C736.752 73.4796 737.095 73.3102 737.4 72.9715C737.72 72.6327 737.88 72.2092 737.88 71.701C737.88 71.3468 737.788 71.0697 737.605 70.8695C737.422 70.6539 737.186 70.5461 736.896 70.5461C736.5 70.5461 736.149 70.7232 735.844 71.0774C735.539 71.4161 735.387 71.8473 735.387 72.3709C735.387 72.7097 735.471 72.9792 735.638 73.1793C735.821 73.3795 736.065 73.4796 736.37 73.4796Z" fill="white"/>
<path d="M756.891 65.6261C757.318 65.0255 757.86 64.5559 758.515 64.2171C759.186 63.8629 759.941 63.6858 760.779 63.6858C762.076 63.6858 763.12 64.1247 763.913 65.0024C764.706 65.8802 765.102 67.0967 765.102 68.652C765.102 69.2372 765.049 69.8069 764.942 70.3613C764.698 71.7318 764.256 72.9253 763.615 73.9416C762.975 74.9425 762.205 75.7125 761.306 76.2515C760.406 76.775 759.453 77.0368 758.447 77.0368C757.608 77.0368 756.914 76.8674 756.365 76.5286C755.832 76.1745 755.458 75.6971 755.245 75.0965L753.85 83.1118H748.772L752.134 63.8475H757.212L756.891 65.6261ZM759.796 70.3613C759.827 70.2227 759.842 70.0379 759.842 69.8069C759.842 69.2834 759.705 68.883 759.43 68.6058C759.156 68.3132 758.782 68.1669 758.309 68.1669C757.761 68.1669 757.273 68.3594 756.846 68.7444C756.434 69.1294 756.167 69.6683 756.045 70.3613C756.015 70.4999 755.999 70.6847 755.999 70.9157C755.999 71.4392 756.137 71.8473 756.411 72.1399C756.686 72.4171 757.059 72.5557 757.532 72.5557C758.081 72.5557 758.561 72.3632 758.973 71.9782C759.4 71.5932 759.674 71.0543 759.796 70.3613Z" fill="white"/>
<path d="M765.85 70.3613C766.094 68.9908 766.536 67.8051 767.176 66.8041C767.817 65.7878 768.587 65.0178 769.486 64.4943C770.386 63.9553 771.339 63.6858 772.345 63.6858C773.184 63.6858 773.877 63.8629 774.426 64.2171C774.975 64.5559 775.356 65.0255 775.57 65.6261L775.89 63.8475H780.944L778.657 76.8751H773.603L773.923 75.0965C773.496 75.6971 772.947 76.1745 772.276 76.5286C771.606 76.8674 770.851 77.0368 770.012 77.0368C768.716 77.0368 767.672 76.5979 766.879 75.7202C766.086 74.8424 765.69 73.6259 765.69 72.0706C765.69 71.4854 765.743 70.9157 765.85 70.3613ZM774.746 70.3613C774.777 70.2227 774.792 70.0379 774.792 69.8069C774.792 69.2834 774.655 68.883 774.381 68.6058C774.106 68.3132 773.733 68.1669 773.26 68.1669C772.711 68.1669 772.223 68.3594 771.796 68.7444C771.384 69.1294 771.118 69.6683 770.996 70.3613C770.965 70.4999 770.95 70.6847 770.95 70.9157C770.95 71.4392 771.087 71.8473 771.362 72.1399C771.636 72.4171 772.01 72.5557 772.482 72.5557C773.031 72.5557 773.511 72.3632 773.923 71.9782C774.35 71.5932 774.625 71.0543 774.746 70.3613Z" fill="white"/>
<path d="M781.395 70.3613C781.639 68.9908 782.081 67.8051 782.721 66.8041C783.362 65.7878 784.132 65.0178 785.031 64.4943C785.931 63.9553 786.884 63.6858 787.89 63.6858C788.729 63.6858 789.415 63.8629 789.948 64.2171C790.497 64.5559 790.879 65.0255 791.092 65.6261L792.121 59.7821H797.199L794.202 76.8751H789.125L789.445 75.0965C789.018 75.6971 788.47 76.1745 787.799 76.5286C787.143 76.8674 786.396 77.0368 785.557 77.0368C784.261 77.0368 783.217 76.5979 782.424 75.7202C781.631 74.8424 781.235 73.6259 781.235 72.0706C781.235 71.4854 781.288 70.9157 781.395 70.3613ZM790.292 70.3613C790.322 70.2227 790.337 70.0379 790.337 69.8069C790.337 69.2834 790.2 68.883 789.926 68.6058C789.651 68.3132 789.278 68.1669 788.805 68.1669C788.256 68.1669 787.768 68.3594 787.341 68.7444C786.93 69.1294 786.663 69.6683 786.541 70.3613C786.51 70.4999 786.495 70.6847 786.495 70.9157C786.495 71.4392 786.632 71.8473 786.907 72.1399C787.181 72.4171 787.555 72.5557 788.027 72.5557C788.576 72.5557 789.057 72.3632 789.468 71.9782C789.895 71.5932 790.17 71.0543 790.292 70.3613Z" fill="white"/>
<path d="M796.94 70.3613C797.184 68.9908 797.626 67.8051 798.266 66.8041C798.907 65.7878 799.677 65.0178 800.576 64.4943C801.476 63.9553 802.429 63.6858 803.435 63.6858C804.274 63.6858 804.968 63.8629 805.516 64.2171C806.065 64.5559 806.447 65.0255 806.66 65.6261L806.98 63.8475H812.035L809.748 76.8751H804.693L805.013 75.0965C804.586 75.6971 804.037 76.1745 803.367 76.5286C802.696 76.8674 801.941 77.0368 801.102 77.0368C799.806 77.0368 798.762 76.5979 797.969 75.7202C797.176 74.8424 796.78 73.6259 796.78 72.0706C796.78 71.4854 796.833 70.9157 796.94 70.3613ZM805.837 70.3613C805.867 70.2227 805.882 70.0379 805.882 69.8069C805.882 69.2834 805.745 68.883 805.471 68.6058C805.196 68.3132 804.823 68.1669 804.35 68.1669C803.801 68.1669 803.313 68.3594 802.886 68.7444C802.475 69.1294 802.208 69.6683 802.086 70.3613C802.055 70.4999 802.04 70.6847 802.04 70.9157C802.04 71.4392 802.177 71.8473 802.452 72.1399C802.726 72.4171 803.1 72.5557 803.572 72.5557C804.121 72.5557 804.602 72.3632 805.013 71.9782C805.44 71.5932 805.715 71.0543 805.837 70.3613Z" fill="white"/>
<path d="M818.82 71.6317C818.805 71.6933 818.797 71.7703 818.797 71.8627C818.797 72.2939 819.072 72.5095 819.621 72.5095H820.833L820.055 76.8751H818.134C815.13 76.8751 813.628 75.5893 813.628 73.0176C813.628 72.5557 813.674 72.0629 813.766 71.5393L814.36 68.1207H812.759L813.514 63.8475H815.115L815.664 60.7061H820.741L820.192 63.8475H822.297L821.542 68.1207H819.438L818.82 71.6317Z" fill="white"/>
<path d="M822.446 70.3613C822.69 68.9908 823.132 67.8051 823.773 66.8041C824.413 65.7878 825.183 65.0178 826.083 64.4943C826.982 63.9553 827.935 63.6858 828.942 63.6858C829.78 63.6858 830.474 63.8629 831.023 64.2171C831.572 64.5559 831.953 65.0255 832.166 65.6261L832.487 63.8475H837.541L835.254 76.8751H830.2L830.52 75.0965C830.093 75.6971 829.544 76.1745 828.873 76.5286C828.202 76.8674 827.447 77.0368 826.609 77.0368C825.313 77.0368 824.268 76.5979 823.475 75.7202C822.683 74.8424 822.286 73.6259 822.286 72.0706C822.286 71.4854 822.34 70.9157 822.446 70.3613ZM831.343 70.3613C831.374 70.2227 831.389 70.0379 831.389 69.8069C831.389 69.2834 831.252 68.883 830.977 68.6058C830.703 68.3132 830.329 68.1669 829.856 68.1669C829.308 68.1669 828.82 68.3594 828.393 68.7444C827.981 69.1294 827.714 69.6683 827.592 70.3613C827.562 70.4999 827.546 70.6847 827.546 70.9157C827.546 71.4392 827.684 71.8473 827.958 72.1399C828.233 72.4171 828.606 72.5557 829.079 72.5557C829.628 72.5557 830.108 72.3632 830.52 71.9782C830.947 71.5932 831.221 71.0543 831.343 70.3613Z" fill="white"/>
<path d="M840.027 77.0599C839.234 77.0599 838.609 76.8674 838.151 76.4824C837.709 76.0975 837.488 75.597 837.488 74.981C837.488 74.4421 837.633 73.9416 837.923 73.4796C838.228 73.0177 838.639 72.6558 839.158 72.394C839.691 72.1168 840.278 71.9782 840.919 71.9782C841.696 71.9782 842.306 72.1784 842.749 72.5788C843.191 72.9638 843.412 73.4642 843.412 74.0802C843.412 74.6192 843.267 75.1196 842.977 75.5816C842.688 76.0282 842.283 76.3901 841.765 76.6672C841.247 76.929 840.667 77.0599 840.027 77.0599Z" fill="white"/>
<path d="M845.295 70.3613C845.539 69.0062 846.027 67.8282 846.759 66.8272C847.49 65.8109 848.398 65.0332 849.48 64.4943C850.578 63.9553 851.767 63.6858 853.048 63.6858C854.725 63.6858 856.052 64.1632 857.028 65.1179C858.019 66.0727 858.522 67.397 858.537 69.0909H853.162C853.056 68.4133 852.72 68.0745 852.156 68.0745C851.744 68.0745 851.386 68.267 851.081 68.652C850.791 69.037 850.578 69.6068 850.441 70.3613C850.38 70.7925 850.349 71.0774 850.349 71.216C850.349 71.6933 850.441 72.0552 850.624 72.3016C850.807 72.5326 851.058 72.6481 851.379 72.6481C851.958 72.6481 852.4 72.3093 852.705 71.6317H858.08C857.485 73.3256 856.524 74.65 855.198 75.6047C853.887 76.5594 852.392 77.0368 850.715 77.0368C849.008 77.0368 847.651 76.5825 846.644 75.674C845.653 74.75 845.158 73.4719 845.158 71.8396C845.158 71.3622 845.203 70.8695 845.295 70.3613Z" fill="white"/>
<path d="M864.881 77.0368C863.737 77.0368 862.731 76.8135 861.862 76.367C860.993 75.9204 860.314 75.289 859.826 74.4729C859.339 73.6413 859.095 72.6789 859.095 71.5855C859.095 70.0764 859.445 68.7213 860.147 67.5202C860.863 66.319 861.839 65.3797 863.074 64.7021C864.309 64.0246 865.689 63.6858 867.214 63.6858C868.357 63.6858 869.364 63.9168 870.233 64.3788C871.102 64.8253 871.78 65.4644 872.268 66.2959C872.756 67.1121 873 68.0668 873 69.1602C873 70.6693 872.649 72.0244 871.948 73.2255C871.247 74.4267 870.278 75.366 869.043 76.0436C867.808 76.7057 866.421 77.0368 864.881 77.0368ZM865.659 72.6019C866.314 72.6019 866.833 72.3016 867.214 71.701C867.595 71.1005 867.786 70.4306 867.786 69.6914C867.786 69.1679 867.656 68.7752 867.397 68.5134C867.153 68.2516 866.833 68.1207 866.436 68.1207C865.781 68.1207 865.262 68.421 864.881 69.0216C864.5 69.6222 864.309 70.292 864.309 71.0312C864.309 71.5547 864.431 71.9474 864.675 72.2092C864.919 72.471 865.247 72.6019 865.659 72.6019Z" fill="white"/>
<path d="M462.22 9.00467C459.914 6.91584 457.167 5.25966 454.14 4.13273C451.113 3.00581 447.866 2.43069 444.588 2.44093C430.855 2.44093 419.662 12.4783 419.662 24.7938C419.662 28.741 420.819 32.5755 422.982 35.9589L419.461 47.5526L432.666 44.4399C436.313 46.2218 440.413 47.1691 444.588 47.1691C458.321 47.1691 469.514 37.1318 469.514 24.8163C469.514 18.839 466.923 13.2226 462.22 9.00467ZM444.588 43.3797C440.866 43.3797 437.219 42.4775 434.024 40.7858L433.27 40.3798L425.422 42.2294L427.51 35.3724L427.007 34.6732C424.938 31.7116 423.84 28.2882 423.837 24.7938C423.837 14.5534 433.144 6.20775 444.563 6.20775C450.097 6.20775 455.303 8.14755 459.202 11.6663C461.132 13.3894 462.662 15.4391 463.702 17.6964C464.743 19.9537 465.274 22.3738 465.263 24.8163C465.314 35.0566 456.007 43.3797 444.588 43.3797ZM455.957 29.4854C455.328 29.2147 452.26 27.8613 451.706 27.6583C451.128 27.4779 450.725 27.3877 450.298 27.929C449.87 28.4929 448.688 29.756 448.336 30.1169C447.984 30.5004 447.606 30.5455 446.978 30.2523C446.349 29.9816 444.337 29.3726 441.972 27.4779C440.111 25.9892 438.879 24.1622 438.501 23.5983C438.149 23.0344 438.451 22.7412 438.778 22.4479C439.055 22.1998 439.407 21.7938 439.709 21.478C440.01 21.1623 440.136 20.9141 440.337 20.5533C440.539 20.1698 440.438 19.854 440.287 19.5834C440.136 19.3127 438.879 16.5609 438.376 15.4331C437.872 14.3504 437.344 14.4857 436.967 14.4632H435.76C435.332 14.4632 434.678 14.5985 434.1 15.1624C433.546 15.7263 431.937 17.0797 431.937 19.8315C431.937 22.5833 434.175 25.2449 434.477 25.6058C434.779 25.9892 438.879 31.6282 445.116 34.0416C446.6 34.6281 447.757 34.9664 448.663 35.2145C450.147 35.6431 451.505 35.5754 452.587 35.4401C453.794 35.2822 456.284 34.0867 456.787 32.7785C457.315 31.4703 457.315 30.365 457.139 30.1169C456.963 29.8688 456.586 29.756 455.957 29.4854Z" fill="white"/>
<path d="M316.718 67.5053C317.314 64.4792 318.546 62.0712 320.414 60.2814C322.283 58.4915 324.778 57.5966 327.899 57.5966C330.486 57.5966 332.396 58.224 333.628 59.4787C334.88 60.715 335.506 62.431 335.506 64.6268C335.506 65.5679 335.404 66.5274 335.198 67.5053C334.603 70.5315 333.371 72.9487 331.502 74.757C329.634 76.5468 327.139 77.4418 324.018 77.4418C321.431 77.4418 319.511 76.8236 318.258 75.5873C317.026 74.3326 316.41 72.5981 316.41 70.3839C316.41 69.6089 316.513 68.6494 316.718 67.5053ZM328.453 67.5053C328.617 66.7673 328.7 66.103 328.7 65.5125C328.7 64.1102 328.053 63.409 326.759 63.409C325.732 63.409 324.983 63.7688 324.511 64.4884C324.059 65.1896 323.7 66.1953 323.433 67.5053C323.268 68.2803 323.186 68.9446 323.186 69.4982C323.186 70.1809 323.33 70.7068 323.617 71.0758C323.925 71.4449 324.439 71.6294 325.157 71.6294C326.164 71.6294 326.893 71.2696 327.344 70.5499C327.817 69.8303 328.186 68.8154 328.453 67.5053Z" fill="white"/>
<path d="M340.931 66.4259C339.678 65.7063 339.052 64.6545 339.052 63.2706C339.052 62.9385 339.083 62.5971 339.144 62.2465C339.329 61.3239 339.801 60.4382 340.561 59.5894C341.341 58.7222 342.399 58.0118 343.734 57.4582C345.068 56.9046 346.619 56.6279 348.384 56.6279C349.986 56.6279 351.321 56.8585 352.388 57.3198C353.456 57.7627 354.237 58.3531 354.729 59.0912C355.243 59.8108 355.499 60.5858 355.499 61.4162C355.499 61.693 355.469 61.9697 355.407 62.2465C355.037 64.1286 353.887 65.5218 351.957 66.4259C353.477 67.3116 354.237 68.5571 354.237 70.1624C354.237 70.5684 354.195 70.9559 354.113 71.3249C353.846 72.7273 353.22 73.9174 352.234 74.8954C351.249 75.8733 350.048 76.6114 348.631 77.1096C347.235 77.6078 345.756 77.8569 344.196 77.8569C342.04 77.8569 340.253 77.3956 338.836 76.473C337.44 75.5504 336.742 74.2496 336.742 72.5704C336.742 72.1276 336.783 71.7124 336.865 71.3249C337.296 69.1476 338.651 67.5146 340.931 66.4259ZM347.399 61.6099C346.988 61.6099 346.619 61.7668 346.29 62.0804C345.961 62.3757 345.746 62.7816 345.643 63.2983C345.602 63.5197 345.582 63.6765 345.582 63.7688C345.582 64.1563 345.684 64.4515 345.89 64.6545C346.115 64.839 346.403 64.9313 346.752 64.9313C347.163 64.9313 347.522 64.7929 347.83 64.5161C348.159 64.2393 348.374 63.8334 348.477 63.2983C348.518 63.0769 348.538 62.92 348.538 62.8278C348.538 62.4403 348.436 62.145 348.23 61.9421C348.025 61.7206 347.748 61.6099 347.399 61.6099ZM345.92 69.0553C345.222 69.0553 344.647 69.2767 344.196 69.7196C343.744 70.1624 343.518 70.7068 343.518 71.3526C343.518 71.7954 343.651 72.1553 343.918 72.432C344.206 72.7088 344.627 72.8472 345.181 72.8472C345.9 72.8472 346.475 72.6258 346.906 72.1829C347.358 71.7401 347.584 71.1958 347.584 70.5499C347.584 70.0886 347.44 69.7288 347.152 69.4705C346.865 69.1937 346.454 69.0553 345.92 69.0553Z" fill="white"/>
<path d="M375.311 62.717H366.379L365.917 65.042C366.902 64.3593 368.176 64.0179 369.736 64.0179C371.502 64.0179 372.826 64.4792 373.709 65.4018C374.592 66.306 375.034 67.4961 375.034 68.9723C375.034 69.4336 374.982 69.9595 374.88 70.5499C374.428 72.7642 373.391 74.4894 371.769 75.7257C370.147 76.9436 368.124 77.5525 365.701 77.5525C363.381 77.5525 361.584 77.0912 360.311 76.1686C359.038 75.2275 358.402 73.982 358.402 72.432C358.402 72.0445 358.453 71.5925 358.556 71.0758H365.208L365.178 71.3249C365.178 71.5832 365.27 71.8139 365.455 72.0169C365.64 72.2014 365.958 72.2937 366.41 72.2937C366.923 72.2937 367.334 72.1276 367.642 71.7954C367.95 71.4633 368.165 71.0112 368.288 70.4392C368.33 70.2178 368.35 70.061 368.35 69.9687C368.35 69.5812 368.227 69.2952 367.98 69.1107C367.755 68.9077 367.426 68.8062 366.995 68.8062C366.564 68.8062 366.215 68.8985 365.948 69.083C365.701 69.2675 365.547 69.4797 365.486 69.7196H358.833L361.266 57.3198H376.358L375.311 62.717Z" fill="white"/>
<path d="M377.749 63.7135L378.889 57.9564H389.33L385.48 77.5525H378.303L381.014 63.7135H377.749Z" fill="white"/>
<path d="M404.373 65.5679L403.357 70.633H389.004L390.02 65.5679H404.373Z" fill="white"/>
<path d="M423.259 62.2188L412.726 77.5525H405.703L416.144 62.9661H408.26L409.307 57.7073H424.153L423.259 62.2188Z" fill="white"/>
<path d="M424.668 63.6581C425.16 61.4623 426.197 59.7832 427.778 58.6207C429.38 57.4582 431.433 56.877 433.938 56.877C436.074 56.877 437.706 57.3014 438.836 58.1502C439.986 58.999 440.561 60.1153 440.561 61.4992C440.561 61.8129 440.53 62.1543 440.468 62.5233C440.222 63.8149 439.688 64.8298 438.867 65.5679C438.045 66.306 437.183 66.7949 436.279 67.0348V67.1455C438.189 67.8283 439.144 69.0276 439.144 70.7437C439.144 71.0574 439.113 71.3987 439.051 71.7678C438.702 73.5761 437.737 75.0246 436.156 76.1132C434.575 77.2019 432.614 77.7462 430.273 77.7462C427.932 77.7462 426.115 77.3126 424.822 76.4454C423.528 75.5597 422.881 74.1758 422.881 72.2937C422.881 71.8508 422.932 71.3065 423.035 70.6606H429.688C429.606 70.9559 429.565 71.2419 429.565 71.5187C429.565 72.2937 430.027 72.6811 430.951 72.6811C431.382 72.6811 431.752 72.5243 432.06 72.2106C432.388 71.8785 432.552 71.4633 432.552 70.9651C432.552 70.5592 432.378 70.2547 432.029 70.0517C431.68 69.8488 431.115 69.7473 430.335 69.7473H429.195L430.181 64.7929H431.29C432.665 64.8667 433.456 64.3685 433.661 63.2983C433.682 63.206 433.692 63.0676 433.692 62.8831C433.692 62.2557 433.394 61.9421 432.799 61.9421C432.347 61.9421 432.008 62.0989 431.782 62.4126C431.577 62.7263 431.423 63.1414 431.32 63.6581H424.668Z" fill="white"/>
<path d="M443.617 63.6581C444.11 61.4623 445.147 59.7832 446.728 58.6207C448.33 57.4582 450.383 56.877 452.888 56.877C455.023 56.877 456.656 57.3014 457.785 58.1502C458.935 58.999 459.51 60.1153 459.51 61.4992C459.51 61.8129 459.479 62.1543 459.418 62.5233C459.171 63.8149 458.637 64.8298 457.816 65.5679C456.995 66.306 456.132 66.7949 455.229 67.0348V67.1455C457.138 67.8283 458.093 69.0276 458.093 70.7437C458.093 71.0574 458.062 71.3987 458.001 71.7678C457.652 73.5761 456.687 75.0246 455.106 76.1132C453.525 77.2019 451.564 77.7462 449.223 77.7462C446.882 77.7462 445.065 77.3126 443.771 76.4454C442.477 75.5597 441.831 74.1758 441.831 72.2937C441.831 71.8508 441.882 71.3065 441.985 70.6606H448.638C448.555 70.9559 448.514 71.2419 448.514 71.5187C448.514 72.2937 448.976 72.6811 449.9 72.6811C450.332 72.6811 450.701 72.5243 451.009 72.2106C451.338 71.8785 451.502 71.4633 451.502 70.9651C451.502 70.5592 451.327 70.2547 450.978 70.0517C450.629 69.8488 450.065 69.7473 449.284 69.7473H448.145L449.13 64.7929H450.239C451.615 64.8667 452.405 64.3685 452.611 63.2983C452.631 63.206 452.642 63.0676 452.642 62.8831C452.642 62.2557 452.344 61.9421 451.748 61.9421C451.297 61.9421 450.958 62.0989 450.732 62.4126C450.527 62.7263 450.373 63.1414 450.27 63.6581H443.617Z" fill="white"/>
<path d="M467.495 71.2419C467.515 71.7954 467.628 72.2014 467.833 72.4597C468.059 72.718 468.419 72.8472 468.911 72.8472C469.671 72.8472 470.236 72.5058 470.605 71.8231C470.975 71.1219 471.314 70.0056 471.622 68.4741C471.15 68.9907 470.534 69.3967 469.774 69.6919C469.035 69.9871 468.224 70.1348 467.341 70.1348C465.657 70.1348 464.322 69.738 463.337 68.9446C462.371 68.1327 461.889 66.9518 461.889 65.4018C461.889 64.8852 461.951 64.3408 462.074 63.7688C462.484 61.6837 463.521 60.0323 465.185 58.8144C466.848 57.5781 468.901 56.96 471.345 56.96C473.891 56.96 475.708 57.5043 476.796 58.593C477.885 59.6632 478.429 61.1947 478.429 63.1876C478.429 64.2209 478.295 65.4387 478.028 66.8411C477.31 70.4577 476.17 73.1793 474.61 75.0061C473.049 76.8329 470.831 77.7462 467.957 77.7462C466.417 77.7462 465.123 77.4879 464.076 76.9712C463.049 76.4546 462.289 75.7626 461.797 74.8954C461.304 74.0281 461.057 73.0779 461.057 72.0445C461.057 71.8785 461.078 71.6109 461.119 71.2419H467.495ZM469.959 65.4295C470.575 65.4295 471.088 65.2542 471.499 64.9036C471.909 64.553 472.115 64.064 472.115 63.4367C472.115 63.0307 471.981 62.7263 471.714 62.5233C471.447 62.3203 471.067 62.2188 470.575 62.2188C470 62.2188 469.527 62.3572 469.158 62.634C468.788 62.8923 468.552 63.2983 468.449 63.8518C468.429 63.9441 468.419 64.064 468.419 64.2117C468.419 64.5992 468.552 64.9036 468.819 65.125C469.107 65.328 469.486 65.4295 469.959 65.4295Z" fill="white"/>
<path d="M494.158 65.5679L493.142 70.633H478.789L479.805 65.5679H494.158Z" fill="white"/>
<path d="M513.044 62.2188L502.51 77.5525H495.488L505.929 62.9661H498.044L499.091 57.7073H513.937L513.044 62.2188Z" fill="white"/>
<path d="M531.238 62.717H522.306L521.844 65.042C522.83 64.3593 524.103 64.0179 525.663 64.0179C527.429 64.0179 528.754 64.4792 529.637 65.4018C530.52 66.306 530.961 67.4961 530.961 68.9723C530.961 69.4336 530.91 69.9595 530.807 70.5499C530.355 72.7642 529.318 74.4894 527.696 75.7257C526.074 76.9436 524.052 77.5525 521.629 77.5525C519.308 77.5525 517.512 77.0912 516.239 76.1686C514.965 75.2275 514.329 73.982 514.329 72.432C514.329 72.0445 514.38 71.5925 514.483 71.0758H521.136L521.105 71.3249C521.105 71.5832 521.197 71.8139 521.382 72.0169C521.567 72.2014 521.885 72.2937 522.337 72.2937C522.85 72.2937 523.261 72.1276 523.569 71.7954C523.877 71.4633 524.093 71.0112 524.216 70.4392C524.257 70.2178 524.277 70.061 524.277 69.9687C524.277 69.5812 524.154 69.2952 523.908 69.1107C523.682 68.9077 523.353 68.8062 522.922 68.8062C522.491 68.8062 522.142 68.8985 521.875 69.083C521.629 69.2675 521.475 69.4797 521.413 69.7196H514.76L517.193 57.3198H532.286L531.238 62.717Z" fill="white"/>
<path d="M537.434 66.4259C536.182 65.7063 535.555 64.6545 535.555 63.2706C535.555 62.9385 535.586 62.5971 535.648 62.2465C535.832 61.3239 536.305 60.4382 537.064 59.5894C537.845 58.7222 538.902 58.0118 540.237 57.4582C541.572 56.9046 543.122 56.6279 544.888 56.6279C546.489 56.6279 547.824 56.8585 548.892 57.3198C549.96 57.7627 550.74 58.3531 551.233 59.0912C551.746 59.8108 552.003 60.5858 552.003 61.4162C552.003 61.693 551.972 61.9697 551.91 62.2465C551.541 64.1286 550.391 65.5218 548.461 66.4259C549.98 67.3116 550.74 68.5571 550.74 70.1624C550.74 70.5684 550.699 70.9559 550.617 71.3249C550.35 72.7273 549.723 73.9174 548.738 74.8954C547.752 75.8733 546.551 76.6114 545.134 77.1096C543.738 77.6078 542.259 77.8569 540.699 77.8569C538.543 77.8569 536.756 77.3956 535.34 76.473C533.943 75.5504 533.245 74.2496 533.245 72.5704C533.245 72.1276 533.286 71.7124 533.368 71.3249C533.8 69.1476 535.155 67.5146 537.434 66.4259ZM543.902 61.6099C543.492 61.6099 543.122 61.7668 542.793 62.0804C542.465 62.3757 542.249 62.7816 542.147 63.2983C542.105 63.5197 542.085 63.6765 542.085 63.7688C542.085 64.1563 542.188 64.4515 542.393 64.6545C542.619 64.839 542.906 64.9313 543.255 64.9313C543.666 64.9313 544.025 64.7929 544.333 64.5161C544.662 64.2393 544.878 63.8334 544.98 63.2983C545.021 63.0769 545.042 62.92 545.042 62.8278C545.042 62.4403 544.939 62.145 544.734 61.9421C544.528 61.7206 544.251 61.6099 543.902 61.6099ZM542.424 69.0553C541.726 69.0553 541.151 69.2767 540.699 69.7196C540.247 70.1624 540.021 70.7068 540.021 71.3526C540.021 71.7954 540.155 72.1553 540.422 72.432C540.709 72.7088 541.13 72.8472 541.685 72.8472C542.403 72.8472 542.978 72.6258 543.409 72.1829C543.861 71.7401 544.087 71.1958 544.087 70.5499C544.087 70.0886 543.943 69.7288 543.656 69.4705C543.368 69.1937 542.958 69.0553 542.424 69.0553Z" fill="white"/>
<path d="M564.915 63.4644C564.915 62.9108 564.812 62.5048 564.607 62.2465C564.422 61.9882 564.083 61.859 563.591 61.859C562.81 61.859 562.215 62.2188 561.804 62.9385C561.414 63.6396 561.075 64.7375 560.788 66.2322C561.281 65.7155 561.897 65.3096 562.636 65.0143C563.396 64.7191 564.217 64.5715 565.1 64.5715C566.784 64.5715 568.108 64.9774 569.073 65.7893C570.038 66.5827 570.521 67.7452 570.521 69.2767C570.521 69.7934 570.459 70.347 570.336 70.9374C569.925 73.0225 568.888 74.6832 567.225 75.9195C565.562 77.1373 563.509 77.7462 561.065 77.7462C558.539 77.7462 556.732 77.1927 555.644 76.0855C554.576 74.9784 554.043 73.41 554.043 71.3803C554.043 70.2547 554.186 68.9907 554.474 67.5884C554.967 65.0789 555.644 63.0492 556.507 61.4992C557.389 59.9492 558.519 58.8052 559.895 58.0671C561.291 57.329 562.985 56.96 564.977 56.96C567.174 56.96 568.786 57.4767 569.812 58.51C570.839 59.5248 571.352 60.8257 571.352 62.4126C571.352 62.8739 571.332 63.2245 571.291 63.4644H564.915ZM562.482 69.2767C561.866 69.2767 561.352 69.452 560.942 69.8026C560.531 70.1532 560.326 70.6422 560.326 71.2696C560.326 71.6755 560.459 71.98 560.726 72.1829C560.993 72.3859 561.373 72.4874 561.866 72.4874C562.441 72.4874 562.913 72.3582 563.283 72.0999C563.652 71.8231 563.888 71.408 563.991 70.8544C564.012 70.7806 564.022 70.6699 564.022 70.5223C564.022 70.1163 563.878 69.8119 563.591 69.6089C563.324 69.3875 562.954 69.2767 562.482 69.2767Z" fill="white"/>
</svg>
