<svg width="58" height="12" viewBox="0 0 58 12" fill="none" xmlns="http://www.w3.org/2000/svg">
<path d="M8.45169 3.72822C8.45169 4.37065 8.30424 4.96043 8.00936 5.49755C7.71447 6.02413 7.2616 6.45066 6.65077 6.77715C6.03993 7.10363 5.28165 7.26687 4.37592 7.26687H2.70138V11.2479H0V0.157975H4.37592C5.26058 0.157975 6.00833 0.310685 6.61917 0.616104C7.23001 0.921523 7.68814 1.34279 7.99356 1.87991C8.29898 2.41702 8.45169 3.03313 8.45169 3.72822ZM4.17055 5.1184C4.68661 5.1184 5.07101 4.99729 5.32377 4.75506C5.57653 4.51283 5.70291 4.17055 5.70291 3.72822C5.70291 3.28589 5.57653 2.94361 5.32377 2.70138C5.07101 2.45915 4.68661 2.33804 4.17055 2.33804H2.70138V5.1184H4.17055Z" fill="white"/>
<path d="M15.5136 11.2479L13.2071 7.0615H12.5594V11.2479H9.85804V0.157975H14.3919C15.2661 0.157975 16.0085 0.310685 16.6194 0.616104C17.2408 0.921523 17.7042 1.34279 18.0096 1.87991C18.315 2.40649 18.4677 2.99627 18.4677 3.64923C18.4677 4.38645 18.2571 5.04468 17.8358 5.62393C17.4251 6.20317 16.8142 6.61391 16.0033 6.85613L18.5625 11.2479H15.5136ZM12.5594 5.15H14.234C14.7289 5.15 15.0976 5.02889 15.3398 4.78666C15.5925 4.54443 15.7189 4.20215 15.7189 3.75982C15.7189 3.33855 15.5925 3.0068 15.3398 2.76457C15.0976 2.52234 14.7289 2.40123 14.234 2.40123H12.5594V5.15Z" fill="white"/>
<path d="M25.4083 11.3584C24.3656 11.3584 23.4072 11.1162 22.5331 10.6317C21.6695 10.1473 20.9797 9.47326 20.4636 8.60966C19.9581 7.73553 19.7053 6.75608 19.7053 5.67132C19.7053 4.58655 19.9581 3.61237 20.4636 2.74877C20.9797 1.88517 21.6695 1.21115 22.5331 0.726687C23.4072 0.242229 24.3656 0 25.4083 0C26.4509 0 27.404 0.242229 28.2676 0.726687C29.1417 1.21115 29.8263 1.88517 30.3213 2.74877C30.8268 3.61237 31.0796 4.58655 31.0796 5.67132C31.0796 6.75608 30.8268 7.73553 30.3213 8.60966C29.8158 9.47326 29.1312 10.1473 28.2676 10.6317C27.404 11.1162 26.4509 11.3584 25.4083 11.3584ZM25.4083 8.89402C26.2929 8.89402 26.9985 8.59913 27.5251 8.00936C28.0622 7.41958 28.3308 6.64023 28.3308 5.67132C28.3308 4.69187 28.0622 3.91253 27.5251 3.33328C26.9985 2.74351 26.2929 2.44862 25.4083 2.44862C24.5131 2.44862 23.7969 2.73824 23.2598 3.31748C22.7332 3.89673 22.4699 4.68134 22.4699 5.67132C22.4699 6.65077 22.7332 7.43538 23.2598 8.02515C23.7969 8.6044 24.5131 8.89402 25.4083 8.89402Z" fill="white"/>
<path d="M45.1415 0.157975V11.2479H42.4401V4.59709L39.9599 11.2479H37.7798L35.2838 4.58129V11.2479H32.5824V0.157975H35.7735L38.8857 7.83558L41.9662 0.157975H45.1415Z" fill="white"/>
<path d="M52.3289 11.3584C51.2862 11.3584 50.3279 11.1162 49.4537 10.6317C48.5901 10.1473 47.9003 9.47326 47.3842 8.60966C46.8787 7.73553 46.626 6.75608 46.626 5.67132C46.626 4.58655 46.8787 3.61237 47.3842 2.74877C47.9003 1.88517 48.5901 1.21115 49.4537 0.726687C50.3279 0.242229 51.2862 0 52.3289 0C53.3715 0 54.3246 0.242229 55.1882 0.726687C56.0624 1.21115 56.7469 1.88517 57.2419 2.74877C57.7474 3.61237 58.0002 4.58655 58.0002 5.67132C58.0002 6.75608 57.7474 7.73553 57.2419 8.60966C56.7364 9.47326 56.0518 10.1473 55.1882 10.6317C54.3246 11.1162 53.3715 11.3584 52.3289 11.3584ZM52.3289 8.89402C53.2135 8.89402 53.9192 8.59913 54.4457 8.00936C54.9829 7.41958 55.2514 6.64023 55.2514 5.67132C55.2514 4.69187 54.9829 3.91253 54.4457 3.33328C53.9192 2.74351 53.2135 2.44862 52.3289 2.44862C51.4337 2.44862 50.7175 2.73824 50.1804 3.31748C49.6538 3.89673 49.3905 4.68134 49.3905 5.67132C49.3905 6.65077 49.6538 7.43538 50.1804 8.02515C50.7175 8.6044 51.4337 8.89402 52.3289 8.89402Z" fill="white"/>
</svg>
