<svg width="240" height="42" viewBox="0 0 240 42" fill="none" xmlns="http://www.w3.org/2000/svg">
<path d="M12.4219 32.252H24.3962V41.6101H0V2.17242H12.4219V32.252Z" fill="#26413C"/>
<path d="M60.7029 15.7082C60.7029 18.1963 60.1247 20.4615 58.9683 22.504C57.8119 24.5093 56.096 26.1061 53.8205 27.2944C51.5823 28.4828 48.8592 29.0769 45.6511 29.0769H40.7271V41.6101H28.3052V2.17242H45.6511C50.5005 2.17242 54.2122 3.39788 56.7861 5.84881C59.3973 8.29974 60.7029 11.5862 60.7029 15.7082ZM44.2523 19.3289C46.8262 19.3289 48.1131 18.122 48.1131 15.7082C48.1131 13.2944 46.8262 12.0875 44.2523 12.0875H40.7271V19.3289H44.2523Z" fill="#26413C"/>
<path d="M88.9272 15.6525C88.4423 14.8727 87.7522 14.2785 86.8569 13.87C85.9616 13.4244 84.8799 13.2016 83.6115 13.2016C81.2242 13.2016 79.3776 13.9814 78.072 15.5411C76.7664 17.0637 76.1136 19.1618 76.1136 21.8355C76.1136 24.9178 76.841 27.2202 78.2959 28.7427C79.7507 30.2653 81.9889 31.0265 85.0104 31.0265C87.8828 31.0265 90.1955 29.8753 91.9488 27.5729H82.0448V18.8276H102.244V31.1936C100.529 34.1273 98.1598 36.6525 95.1382 38.7692C92.1167 40.8488 88.2931 41.8886 83.6675 41.8886C79.5642 41.8886 75.9831 41.0531 72.9242 39.382C69.9027 37.6737 67.5712 35.2971 65.9299 32.252C64.3258 29.2069 63.5238 25.7347 63.5238 21.8355C63.5238 17.9363 64.3258 14.4642 65.9299 11.4191C67.5712 8.37401 69.9027 6.01592 72.9242 4.34483C75.9458 2.63661 79.4896 1.78249 83.5556 1.78249C88.7407 1.78249 92.956 3.02653 96.2013 5.51459C99.484 8.00265 101.424 11.382 102.021 15.6525H88.9272Z" fill="#26413C"/>
<path d="M115.946 13.6472C116.058 9.22812 117.345 5.84881 119.807 3.50928C122.307 1.16976 125.832 0 130.383 0C133.33 0 135.848 0.501326 137.937 1.50398C140.025 2.50663 141.592 3.86207 142.637 5.57029C143.719 7.27852 144.259 9.20955 144.259 11.3634C144.259 13.9629 143.644 16.0053 142.413 17.4907C141.182 18.939 139.802 19.9231 138.272 20.443V20.6658C142.749 22.3369 144.987 25.4377 144.987 29.9682C144.987 32.3448 144.427 34.443 143.308 36.2626C142.189 38.0822 140.585 39.4934 138.496 40.496C136.444 41.4987 134.001 42 131.166 42C126.317 42 122.512 40.8488 119.751 38.5464C116.991 36.244 115.573 32.6419 115.499 27.7401H127.585C127.51 29.0769 127.697 30.0981 128.144 30.8037C128.629 31.4721 129.45 31.8064 130.606 31.8064C131.278 31.8064 131.837 31.565 132.285 31.0822C132.733 30.5623 132.957 29.8939 132.957 29.0769C132.957 28.0371 132.602 27.2573 131.893 26.7374C131.222 26.1804 130.066 25.9019 128.424 25.9019H126.354V15.931H128.368C130.905 16.0796 132.173 15.0769 132.173 12.9231C132.173 11.9947 131.968 11.3077 131.558 10.8621C131.185 10.4164 130.7 10.1936 130.103 10.1936C128.723 10.1936 128.033 11.3448 128.033 13.6472H115.946Z" fill="#26413C"/>
<path d="M184.108 41.6101L172.581 24.5093V41.6101H160.159V2.17242H172.581V18.7719L183.94 2.17242H197.985L184.332 21.0557L198.88 41.6101H184.108Z" fill="#26413C"/>
<path d="M226.683 15.6525C226.198 14.8727 225.508 14.2785 224.612 13.87C223.717 13.4244 222.635 13.2016 221.367 13.2016C218.98 13.2016 217.133 13.9814 215.828 15.5411C214.522 17.0637 213.869 19.1618 213.869 21.8355C213.869 24.9178 214.597 27.2202 216.051 28.7427C217.506 30.2653 219.744 31.0265 222.766 31.0265C225.638 31.0265 227.951 29.8753 229.704 27.5729H219.8V18.8276H240V31.1936C238.284 34.1273 235.915 36.6525 232.894 38.7692C229.872 40.8488 226.049 41.8886 221.423 41.8886C217.32 41.8886 213.739 41.0531 210.68 39.382C207.658 37.6737 205.327 35.2971 203.685 32.252C202.081 29.2069 201.279 25.7347 201.279 21.8355C201.279 17.9363 202.081 14.4642 203.685 11.4191C205.327 8.37401 207.658 6.01592 210.68 4.34483C213.701 2.63661 217.245 1.78249 221.311 1.78249C226.496 1.78249 230.712 3.02653 233.957 5.51459C237.24 8.00265 239.179 11.382 239.776 15.6525H226.683Z" fill="#26413C"/>
</svg>
