<svg width="55" height="20" viewBox="0 0 55 20" fill="none" xmlns="http://www.w3.org/2000/svg">
<g filter="url(#filter0_d_409_418)">
<path d="M13.7018 0.167415V11.853H11.358V6.88077H6.35228V11.853H4.00847V0.167415H6.35228V4.97224H11.358V0.167415H13.7018Z" fill="#3E505B"/>
<path d="M21.433 11.9702C20.3392 11.9702 19.3347 11.7135 18.4195 11.2001C17.5043 10.6867 16.7789 9.97795 16.2431 9.07391C15.7074 8.15871 15.4395 7.12631 15.4395 5.97673C15.4395 4.8383 15.7074 3.81707 16.2431 2.91303C16.7789 1.99782 17.5043 1.28352 18.4195 0.77011C19.3347 0.256703 20.3392 0 21.433 0C22.5379 0 23.5424 0.256703 24.4465 0.77011C25.3617 1.28352 26.0816 1.99782 26.6061 2.91303C27.1419 3.81707 27.4097 4.8383 27.4097 5.97673C27.4097 7.12631 27.1419 8.15871 26.6061 9.07391C26.0816 9.97795 25.3617 10.6867 24.4465 11.2001C23.5313 11.7135 22.5268 11.9702 21.433 11.9702ZM21.433 9.87751C22.1362 9.87751 22.7556 9.72125 23.2913 9.40874C23.827 9.08507 24.2456 8.62747 24.5469 8.03594C24.8483 7.4444 24.999 6.758 24.999 5.97673C24.999 5.19546 24.8483 4.51463 24.5469 3.93426C24.2456 3.34273 23.827 2.8907 23.2913 2.5782C22.7556 2.26569 22.1362 2.10943 21.433 2.10943C20.7299 2.10943 20.1048 2.26569 19.558 2.5782C19.0222 2.8907 18.6037 3.34273 18.3023 3.93426C18.001 4.51463 17.8503 5.19546 17.8503 5.97673C17.8503 6.758 18.001 7.4444 18.3023 8.03594C18.6037 8.62747 19.0222 9.08507 19.558 9.40874C20.1048 9.72125 20.7299 9.87751 21.433 9.87751Z" fill="#3E505B"/>
<path d="M41.8938 0.167415V11.853H39.55V4.25235L36.4193 11.853H34.6447L31.4973 4.25235V11.853H29.1535V0.167415H31.8154L35.532 8.85627L39.2486 0.167415H41.8938Z" fill="#3E505B"/>
<path d="M46.5549 2.05921V4.98898H50.4891V6.84729H46.5549V9.94447H50.9914V11.853H44.211V0.150673H50.9914V2.05921H46.5549Z" fill="#3E505B"/>
</g>
<defs>
<filter id="filter0_d_409_418" x="0" y="0" width="55" height="19.9872" filterUnits="userSpaceOnUse" color-interpolation-filters="sRGB">
<feFlood flood-opacity="0" result="BackgroundImageFix"/>
<feColorMatrix in="SourceAlpha" type="matrix" values="0 0 0 0 0 0 0 0 0 0 0 0 0 0 0 0 0 0 127 0" result="hardAlpha"/>
<feOffset dy="4"/>
<feGaussianBlur stdDeviation="2"/>
<feComposite in2="hardAlpha" operator="out"/>
<feColorMatrix type="matrix" values="0 0 0 0 0 0 0 0 0 0 0 0 0 0 0 0 0 0 0.25 0"/>
<feBlend mode="normal" in2="BackgroundImageFix" result="effect1_dropShadow_409_418"/>
<feBlend mode="normal" in="SourceGraphic" in2="effect1_dropShadow_409_418" result="shape"/>
</filter>
</defs>
</svg>
