<svg width="69" height="20" viewBox="0 0 69 20" fill="none" xmlns="http://www.w3.org/2000/svg">
<g filter="url(#filter0_d_409_419)">
<path d="M12.5379 3.78601C12.5379 4.41143 12.3872 4.99776 12.0856 5.545C11.7953 6.09224 11.3318 6.53339 10.6952 6.86843C10.0698 7.20348 9.27684 7.371 8.31638 7.371H6.35636V11.8606H4.01104V0.167523H8.31638C9.221 0.167523 9.9916 0.323877 10.6282 0.636586C11.2648 0.949295 11.7394 1.37927 12.0521 1.92651C12.376 2.47375 12.5379 3.09359 12.5379 3.78601ZM8.21586 5.47799C8.86362 5.47799 9.34385 5.33281 9.65656 5.04243C9.96927 4.74089 10.1256 4.32209 10.1256 3.78601C10.1256 2.64686 9.48904 2.07728 8.21586 2.07728H6.35636V5.47799H8.21586Z" fill="#3E505B"/>
<path d="M20.2339 11.8606L17.6541 7.30399H16.5484V11.8606H14.2031V0.167523H18.5922C19.4968 0.167523 20.2674 0.329461 20.904 0.653338C21.5406 0.966047 22.0152 1.39602 22.328 1.94326C22.6518 2.47934 22.8138 3.08242 22.8138 3.75251C22.8138 4.52311 22.5904 5.22113 22.1437 5.84654C21.697 6.46079 21.0324 6.88518 20.1502 7.11972L22.9478 11.8606H20.2339ZM16.5484 5.545H18.5084C19.145 5.545 19.6197 5.39423 19.9324 5.09269C20.2451 4.77998 20.4014 4.35001 20.4014 3.80277C20.4014 3.26669 20.2451 2.85347 19.9324 2.5631C19.6197 2.26156 19.145 2.11079 18.5084 2.11079H16.5484V5.545Z" fill="#3E505B"/>
<path d="M30.3628 11.9779C29.2683 11.9779 28.2631 11.721 27.3474 11.2073C26.4316 10.6935 25.7056 9.98436 25.1696 9.07973C24.6335 8.16394 24.3654 7.13089 24.3654 5.98056C24.3654 4.84141 24.6335 3.81952 25.1696 2.9149C25.7056 1.9991 26.4316 1.28434 27.3474 0.770604C28.2631 0.256868 29.2683 0 30.3628 0C31.4684 0 32.4736 0.256868 33.3782 0.770604C34.294 1.28434 35.0143 1.9991 35.5392 2.9149C36.0753 3.81952 36.3433 4.84141 36.3433 5.98056C36.3433 7.13089 36.0753 8.16394 35.5392 9.07973C35.0143 9.98436 34.294 10.6935 33.3782 11.2073C32.4624 11.721 31.4572 11.9779 30.3628 11.9779ZM30.3628 9.88384C31.0664 9.88384 31.6862 9.72749 32.2223 9.41478C32.7583 9.0909 33.1771 8.63301 33.4787 8.04109C33.7802 7.44918 33.931 6.76234 33.931 5.98056C33.931 5.19879 33.7802 4.51753 33.4787 3.93678C33.1771 3.34487 32.7583 2.89256 32.2223 2.57985C31.6862 2.26714 31.0664 2.11079 30.3628 2.11079C29.6592 2.11079 29.0337 2.26714 28.4865 2.57985C27.9504 2.89256 27.5316 3.34487 27.2301 3.93678C26.9285 4.51753 26.7778 5.19879 26.7778 5.98056C26.7778 6.76234 26.9285 7.44918 27.2301 8.04109C27.5316 8.63301 27.9504 9.0909 28.4865 9.41478C29.0337 9.72749 29.6592 9.88384 30.3628 9.88384Z" fill="#3E505B"/>
<path d="M50.8367 0.167523V11.8606H48.4913V4.25508L45.3587 11.8606H43.5829L40.4335 4.25508V11.8606H38.0882V0.167523H40.7518L44.4708 8.86195L48.1898 0.167523H50.8367Z" fill="#3E505B"/>
<path d="M58.5831 11.9779C57.4887 11.9779 56.4835 11.721 55.5677 11.2073C54.6519 10.6935 53.926 9.98436 53.3899 9.07973C52.8539 8.16394 52.5858 7.13089 52.5858 5.98056C52.5858 4.84141 52.8539 3.81952 53.3899 2.9149C53.926 1.9991 54.6519 1.28434 55.5677 0.770604C56.4835 0.256868 57.4887 0 58.5831 0C59.6888 0 60.6939 0.256868 61.5986 0.770604C62.5143 1.28434 63.2347 1.9991 63.7596 2.9149C64.2957 3.81952 64.5637 4.84141 64.5637 5.98056C64.5637 7.13089 64.2957 8.16394 63.7596 9.07973C63.2347 9.98436 62.5143 10.6935 61.5986 11.2073C60.6828 11.721 59.6776 11.9779 58.5831 11.9779ZM58.5831 9.88384C59.2867 9.88384 59.9066 9.72749 60.4427 9.41478C60.9787 9.0909 61.3975 8.63301 61.6991 8.04109C62.0006 7.44918 62.1514 6.76234 62.1514 5.98056C62.1514 5.19879 62.0006 4.51753 61.6991 3.93678C61.3975 3.34487 60.9787 2.89256 60.4427 2.57985C59.9066 2.26714 59.2867 2.11079 58.5831 2.11079C57.8796 2.11079 57.2541 2.26714 56.7069 2.57985C56.1708 2.89256 55.752 3.34487 55.4505 3.93678C55.1489 4.51753 54.9982 5.19879 54.9982 5.98056C54.9982 6.76234 55.1489 7.44918 55.4505 8.04109C55.752 8.63301 56.1708 9.0909 56.7069 9.41478C57.2541 9.72749 57.8796 9.88384 58.5831 9.88384Z" fill="#3E505B"/>
</g>
<defs>
<filter id="filter0_d_409_419" x="0" y="0" width="68.5745" height="20" filterUnits="userSpaceOnUse" color-interpolation-filters="sRGB">
<feFlood flood-opacity="0" result="BackgroundImageFix"/>
<feColorMatrix in="SourceAlpha" type="matrix" values="0 0 0 0 0 0 0 0 0 0 0 0 0 0 0 0 0 0 127 0" result="hardAlpha"/>
<feOffset dy="4"/>
<feGaussianBlur stdDeviation="2"/>
<feComposite in2="hardAlpha" operator="out"/>
<feColorMatrix type="matrix" values="0 0 0 0 0 0 0 0 0 0 0 0 0 0 0 0 0 0 0.25 0"/>
<feBlend mode="normal" in2="BackgroundImageFix" result="effect1_dropShadow_409_419"/>
<feBlend mode="normal" in="SourceGraphic" in2="effect1_dropShadow_409_419" result="shape"/>
</filter>
</defs>
</svg>
