<svg width="67" height="11" viewBox="0 0 67 11" fill="none" xmlns="http://www.w3.org/2000/svg">
<path d="M5.27387 10.4888L3.12308 6.58498H2.51908V10.4888H0V0.147315H4.22794C5.04308 0.147315 5.73546 0.289719 6.30508 0.574528C6.88452 0.859336 7.31664 1.25218 7.60145 1.75305C7.88626 2.2441 8.02866 2.79407 8.02866 3.40297C8.02866 4.09044 7.83224 4.70426 7.4394 5.24441C7.05638 5.78457 6.48677 6.16758 5.73055 6.39347L8.11705 10.4888H5.27387ZM2.51908 4.80247H4.08062C4.54221 4.80247 4.88594 4.68952 5.11183 4.46364C5.34753 4.23776 5.46538 3.91858 5.46538 3.50609C5.46538 3.11325 5.34753 2.80389 5.11183 2.57801C4.88594 2.35213 4.54221 2.23919 4.08062 2.23919H2.51908V4.80247Z" fill="white"/>
<path d="M12.1291 2.16553V4.2574H15.5026V6.20196H12.1291V8.47061H15.9445V10.4888H9.61V0.147315H15.9445V2.16553H12.1291Z" fill="white"/>
<path d="M24.4448 3.41771C24.2582 3.07397 23.9882 2.81371 23.6346 2.63694C23.2909 2.45034 22.8833 2.35704 22.4119 2.35704C21.5967 2.35704 20.9437 2.62712 20.4526 3.16727C19.9616 3.6976 19.716 4.40963 19.716 5.30334C19.716 6.25597 19.9714 7.00237 20.4821 7.54252C21.0026 8.07286 21.7146 8.33802 22.6181 8.33802C23.2369 8.33802 23.7574 8.18089 24.1797 7.86662C24.6118 7.55234 24.9261 7.10058 25.1225 6.51132H21.9258V4.65515H27.4059V6.99746C27.2193 7.626 26.9001 8.21035 26.4483 8.75051C26.0064 9.29066 25.4417 9.72769 24.7542 10.0616C24.0667 10.3955 23.2909 10.5625 22.4266 10.5625C21.4052 10.5625 20.4919 10.3415 19.6866 9.89956C18.8911 9.4478 18.2674 8.82416 17.8157 8.02866C17.3737 7.23316 17.1527 6.32472 17.1527 5.30334C17.1527 4.28195 17.3737 3.37351 17.8157 2.57801C18.2674 1.77269 18.8911 1.14906 19.6866 0.707111C20.4821 0.255345 21.3905 0.0294626 22.4119 0.0294626C23.6493 0.0294626 24.6904 0.329003 25.535 0.928083C26.3894 1.52716 26.9541 2.35704 27.2291 3.41771H24.4448Z" fill="white"/>
<path d="M31.3203 0.147315V10.4888H28.8012V0.147315H31.3203Z" fill="white"/>
<path d="M36.8877 10.5919C36.1314 10.5919 35.4538 10.4692 34.8547 10.2237C34.2556 9.97813 33.7744 9.61475 33.411 9.13352C33.0575 8.6523 32.8709 8.07286 32.8512 7.39521H35.5324C35.5716 7.77823 35.7042 8.07286 35.9301 8.2791C36.156 8.47552 36.4506 8.57373 36.814 8.57373C37.1872 8.57373 37.4818 8.49025 37.6979 8.32329C37.9139 8.14651 38.022 7.9059 38.022 7.60145C38.022 7.3461 37.9336 7.13495 37.7568 6.96799C37.5899 6.80104 37.3787 6.66354 37.1234 6.55551C36.8778 6.44748 36.5243 6.32472 36.0627 6.18723C35.3949 5.98099 34.8498 5.77474 34.4275 5.5685C34.0052 5.36226 33.6418 5.05781 33.3374 4.65515C33.0329 4.25249 32.8807 3.72707 32.8807 3.07888C32.8807 2.11642 33.2293 1.36512 33.9266 0.824963C34.6239 0.274988 35.5324 0 36.652 0C37.7912 0 38.7094 0.274988 39.4067 0.824963C40.104 1.36512 40.4772 2.12133 40.5263 3.09361H37.801C37.7814 2.7597 37.6586 2.49944 37.4327 2.31284C37.2068 2.11642 36.9171 2.01821 36.5636 2.01821C36.2591 2.01821 36.0136 2.10169 35.827 2.26865C35.6404 2.42578 35.5471 2.65658 35.5471 2.96103C35.5471 3.29494 35.7042 3.5552 36.0185 3.7418C36.3328 3.9284 36.8238 4.12973 37.4916 4.34579C38.1595 4.57167 38.6996 4.78773 39.1121 4.99397C39.5344 5.20022 39.8978 5.49976 40.2022 5.8926C40.5067 6.28544 40.6589 6.79122 40.6589 7.40994C40.6589 7.9992 40.5067 8.53444 40.2022 9.01567C39.9076 9.4969 39.4755 9.87992 38.9059 10.1647C38.3362 10.4495 37.6635 10.5919 36.8877 10.5919Z" fill="white"/>
<path d="M49.6486 0.147315V2.16553H46.9085V10.4888H44.3894V2.16553H41.6494V0.147315H49.6486Z" fill="white"/>
<path d="M53.4319 2.16553V4.2574H56.8054V6.20196H53.4319V8.47061H57.2474V10.4888H50.9128V0.147315H57.2474V2.16553H53.4319Z" fill="white"/>
<path d="M64.1567 10.4888L62.0059 6.58498H61.4019V10.4888H58.8828V0.147315H63.1107C63.9259 0.147315 64.6183 0.289719 65.1879 0.574528C65.7673 0.859336 66.1994 1.25218 66.4843 1.75305C66.7691 2.2441 66.9115 2.79407 66.9115 3.40297C66.9115 4.09044 66.715 4.70426 66.3222 5.24441C65.9392 5.78457 65.3696 6.16758 64.6133 6.39347L66.9999 10.4888H64.1567ZM61.4019 4.80247H62.9634C63.425 4.80247 63.7687 4.68952 63.9946 4.46364C64.2303 4.23776 64.3482 3.91858 64.3482 3.50609C64.3482 3.11325 64.2303 2.80389 63.9946 2.57801C63.7687 2.35213 63.425 2.23919 62.9634 2.23919H61.4019V4.80247Z" fill="white"/>
</svg>
