<svg width="211" height="40" viewBox="0 0 211 40" fill="none" xmlns="http://www.w3.org/2000/svg">
<g filter="url(#filter0_d_409_150)">
<path d="M6.55231 0.63764C8.17939 0.63764 9.60126 0.960125 10.8179 1.60509C12.0346 2.25007 12.9727 3.15889 13.6323 4.33156C14.3066 5.48957 14.6438 6.83082 14.6438 8.35529C14.6438 9.86511 14.3066 11.2064 13.6323 12.379C12.9727 13.5517 12.0272 14.4605 10.7959 15.1055C9.57927 15.7505 8.16473 16.0729 6.55231 16.0729H0.769566V0.63764H6.55231ZM6.31045 12.8188C7.73231 12.8188 8.83902 12.4303 9.63058 11.6534C10.4221 10.8765 10.8179 9.77716 10.8179 8.35529C10.8179 6.93343 10.4221 5.82672 9.63058 5.03516C8.83902 4.24361 7.73231 3.84783 6.31045 3.84783H4.52945V12.8188H6.31045Z" fill="white"/>
<path d="M20.5048 0.63764V16.0729H16.7449V0.63764H20.5048Z" fill="white"/>
<path d="M28.8144 16.2269C27.6857 16.2269 26.6743 16.0436 25.7801 15.6772C24.886 15.3107 24.1677 14.7683 23.6253 14.0501C23.0976 13.3318 22.8191 12.467 22.7898 11.4555H26.7916C26.8502 12.0272 27.0481 12.467 27.3852 12.7748C27.7224 13.068 28.1621 13.2146 28.7045 13.2146C29.2615 13.2146 29.7013 13.09 30.0237 12.8408C30.3462 12.5769 30.5075 12.2178 30.5075 11.7634C30.5075 11.3823 30.3755 11.0671 30.1117 10.8179C29.8625 10.5687 29.5473 10.3635 29.1662 10.2023C28.7998 10.041 28.2721 9.85778 27.5831 9.65256C26.5863 9.34474 25.7728 9.03691 25.1425 8.72908C24.5122 8.42126 23.9698 7.96685 23.5154 7.36585C23.061 6.76486 22.8338 5.98063 22.8338 5.01318C22.8338 3.57665 23.3542 2.45528 24.3949 1.64907C25.4357 0.8282 26.7916 0.417765 28.4626 0.417765C30.163 0.417765 31.5336 0.8282 32.5743 1.64907C33.6151 2.45528 34.1721 3.58398 34.2454 5.03516H30.1777C30.1483 4.53678 29.9651 4.14833 29.628 3.86982C29.2908 3.57665 28.8584 3.43007 28.3307 3.43007C27.8763 3.43007 27.5098 3.55466 27.2313 3.80386C26.9528 4.03839 26.8135 4.38286 26.8135 4.83727C26.8135 5.33566 27.0481 5.72411 27.5172 6.00262C27.9862 6.28113 28.7191 6.58163 29.7159 6.90411C30.7127 7.24125 31.5189 7.56374 32.1346 7.87157C32.7649 8.17939 33.3072 8.62647 33.7616 9.21281C34.216 9.79915 34.4433 10.5541 34.4433 11.4775C34.4433 12.357 34.216 13.1559 33.7616 13.8742C33.3219 14.5924 32.6769 15.1641 31.8267 15.5892C30.9765 16.0143 29.9724 16.2269 28.8144 16.2269Z" fill="white"/>
<path d="M45.7061 16.0729L40.517 9.25679V16.0729H36.7571V0.63764H40.517V7.40983L45.6621 0.63764H50.0816L44.101 8.20138L50.3015 16.0729H45.7061Z" fill="white"/>
<path d="M59.3882 16.2269C57.937 16.2269 56.6031 15.8897 55.3865 15.2154C54.1845 14.5411 53.2243 13.603 52.5061 12.401C51.8025 11.1844 51.4507 9.82113 51.4507 8.31132C51.4507 6.8015 51.8025 5.4456 52.5061 4.24361C53.2243 3.04162 54.1845 2.10348 55.3865 1.42919C56.6031 0.754908 57.937 0.417765 59.3882 0.417765C60.8394 0.417765 62.166 0.754908 63.368 1.42919C64.5846 2.10348 65.5374 3.04162 66.2263 4.24361C66.9299 5.4456 67.2817 6.8015 67.2817 8.31132C67.2817 9.82113 66.9299 11.1844 66.2263 12.401C65.5227 13.603 64.5699 14.5411 63.368 15.2154C62.166 15.8897 60.8394 16.2269 59.3882 16.2269ZM59.3882 12.7968C60.6195 12.7968 61.6016 12.3864 62.3345 11.5655C63.0821 10.7446 63.4559 9.65989 63.4559 8.31132C63.4559 6.94809 63.0821 5.86336 62.3345 5.05715C61.6016 4.23628 60.6195 3.82584 59.3882 3.82584C58.1422 3.82584 57.1455 4.22895 56.3979 5.03516C55.665 5.84138 55.2985 6.93343 55.2985 8.31132C55.2985 9.67455 55.665 10.7666 56.3979 11.5875C57.1455 12.3937 58.1422 12.7968 59.3882 12.7968Z" fill="white"/>
<path d="M83.1817 16.0729H79.4218L73.1334 6.55231V16.0729H69.3735V0.63764H73.1334L79.4218 10.2023V0.63764H83.1817V16.0729Z" fill="white"/>
<path d="M89.7971 3.51802V0.0219873H95.8876V16.0729H91.9738V3.51802H89.7971Z" fill="white"/>
<path d="M109.761 3.29814H102.901V6.33243C103.194 6.00995 103.605 5.7461 104.132 5.54088C104.66 5.33566 105.232 5.23305 105.848 5.23305C106.947 5.23305 107.856 5.48224 108.574 5.98063C109.307 6.47902 109.842 7.12399 110.179 7.91554C110.516 8.7071 110.685 9.56461 110.685 10.4881C110.685 12.2031 110.201 13.5664 109.234 14.5778C108.266 15.5746 106.903 16.0729 105.144 16.0729C103.971 16.0729 102.952 15.8751 102.088 15.4793C101.223 15.0688 100.556 14.5045 100.087 13.7862C99.6177 13.068 99.3612 12.2398 99.3172 11.3016H102.989C103.077 11.756 103.29 12.1372 103.627 12.445C103.964 12.7382 104.426 12.8847 105.012 12.8847C105.701 12.8847 106.214 12.6649 106.551 12.2251C106.888 11.7854 107.057 11.199 107.057 10.4661C107.057 9.74784 106.881 9.19815 106.529 8.81703C106.177 8.43591 105.664 8.24536 104.99 8.24536C104.492 8.24536 104.081 8.36995 103.759 8.61914C103.436 8.85368 103.224 9.16883 103.121 9.56461H99.4931V0H109.761V3.29814Z" fill="white"/>
<path d="M112.452 4.06771C112.452 2.88038 112.79 1.96423 113.464 1.31926C114.153 0.674286 115.04 0.351801 116.124 0.351801C117.209 0.351801 118.089 0.674286 118.763 1.31926C119.437 1.96423 119.774 2.88038 119.774 4.06771C119.774 5.25504 119.437 6.17119 118.763 6.81616C118.089 7.46113 117.209 7.78362 116.124 7.78362C115.04 7.78362 114.153 7.46113 113.464 6.81616C112.79 6.17119 112.452 5.25504 112.452 4.06771ZM127.382 0.593665L118.917 16.0729H115.289L123.754 0.593665H127.382ZM116.102 2.55056C115.399 2.55056 115.047 3.05628 115.047 4.06771C115.047 5.06448 115.399 5.56287 116.102 5.56287C116.439 5.56287 116.703 5.43827 116.894 5.18908C117.084 4.93988 117.18 4.56609 117.18 4.06771C117.18 3.05628 116.821 2.55056 116.102 2.55056ZM122.918 12.5989C122.918 11.4116 123.256 10.4954 123.93 9.85045C124.604 9.20548 125.484 8.883 126.568 8.883C127.653 8.883 128.533 9.20548 129.207 9.85045C129.881 10.4954 130.218 11.4116 130.218 12.5989C130.218 13.7862 129.881 14.7024 129.207 15.3474C128.533 15.9923 127.653 16.3148 126.568 16.3148C125.484 16.3148 124.604 15.9923 123.93 15.3474C123.256 14.7024 122.918 13.7862 122.918 12.5989ZM126.546 11.0818C126.209 11.0818 125.945 11.2064 125.755 11.4555C125.579 11.7047 125.491 12.0859 125.491 12.5989C125.491 13.5957 125.843 14.0941 126.546 14.0941C126.884 14.0941 127.147 13.9695 127.338 13.7203C127.529 13.4711 127.624 13.0973 127.624 12.5989C127.624 12.1005 127.529 11.7267 127.338 11.4775C127.147 11.2137 126.884 11.0818 126.546 11.0818Z" fill="white"/>
<path d="M140.619 0.63764V9.87244C140.619 10.7959 140.846 11.5069 141.301 12.0052C141.755 12.5036 142.422 12.7528 143.302 12.7528C144.181 12.7528 144.855 12.5036 145.325 12.0052C145.794 11.5069 146.028 10.7959 146.028 9.87244V0.63764H149.788V9.85045C149.788 11.2283 149.495 12.3937 148.909 13.3465C148.322 14.2993 147.531 15.0175 146.534 15.5013C145.552 15.985 144.452 16.2269 143.236 16.2269C142.019 16.2269 140.927 15.9923 139.96 15.5233C139.007 15.0395 138.252 14.3213 137.695 13.3685C137.138 12.401 136.859 11.2283 136.859 9.85045V0.63764H140.619Z" fill="white"/>
<path d="M166.236 16.0729H162.477L156.188 6.55231V16.0729H152.428V0.63764H156.188L162.477 10.2023V0.63764H166.236V16.0729Z" fill="white"/>
<path d="M180.066 0.63764V3.64994H175.976V16.0729H172.216V3.64994H168.126V0.63764H180.066Z" fill="white"/>
<path d="M185.647 0.63764V9.87244C185.647 10.7959 185.874 11.5069 186.328 12.0052C186.783 12.5036 187.45 12.7528 188.329 12.7528C189.209 12.7528 189.883 12.5036 190.352 12.0052C190.821 11.5069 191.056 10.7959 191.056 9.87244V0.63764H194.815V9.85045C194.815 11.2283 194.522 12.3937 193.936 13.3465C193.35 14.2993 192.558 15.0175 191.561 15.5013C190.579 15.985 189.48 16.2269 188.263 16.2269C187.046 16.2269 185.954 15.9923 184.987 15.5233C184.034 15.0395 183.279 14.3213 182.722 13.3685C182.165 12.401 181.887 11.2283 181.887 9.85045V0.63764H185.647Z" fill="white"/>
<path d="M206.405 16.0729L201.216 9.25679V16.0729H197.456V0.63764H201.216V7.40983L206.361 0.63764H210.78L204.8 8.20138L211 16.0729H206.405Z" fill="white"/>
<path d="M0 27.0762V23.5801H6.09057V39.6311H2.17677V27.0762H0Z" fill="white"/>
<path d="M8.6626 31.3857C8.6626 28.8645 9.14633 26.8783 10.1138 25.4271C11.0959 23.9759 12.6717 23.2503 14.8411 23.2503C17.0106 23.2503 18.579 23.9759 19.5465 25.4271C20.5286 26.8783 21.0196 28.8645 21.0196 31.3857C21.0196 33.9363 20.5286 35.9372 19.5465 37.3884C18.579 38.8395 17.0106 39.5651 14.8411 39.5651C12.6717 39.5651 11.0959 38.8395 10.1138 37.3884C9.14633 35.9372 8.6626 33.9363 8.6626 31.3857ZM17.3257 31.3857C17.3257 29.9052 17.1645 28.7692 16.842 27.9777C16.5195 27.1715 15.8526 26.7683 14.8411 26.7683C13.8297 26.7683 13.1627 27.1715 12.8403 27.9777C12.5178 28.7692 12.3565 29.9052 12.3565 31.3857C12.3565 32.3825 12.4152 33.2107 12.5324 33.8703C12.6497 34.5153 12.8842 35.043 13.236 35.4535C13.6025 35.8492 14.1375 36.0471 14.8411 36.0471C15.5447 36.0471 16.0724 35.8492 16.4242 35.4535C16.7907 35.043 17.0326 34.5153 17.1498 33.8703C17.2671 33.2107 17.3257 32.3825 17.3257 31.3857Z" fill="white"/>
<path d="M23.0061 31.3857C23.0061 28.8645 23.4898 26.8783 24.4573 25.4271C25.4394 23.9759 27.0152 23.2503 29.1846 23.2503C31.3541 23.2503 32.9225 23.9759 33.89 25.4271C34.8721 26.8783 35.3631 28.8645 35.3631 31.3857C35.3631 33.9363 34.8721 35.9372 33.89 37.3884C32.9225 38.8395 31.3541 39.5651 29.1846 39.5651C27.0152 39.5651 25.4394 38.8395 24.4573 37.3884C23.4898 35.9372 23.0061 33.9363 23.0061 31.3857ZM31.6692 31.3857C31.6692 29.9052 31.508 28.7692 31.1855 27.9777C30.863 27.1715 30.196 26.7683 29.1846 26.7683C28.1732 26.7683 27.5062 27.1715 27.1837 27.9777C26.8612 28.7692 26.7 29.9052 26.7 31.3857C26.7 32.3825 26.7586 33.2107 26.8759 33.8703C26.9932 34.5153 27.2277 35.043 27.5795 35.4535C27.946 35.8492 28.481 36.0471 29.1846 36.0471C29.8882 36.0471 30.4159 35.8492 30.7677 35.4535C31.1342 35.043 31.376 34.5153 31.4933 33.8703C31.6106 33.2107 31.6692 32.3825 31.6692 31.3857Z" fill="white"/>
<path d="M54.1462 29.165C54.1462 30.0592 53.941 30.88 53.5306 31.6276C53.1201 32.3605 52.4898 32.9542 51.6396 33.4086C50.7894 33.863 49.734 34.0902 48.4734 34.0902H46.1427V39.6311H42.3828V24.1958H48.4734C49.7047 24.1958 50.7455 24.4083 51.5956 24.8334C52.4458 25.2585 53.0835 25.8449 53.5086 26.5924C53.9337 27.34 54.1462 28.1975 54.1462 29.165ZM48.1876 31.0999C48.9058 31.0999 49.4409 30.9313 49.7927 30.5942C50.1445 30.2571 50.3204 29.7807 50.3204 29.165C50.3204 28.5493 50.1445 28.0729 49.7927 27.7358C49.4409 27.3987 48.9058 27.2301 48.1876 27.2301H46.1427V31.0999H48.1876Z" fill="white"/>
<path d="M59.8635 27.2081V30.3303H64.8987V33.2327H59.8635V36.6188H65.5583V39.6311H56.1036V24.1958H65.5583V27.2081H59.8635Z" fill="white"/>
<path d="M85.4794 24.1958V39.6311H81.7195V30.3743L78.2675 39.6311H75.2332L71.7591 30.3523V39.6311H67.9993V24.1958H72.4408L76.7723 34.8818L81.0599 24.1958H85.4794Z" fill="white"/>
<path d="M97.5279 31.7156C98.4221 31.9061 99.1404 32.3532 99.6827 33.0568C100.225 33.7458 100.496 34.5373 100.496 35.4315C100.496 36.7214 100.042 37.7475 99.133 38.5097C98.2389 39.2573 96.9856 39.6311 95.3732 39.6311H88.1832V24.1958H95.1313C96.6997 24.1958 97.9237 24.5549 98.8032 25.2732C99.6974 25.9915 100.144 26.9662 100.144 28.1975C100.144 29.1064 99.9026 29.8613 99.4189 30.4623C98.9498 31.0633 98.3195 31.481 97.5279 31.7156ZM91.9431 30.4403H94.4057C95.0214 30.4403 95.4904 30.3084 95.8129 30.0445C96.1501 29.766 96.3186 29.3629 96.3186 28.8352C96.3186 28.3075 96.1501 27.9044 95.8129 27.6259C95.4904 27.3474 95.0214 27.2081 94.4057 27.2081H91.9431V30.4403ZM94.7135 36.5968C95.3438 36.5968 95.8276 36.4576 96.1647 36.179C96.5165 35.8859 96.6924 35.4681 96.6924 34.9258C96.6924 34.3834 96.5092 33.9583 96.1427 33.6505C95.7909 33.3426 95.2999 33.1887 94.6696 33.1887H91.9431V36.5968H94.7135Z" fill="white"/>
<path d="M106.437 27.2081V30.3303H111.472V33.2327H106.437V36.6188H112.132V39.6311H102.677V24.1958H112.132V27.2081H106.437Z" fill="white"/>
<path d="M118.333 36.7287H123.258V39.6311H114.573V24.1958H118.333V36.7287Z" fill="white"/>
<path d="M128.811 24.1958V39.6311H125.051V24.1958H128.811Z" fill="white"/>
<path d="M145.54 31.7156C146.434 31.9061 147.152 32.3532 147.695 33.0568C148.237 33.7458 148.508 34.5373 148.508 35.4315C148.508 36.7214 148.054 37.7475 147.145 38.5097C146.251 39.2573 144.998 39.6311 143.385 39.6311H136.195V24.1958H143.143C144.712 24.1958 145.936 24.5549 146.815 25.2732C147.709 25.9915 148.156 26.9662 148.156 28.1975C148.156 29.1064 147.915 29.8613 147.431 30.4623C146.962 31.0633 146.332 31.481 145.54 31.7156ZM139.955 30.4403H142.418C143.033 30.4403 143.502 30.3084 143.825 30.0445C144.162 29.766 144.331 29.3629 144.331 28.8352C144.331 28.3075 144.162 27.9044 143.825 27.6259C143.502 27.3474 143.033 27.2081 142.418 27.2081H139.955V30.4403ZM142.726 36.5968C143.356 36.5968 143.84 36.4576 144.177 36.179C144.529 35.8859 144.704 35.4681 144.704 34.9258C144.704 34.3834 144.521 33.9583 144.155 33.6505C143.803 33.3426 143.312 33.1887 142.682 33.1887H139.955V36.5968H142.726Z" fill="white"/>
<path d="M160.298 36.9046H154.537L153.613 39.6311H149.678L155.262 24.1958H159.616L165.201 39.6311H161.221L160.298 36.9046ZM159.33 34.0023L157.417 28.3515L155.526 34.0023H159.33Z" fill="white"/>
<path d="M174.772 39.6311L171.562 33.8044H170.66V39.6311H166.901V24.1958H173.211C174.428 24.1958 175.461 24.4083 176.311 24.8334C177.176 25.2585 177.821 25.8449 178.246 26.5924C178.671 27.3254 178.884 28.1462 178.884 29.0551C178.884 30.0812 178.591 30.9973 178.004 31.8035C177.433 32.6097 176.582 33.1814 175.454 33.5185L179.016 39.6311H174.772ZM170.66 31.1439H172.991C173.68 31.1439 174.193 30.9753 174.53 30.6382C174.882 30.301 175.058 29.8246 175.058 29.209C175.058 28.6226 174.882 28.1609 174.53 27.8238C174.193 27.4866 173.68 27.318 172.991 27.318H170.66V31.1439Z" fill="white"/>
<path d="M184.938 24.1958V33.4306C184.938 34.3541 185.165 35.065 185.62 35.5634C186.074 36.0618 186.741 36.311 187.62 36.311C188.5 36.311 189.174 36.0618 189.643 35.5634C190.112 35.065 190.347 34.3541 190.347 33.4306V24.1958H194.107V33.4086C194.107 34.7865 193.814 35.9518 193.227 36.9046C192.641 37.8574 191.849 38.5757 190.853 39.0594C189.871 39.5432 188.771 39.785 187.555 39.785C186.338 39.785 185.246 39.5505 184.278 39.0814C183.326 38.5977 182.571 37.8794 182.014 36.9266C181.457 35.9592 181.178 34.7865 181.178 33.4086V24.1958H184.938Z" fill="white"/>
</g>
<defs>
<filter id="filter0_d_409_150" x="-4.00235" y="0" width="219.005" height="47.7897" filterUnits="userSpaceOnUse" color-interpolation-filters="sRGB">
<feFlood flood-opacity="0" result="BackgroundImageFix"/>
<feColorMatrix in="SourceAlpha" type="matrix" values="0 0 0 0 0 0 0 0 0 0 0 0 0 0 0 0 0 0 127 0" result="hardAlpha"/>
<feOffset dy="4"/>
<feGaussianBlur stdDeviation="2"/>
<feComposite in2="hardAlpha" operator="out"/>
<feColorMatrix type="matrix" values="0 0 0 0 0 0 0 0 0 0 0 0 0 0 0 0 0 0 1 0"/>
<feBlend mode="normal" in2="BackgroundImageFix" result="effect1_dropShadow_409_150"/>
<feBlend mode="normal" in="SourceGraphic" in2="effect1_dropShadow_409_150" result="shape"/>
</filter>
</defs>
</svg>
