<svg width="524" height="24" viewBox="0 0 524 24" fill="none" xmlns="http://www.w3.org/2000/svg">
<mask id="path-1-outside-1_409_73" maskUnits="userSpaceOnUse" x="0" y="0" width="524.539" height="24.0247" fill="black">
<rect fill="white" width="524.539" height="24.0247"/>
<path d="M17.6374 8.99341C17.6374 10.218 17.3584 11.333 16.8003 12.3383C16.2422 13.3253 15.4141 14.1113 14.3159 14.6962C13.2358 15.2811 11.9216 15.5735 10.3733 15.5735H7.99697V21.7423H2.00206V2.33106H10.3733C12.7137 2.33106 14.505 2.93424 15.7471 4.14059C17.0073 5.34694 17.6374 6.96454 17.6374 8.99341ZM9.69823 10.7755C10.9404 10.7755 11.5615 10.1815 11.5615 8.99341C11.5615 7.80533 10.9404 7.2113 9.69823 7.2113H7.99697V10.7755H9.69823Z"/>
<path d="M25.5338 7.18388V9.56917H31.4747V14.1478H25.5338V16.8895H32.2848V21.7423H19.5389V2.33106H32.2848V7.18388H25.5338Z"/>
<path d="M42.0243 21.9343C39.7379 21.9343 37.8476 21.3951 36.3534 20.3167C34.8772 19.22 34.076 17.6206 33.95 15.5187H40.323C40.413 16.6336 40.8991 17.1911 41.7812 17.1911C42.1053 17.1911 42.3753 17.118 42.5913 16.9718C42.8254 16.8073 42.9424 16.5605 42.9424 16.2315C42.9424 15.7746 42.6994 15.409 42.2133 15.1348C41.7272 14.8424 40.9711 14.5134 39.9449 14.1478C38.7208 13.7091 37.7036 13.2796 36.8935 12.8592C36.1014 12.4388 35.4173 11.8265 34.8412 11.0223C34.2651 10.218 33.986 9.18533 34.004 7.92414C34.004 6.66296 34.3191 5.59369 34.9492 4.71635C35.5973 3.82072 36.4704 3.14444 37.5686 2.68748C38.6847 2.23053 39.9359 2.00206 41.3221 2.00206C43.6625 2.00206 45.5168 2.5504 46.885 3.64708C48.2712 4.74376 49.0003 6.28826 49.0723 8.28056H42.6183C42.6003 7.73222 42.4653 7.33924 42.2133 7.10163C41.9612 6.86402 41.6552 6.74521 41.2951 6.74521C41.0431 6.74521 40.8361 6.8366 40.674 7.01938C40.512 7.18388 40.431 7.4215 40.431 7.73222C40.431 8.1709 40.665 8.53646 41.1331 8.82891C41.6192 9.10308 42.3843 9.44122 43.4285 9.84334C44.6346 10.3003 45.6248 10.739 46.3989 11.1594C47.191 11.5798 47.8751 12.1646 48.4512 12.914C49.0273 13.6634 49.3154 14.6048 49.3154 15.738C49.3154 16.9261 49.0273 17.9953 48.4512 18.9458C47.8751 19.878 47.038 20.6091 45.9398 21.1392C44.8417 21.6692 43.5365 21.9343 42.0243 21.9343Z"/>
<path d="M63.6815 18.8087H57.3086L56.3634 21.7423H50.0715L57.0655 2.33106H63.9786L70.9457 21.7423H64.6267L63.6815 18.8087ZM62.2233 14.2301L60.4951 8.82891L58.7668 14.2301H62.2233Z"/>
<path d="M90.6435 21.7423H84.6485L78.3026 11.9819V21.7423H72.3077V2.33106H78.3026L84.6485 12.256V2.33106H90.6435V21.7423Z"/>
<path d="M113.576 8.99341C113.576 10.218 113.297 11.333 112.739 12.3383C112.181 13.3253 111.353 14.1113 110.254 14.6962C109.174 15.2811 107.86 15.5735 106.312 15.5735H103.935V21.7423H97.9405V2.33106H106.312C108.652 2.33106 110.443 2.93424 111.686 4.14059C112.946 5.34694 113.576 6.96454 113.576 8.99341ZM105.637 10.7755C106.879 10.7755 107.5 10.1815 107.5 8.99341C107.5 7.80533 106.879 7.2113 105.637 7.2113H103.935V10.7755H105.637Z"/>
<path d="M127.737 18.8087H121.364L120.419 21.7423H114.127L121.121 2.33106H128.034L135.001 21.7423H128.682L127.737 18.8087ZM126.279 14.2301L124.551 8.82891L122.822 14.2301H126.279Z"/>
<path d="M144.33 2.33106C146.328 2.33106 148.074 2.74232 149.568 3.56483C151.081 4.38734 152.242 5.52972 153.052 6.99196C153.862 8.4542 154.267 10.1175 154.267 11.9819C154.267 13.8279 153.862 15.4912 153.052 16.9718C152.242 18.4523 151.081 19.6221 149.568 20.4812C148.074 21.3219 146.328 21.7423 144.33 21.7423H136.363V2.33106H144.33ZM143.789 16.3138C145.14 16.3138 146.211 15.9391 147.003 15.1897C147.795 14.4403 148.191 13.371 148.191 11.9819C148.191 10.5927 147.795 9.52347 147.003 8.77407C146.211 8.02467 145.14 7.64997 143.789 7.64997H142.358V16.3138H143.789Z"/>
<path d="M168.692 18.8087H162.319L161.374 21.7423H155.082L162.076 2.33106H168.989L175.956 21.7423H169.637L168.692 18.8087ZM167.233 14.2301L165.505 8.82891L163.777 14.2301H167.233Z"/>
<path d="M192.332 2.33106V7.15647H187.255V21.7423H181.26V7.15647H176.238V2.33106H192.332Z"/>
<path d="M206.218 18.8087H199.845L198.9 21.7423H192.608L199.602 2.33106H206.515L213.482 21.7423H207.163L206.218 18.8087ZM204.76 14.2301L203.031 8.82891L201.303 14.2301H204.76Z"/>
<path d="M238.687 2.33106L232.26 21.7423H224.509L218.082 2.33106H224.455L228.398 15.6832L232.314 2.33106H238.687Z"/>
<path d="M246.023 2.33106V21.7423H240.028V2.33106H246.023Z"/>
<path d="M260.991 18.8087H254.618L253.673 21.7423H247.381L254.375 2.33106H261.288L268.255 21.7423H261.936L260.991 18.8087ZM259.533 14.2301L257.804 8.82891L256.076 14.2301H259.533Z"/>
<path d="M282.172 2.33106C284.17 2.33106 285.916 2.74232 287.411 3.56483C288.923 4.38734 290.084 5.52972 290.894 6.99196C291.704 8.4542 292.109 10.1175 292.109 11.9819C292.109 13.8279 291.704 15.4912 290.894 16.9718C290.084 18.4523 288.923 19.6221 287.411 20.4812C285.916 21.3219 284.17 21.7423 282.172 21.7423H274.206V2.33106H282.172ZM281.632 16.3138C282.982 16.3138 284.053 15.9391 284.845 15.1897C285.637 14.4403 286.033 13.371 286.033 11.9819C286.033 10.5927 285.637 9.52347 284.845 8.77407C284.053 8.02467 282.982 7.64997 281.632 7.64997H280.2V16.3138H281.632Z"/>
<path d="M300.269 7.18388V9.56917H306.21V14.1478H300.269V16.8895H307.02V21.7423H294.274V2.33106H307.02V7.18388H300.269Z"/>
<path d="M315.274 17.1363H321.053V21.7423H309.279V2.33106H315.274V17.1363Z"/>
<path d="M328.934 2.33106V21.7423H322.94V2.33106H328.934Z"/>
<path d="M350.896 2.33106L344.469 21.7423H336.719L330.292 2.33106H336.665L340.607 15.6832L344.523 2.33106H350.896Z"/>
<path d="M358.233 7.18388V9.56917H364.174V14.1478H358.233V16.8895H364.984V21.7423H352.238V2.33106H364.984V7.18388H358.233Z"/>
<path d="M376.857 21.7423L373.265 14.7784H373.238V21.7423H367.243V2.33106H376.154C377.703 2.33106 379.026 2.61437 380.124 3.18099C381.222 3.72933 382.041 4.48787 382.581 5.45661C383.14 6.40706 383.419 7.48547 383.419 8.69182C383.419 9.98956 383.059 11.1411 382.338 12.1464C381.636 13.1517 380.619 13.8736 379.287 14.3123L383.446 21.7423H376.857ZM373.238 10.7207H375.614C376.19 10.7207 376.623 10.5927 376.911 10.3368C377.199 10.0627 377.343 9.64228 377.343 9.07566C377.343 8.56387 377.19 8.16176 376.884 7.86931C376.596 7.57686 376.172 7.43064 375.614 7.43064H373.238V10.7207Z"/>
<path d="M403.697 2.33106L396.838 15.8477V21.7423H390.843V15.8477L383.984 2.33106H390.843L393.894 9.21274L396.946 2.33106H403.697Z"/>
<path d="M417.128 21.9343C414.842 21.9343 412.952 21.3951 411.457 20.3167C409.981 19.22 409.18 17.6206 409.054 15.5187H415.427C415.517 16.6336 416.003 17.1911 416.885 17.1911C417.209 17.1911 417.479 17.118 417.695 16.9718C417.929 16.8073 418.046 16.5605 418.046 16.2315C418.046 15.7746 417.803 15.409 417.317 15.1348C416.831 14.8424 416.075 14.5134 415.049 14.1478C413.825 13.7091 412.807 13.2796 411.997 12.8592C411.205 12.4388 410.521 11.8265 409.945 11.0223C409.369 10.218 409.09 9.18533 409.108 7.92414C409.108 6.66296 409.423 5.59369 410.053 4.71635C410.701 3.82072 411.574 3.14444 412.672 2.68748C413.789 2.23053 415.04 2.00206 416.426 2.00206C418.766 2.00206 420.621 2.5504 421.989 3.64708C423.375 4.74376 424.104 6.28826 424.176 8.28056H417.722C417.704 7.73222 417.569 7.33924 417.317 7.10163C417.065 6.86402 416.759 6.74521 416.399 6.74521C416.147 6.74521 415.94 6.8366 415.778 7.01938C415.616 7.18388 415.535 7.4215 415.535 7.73222C415.535 8.1709 415.769 8.53646 416.237 8.82891C416.723 9.10308 417.488 9.44122 418.532 9.84334C419.739 10.3003 420.729 10.739 421.503 11.1594C422.295 11.5798 422.979 12.1646 423.555 12.914C424.131 13.6634 424.419 14.6048 424.419 15.738C424.419 16.9261 424.131 17.9953 423.555 18.9458C422.979 19.878 422.142 20.6091 421.044 21.1392C419.946 21.6692 418.64 21.9343 417.128 21.9343Z"/>
<path d="M432.52 7.18388V9.56917H438.461V14.1478H432.52V16.8895H439.272V21.7423H426.526V2.33106H439.272V7.18388H432.52Z"/>
<path d="M451.144 21.7423L447.553 14.7784H447.526V21.7423H441.531V2.33106H450.442C451.99 2.33106 453.314 2.61437 454.412 3.18099C455.51 3.72933 456.329 4.48787 456.869 5.45661C457.427 6.40706 457.706 7.48547 457.706 8.69182C457.706 9.98956 457.346 11.1411 456.626 12.1464C455.924 13.1517 454.907 13.8736 453.575 14.3123L457.733 21.7423H451.144ZM447.526 10.7207H449.902C450.478 10.7207 450.91 10.5927 451.198 10.3368C451.486 10.0627 451.63 9.64228 451.63 9.07566C451.63 8.56387 451.477 8.16176 451.171 7.86931C450.883 7.57686 450.46 7.43064 449.902 7.43064H447.526V10.7207Z"/>
<path d="M478.875 2.33106L472.448 21.7423H464.698L458.271 2.33106H464.644L468.587 15.6832L472.502 2.33106H478.875Z"/>
<path d="M486.212 2.33106V21.7423H480.217V2.33106H486.212Z"/>
<path d="M488.38 12.0093C488.38 10.0901 488.758 8.38109 489.514 6.88229C490.288 5.38349 491.386 4.22284 492.808 3.40033C494.231 2.55954 495.905 2.13914 497.831 2.13914C499.487 2.13914 500.964 2.45901 502.26 3.09874C503.574 3.72019 504.636 4.60668 505.446 5.7582C506.274 6.90971 506.824 8.25315 507.094 9.7885H500.775C500.487 9.14877 500.073 8.65526 499.532 8.30798C499.01 7.94242 498.407 7.75964 497.723 7.75964C496.715 7.75964 495.914 8.14348 495.32 8.91116C494.744 9.67883 494.456 10.7115 494.456 12.0093C494.456 13.307 494.744 14.3397 495.32 15.1074C495.914 15.8751 496.715 16.2589 497.723 16.2589C498.407 16.2589 499.01 16.0853 499.532 15.738C500.073 15.3724 500.487 14.8698 500.775 14.2301H507.094C506.824 15.7654 506.274 17.1089 505.446 18.2604C504.636 19.4119 503.574 20.3075 502.26 20.9472C500.964 21.5687 499.487 21.8794 497.831 21.8794C495.905 21.8794 494.231 21.4682 492.808 20.6457C491.386 19.8049 490.288 18.6351 489.514 17.1363C488.758 15.6375 488.38 13.9285 488.38 12.0093Z"/>
<path d="M515.247 7.18388V9.56917H521.188V14.1478H515.247V16.8895H521.998V21.7423H509.252V2.33106H521.998V7.18388H515.247Z"/>
</mask>
<path d="M17.6374 8.99341C17.6374 10.218 17.3584 11.333 16.8003 12.3383C16.2422 13.3253 15.4141 14.1113 14.3159 14.6962C13.2358 15.2811 11.9216 15.5735 10.3733 15.5735H7.99697V21.7423H2.00206V2.33106H10.3733C12.7137 2.33106 14.505 2.93424 15.7471 4.14059C17.0073 5.34694 17.6374 6.96454 17.6374 8.99341ZM9.69823 10.7755C10.9404 10.7755 11.5615 10.1815 11.5615 8.99341C11.5615 7.80533 10.9404 7.2113 9.69823 7.2113H7.99697V10.7755H9.69823Z" fill="#26413C"/>
<path d="M25.5338 7.18388V9.56917H31.4747V14.1478H25.5338V16.8895H32.2848V21.7423H19.5389V2.33106H32.2848V7.18388H25.5338Z" fill="#26413C"/>
<path d="M42.0243 21.9343C39.7379 21.9343 37.8476 21.3951 36.3534 20.3167C34.8772 19.22 34.076 17.6206 33.95 15.5187H40.323C40.413 16.6336 40.8991 17.1911 41.7812 17.1911C42.1053 17.1911 42.3753 17.118 42.5913 16.9718C42.8254 16.8073 42.9424 16.5605 42.9424 16.2315C42.9424 15.7746 42.6994 15.409 42.2133 15.1348C41.7272 14.8424 40.9711 14.5134 39.9449 14.1478C38.7208 13.7091 37.7036 13.2796 36.8935 12.8592C36.1014 12.4388 35.4173 11.8265 34.8412 11.0223C34.2651 10.218 33.986 9.18533 34.004 7.92414C34.004 6.66296 34.3191 5.59369 34.9492 4.71635C35.5973 3.82072 36.4704 3.14444 37.5686 2.68748C38.6847 2.23053 39.9359 2.00206 41.3221 2.00206C43.6625 2.00206 45.5168 2.5504 46.885 3.64708C48.2712 4.74376 49.0003 6.28826 49.0723 8.28056H42.6183C42.6003 7.73222 42.4653 7.33924 42.2133 7.10163C41.9612 6.86402 41.6552 6.74521 41.2951 6.74521C41.0431 6.74521 40.8361 6.8366 40.674 7.01938C40.512 7.18388 40.431 7.4215 40.431 7.73222C40.431 8.1709 40.665 8.53646 41.1331 8.82891C41.6192 9.10308 42.3843 9.44122 43.4285 9.84334C44.6346 10.3003 45.6248 10.739 46.3989 11.1594C47.191 11.5798 47.8751 12.1646 48.4512 12.914C49.0273 13.6634 49.3154 14.6048 49.3154 15.738C49.3154 16.9261 49.0273 17.9953 48.4512 18.9458C47.8751 19.878 47.038 20.6091 45.9398 21.1392C44.8417 21.6692 43.5365 21.9343 42.0243 21.9343Z" fill="#26413C"/>
<path d="M63.6815 18.8087H57.3086L56.3634 21.7423H50.0715L57.0655 2.33106H63.9786L70.9457 21.7423H64.6267L63.6815 18.8087ZM62.2233 14.2301L60.4951 8.82891L58.7668 14.2301H62.2233Z" fill="#26413C"/>
<path d="M90.6435 21.7423H84.6485L78.3026 11.9819V21.7423H72.3077V2.33106H78.3026L84.6485 12.256V2.33106H90.6435V21.7423Z" fill="#26413C"/>
<path d="M113.576 8.99341C113.576 10.218 113.297 11.333 112.739 12.3383C112.181 13.3253 111.353 14.1113 110.254 14.6962C109.174 15.2811 107.86 15.5735 106.312 15.5735H103.935V21.7423H97.9405V2.33106H106.312C108.652 2.33106 110.443 2.93424 111.686 4.14059C112.946 5.34694 113.576 6.96454 113.576 8.99341ZM105.637 10.7755C106.879 10.7755 107.5 10.1815 107.5 8.99341C107.5 7.80533 106.879 7.2113 105.637 7.2113H103.935V10.7755H105.637Z" fill="#26413C"/>
<path d="M127.737 18.8087H121.364L120.419 21.7423H114.127L121.121 2.33106H128.034L135.001 21.7423H128.682L127.737 18.8087ZM126.279 14.2301L124.551 8.82891L122.822 14.2301H126.279Z" fill="#26413C"/>
<path d="M144.33 2.33106C146.328 2.33106 148.074 2.74232 149.568 3.56483C151.081 4.38734 152.242 5.52972 153.052 6.99196C153.862 8.4542 154.267 10.1175 154.267 11.9819C154.267 13.8279 153.862 15.4912 153.052 16.9718C152.242 18.4523 151.081 19.6221 149.568 20.4812C148.074 21.3219 146.328 21.7423 144.33 21.7423H136.363V2.33106H144.33ZM143.789 16.3138C145.14 16.3138 146.211 15.9391 147.003 15.1897C147.795 14.4403 148.191 13.371 148.191 11.9819C148.191 10.5927 147.795 9.52347 147.003 8.77407C146.211 8.02467 145.14 7.64997 143.789 7.64997H142.358V16.3138H143.789Z" fill="#26413C"/>
<path d="M168.692 18.8087H162.319L161.374 21.7423H155.082L162.076 2.33106H168.989L175.956 21.7423H169.637L168.692 18.8087ZM167.233 14.2301L165.505 8.82891L163.777 14.2301H167.233Z" fill="#26413C"/>
<path d="M192.332 2.33106V7.15647H187.255V21.7423H181.26V7.15647H176.238V2.33106H192.332Z" fill="#26413C"/>
<path d="M206.218 18.8087H199.845L198.9 21.7423H192.608L199.602 2.33106H206.515L213.482 21.7423H207.163L206.218 18.8087ZM204.76 14.2301L203.031 8.82891L201.303 14.2301H204.76Z" fill="#26413C"/>
<path d="M238.687 2.33106L232.26 21.7423H224.509L218.082 2.33106H224.455L228.398 15.6832L232.314 2.33106H238.687Z" fill="#26413C"/>
<path d="M246.023 2.33106V21.7423H240.028V2.33106H246.023Z" fill="#26413C"/>
<path d="M260.991 18.8087H254.618L253.673 21.7423H247.381L254.375 2.33106H261.288L268.255 21.7423H261.936L260.991 18.8087ZM259.533 14.2301L257.804 8.82891L256.076 14.2301H259.533Z" fill="#26413C"/>
<path d="M282.172 2.33106C284.17 2.33106 285.916 2.74232 287.411 3.56483C288.923 4.38734 290.084 5.52972 290.894 6.99196C291.704 8.4542 292.109 10.1175 292.109 11.9819C292.109 13.8279 291.704 15.4912 290.894 16.9718C290.084 18.4523 288.923 19.6221 287.411 20.4812C285.916 21.3219 284.17 21.7423 282.172 21.7423H274.206V2.33106H282.172ZM281.632 16.3138C282.982 16.3138 284.053 15.9391 284.845 15.1897C285.637 14.4403 286.033 13.371 286.033 11.9819C286.033 10.5927 285.637 9.52347 284.845 8.77407C284.053 8.02467 282.982 7.64997 281.632 7.64997H280.2V16.3138H281.632Z" fill="#26413C"/>
<path d="M300.269 7.18388V9.56917H306.21V14.1478H300.269V16.8895H307.02V21.7423H294.274V2.33106H307.02V7.18388H300.269Z" fill="#26413C"/>
<path d="M315.274 17.1363H321.053V21.7423H309.279V2.33106H315.274V17.1363Z" fill="#26413C"/>
<path d="M328.934 2.33106V21.7423H322.94V2.33106H328.934Z" fill="#26413C"/>
<path d="M350.896 2.33106L344.469 21.7423H336.719L330.292 2.33106H336.665L340.607 15.6832L344.523 2.33106H350.896Z" fill="#26413C"/>
<path d="M358.233 7.18388V9.56917H364.174V14.1478H358.233V16.8895H364.984V21.7423H352.238V2.33106H364.984V7.18388H358.233Z" fill="#26413C"/>
<path d="M376.857 21.7423L373.265 14.7784H373.238V21.7423H367.243V2.33106H376.154C377.703 2.33106 379.026 2.61437 380.124 3.18099C381.222 3.72933 382.041 4.48787 382.581 5.45661C383.14 6.40706 383.419 7.48547 383.419 8.69182C383.419 9.98956 383.059 11.1411 382.338 12.1464C381.636 13.1517 380.619 13.8736 379.287 14.3123L383.446 21.7423H376.857ZM373.238 10.7207H375.614C376.19 10.7207 376.623 10.5927 376.911 10.3368C377.199 10.0627 377.343 9.64228 377.343 9.07566C377.343 8.56387 377.19 8.16176 376.884 7.86931C376.596 7.57686 376.172 7.43064 375.614 7.43064H373.238V10.7207Z" fill="#26413C"/>
<path d="M403.697 2.33106L396.838 15.8477V21.7423H390.843V15.8477L383.984 2.33106H390.843L393.894 9.21274L396.946 2.33106H403.697Z" fill="#26413C"/>
<path d="M417.128 21.9343C414.842 21.9343 412.952 21.3951 411.457 20.3167C409.981 19.22 409.18 17.6206 409.054 15.5187H415.427C415.517 16.6336 416.003 17.1911 416.885 17.1911C417.209 17.1911 417.479 17.118 417.695 16.9718C417.929 16.8073 418.046 16.5605 418.046 16.2315C418.046 15.7746 417.803 15.409 417.317 15.1348C416.831 14.8424 416.075 14.5134 415.049 14.1478C413.825 13.7091 412.807 13.2796 411.997 12.8592C411.205 12.4388 410.521 11.8265 409.945 11.0223C409.369 10.218 409.09 9.18533 409.108 7.92414C409.108 6.66296 409.423 5.59369 410.053 4.71635C410.701 3.82072 411.574 3.14444 412.672 2.68748C413.789 2.23053 415.04 2.00206 416.426 2.00206C418.766 2.00206 420.621 2.5504 421.989 3.64708C423.375 4.74376 424.104 6.28826 424.176 8.28056H417.722C417.704 7.73222 417.569 7.33924 417.317 7.10163C417.065 6.86402 416.759 6.74521 416.399 6.74521C416.147 6.74521 415.94 6.8366 415.778 7.01938C415.616 7.18388 415.535 7.4215 415.535 7.73222C415.535 8.1709 415.769 8.53646 416.237 8.82891C416.723 9.10308 417.488 9.44122 418.532 9.84334C419.739 10.3003 420.729 10.739 421.503 11.1594C422.295 11.5798 422.979 12.1646 423.555 12.914C424.131 13.6634 424.419 14.6048 424.419 15.738C424.419 16.9261 424.131 17.9953 423.555 18.9458C422.979 19.878 422.142 20.6091 421.044 21.1392C419.946 21.6692 418.64 21.9343 417.128 21.9343Z" fill="#26413C"/>
<path d="M432.52 7.18388V9.56917H438.461V14.1478H432.52V16.8895H439.272V21.7423H426.526V2.33106H439.272V7.18388H432.52Z" fill="#26413C"/>
<path d="M451.144 21.7423L447.553 14.7784H447.526V21.7423H441.531V2.33106H450.442C451.99 2.33106 453.314 2.61437 454.412 3.18099C455.51 3.72933 456.329 4.48787 456.869 5.45661C457.427 6.40706 457.706 7.48547 457.706 8.69182C457.706 9.98956 457.346 11.1411 456.626 12.1464C455.924 13.1517 454.907 13.8736 453.575 14.3123L457.733 21.7423H451.144ZM447.526 10.7207H449.902C450.478 10.7207 450.91 10.5927 451.198 10.3368C451.486 10.0627 451.63 9.64228 451.63 9.07566C451.63 8.56387 451.477 8.16176 451.171 7.86931C450.883 7.57686 450.46 7.43064 449.902 7.43064H447.526V10.7207Z" fill="#26413C"/>
<path d="M478.875 2.33106L472.448 21.7423H464.698L458.271 2.33106H464.644L468.587 15.6832L472.502 2.33106H478.875Z" fill="#26413C"/>
<path d="M486.212 2.33106V21.7423H480.217V2.33106H486.212Z" fill="#26413C"/>
<path d="M488.38 12.0093C488.38 10.0901 488.758 8.38109 489.514 6.88229C490.288 5.38349 491.386 4.22284 492.808 3.40033C494.231 2.55954 495.905 2.13914 497.831 2.13914C499.487 2.13914 500.964 2.45901 502.26 3.09874C503.574 3.72019 504.636 4.60668 505.446 5.7582C506.274 6.90971 506.824 8.25315 507.094 9.7885H500.775C500.487 9.14877 500.073 8.65526 499.532 8.30798C499.01 7.94242 498.407 7.75964 497.723 7.75964C496.715 7.75964 495.914 8.14348 495.32 8.91116C494.744 9.67883 494.456 10.7115 494.456 12.0093C494.456 13.307 494.744 14.3397 495.32 15.1074C495.914 15.8751 496.715 16.2589 497.723 16.2589C498.407 16.2589 499.01 16.0853 499.532 15.738C500.073 15.3724 500.487 14.8698 500.775 14.2301H507.094C506.824 15.7654 506.274 17.1089 505.446 18.2604C504.636 19.4119 503.574 20.3075 502.26 20.9472C500.964 21.5687 499.487 21.8794 497.831 21.8794C495.905 21.8794 494.231 21.4682 492.808 20.6457C491.386 19.8049 490.288 18.6351 489.514 17.1363C488.758 15.6375 488.38 13.9285 488.38 12.0093Z" fill="#26413C"/>
<path d="M515.247 7.18388V9.56917H521.188V14.1478H515.247V16.8895H521.998V21.7423H509.252V2.33106H521.998V7.18388H515.247Z" fill="#26413C"/>
<path d="M17.6374 8.99341C17.6374 10.218 17.3584 11.333 16.8003 12.3383C16.2422 13.3253 15.4141 14.1113 14.3159 14.6962C13.2358 15.2811 11.9216 15.5735 10.3733 15.5735H7.99697V21.7423H2.00206V2.33106H10.3733C12.7137 2.33106 14.505 2.93424 15.7471 4.14059C17.0073 5.34694 17.6374 6.96454 17.6374 8.99341ZM9.69823 10.7755C10.9404 10.7755 11.5615 10.1815 11.5615 8.99341C11.5615 7.80533 10.9404 7.2113 9.69823 7.2113H7.99697V10.7755H9.69823Z" stroke="white" stroke-width="4" mask="url(#path-1-outside-1_409_73)"/>
<path d="M25.5338 7.18388V9.56917H31.4747V14.1478H25.5338V16.8895H32.2848V21.7423H19.5389V2.33106H32.2848V7.18388H25.5338Z" stroke="white" stroke-width="4" mask="url(#path-1-outside-1_409_73)"/>
<path d="M42.0243 21.9343C39.7379 21.9343 37.8476 21.3951 36.3534 20.3167C34.8772 19.22 34.076 17.6206 33.95 15.5187H40.323C40.413 16.6336 40.8991 17.1911 41.7812 17.1911C42.1053 17.1911 42.3753 17.118 42.5913 16.9718C42.8254 16.8073 42.9424 16.5605 42.9424 16.2315C42.9424 15.7746 42.6994 15.409 42.2133 15.1348C41.7272 14.8424 40.9711 14.5134 39.9449 14.1478C38.7208 13.7091 37.7036 13.2796 36.8935 12.8592C36.1014 12.4388 35.4173 11.8265 34.8412 11.0223C34.2651 10.218 33.986 9.18533 34.004 7.92414C34.004 6.66296 34.3191 5.59369 34.9492 4.71635C35.5973 3.82072 36.4704 3.14444 37.5686 2.68748C38.6847 2.23053 39.9359 2.00206 41.3221 2.00206C43.6625 2.00206 45.5168 2.5504 46.885 3.64708C48.2712 4.74376 49.0003 6.28826 49.0723 8.28056H42.6183C42.6003 7.73222 42.4653 7.33924 42.2133 7.10163C41.9612 6.86402 41.6552 6.74521 41.2951 6.74521C41.0431 6.74521 40.8361 6.8366 40.674 7.01938C40.512 7.18388 40.431 7.4215 40.431 7.73222C40.431 8.1709 40.665 8.53646 41.1331 8.82891C41.6192 9.10308 42.3843 9.44122 43.4285 9.84334C44.6346 10.3003 45.6248 10.739 46.3989 11.1594C47.191 11.5798 47.8751 12.1646 48.4512 12.914C49.0273 13.6634 49.3154 14.6048 49.3154 15.738C49.3154 16.9261 49.0273 17.9953 48.4512 18.9458C47.8751 19.878 47.038 20.6091 45.9398 21.1392C44.8417 21.6692 43.5365 21.9343 42.0243 21.9343Z" stroke="white" stroke-width="4" mask="url(#path-1-outside-1_409_73)"/>
<path d="M63.6815 18.8087H57.3086L56.3634 21.7423H50.0715L57.0655 2.33106H63.9786L70.9457 21.7423H64.6267L63.6815 18.8087ZM62.2233 14.2301L60.4951 8.82891L58.7668 14.2301H62.2233Z" stroke="white" stroke-width="4" mask="url(#path-1-outside-1_409_73)"/>
<path d="M90.6435 21.7423H84.6485L78.3026 11.9819V21.7423H72.3077V2.33106H78.3026L84.6485 12.256V2.33106H90.6435V21.7423Z" stroke="white" stroke-width="4" mask="url(#path-1-outside-1_409_73)"/>
<path d="M113.576 8.99341C113.576 10.218 113.297 11.333 112.739 12.3383C112.181 13.3253 111.353 14.1113 110.254 14.6962C109.174 15.2811 107.86 15.5735 106.312 15.5735H103.935V21.7423H97.9405V2.33106H106.312C108.652 2.33106 110.443 2.93424 111.686 4.14059C112.946 5.34694 113.576 6.96454 113.576 8.99341ZM105.637 10.7755C106.879 10.7755 107.5 10.1815 107.5 8.99341C107.5 7.80533 106.879 7.2113 105.637 7.2113H103.935V10.7755H105.637Z" stroke="white" stroke-width="4" mask="url(#path-1-outside-1_409_73)"/>
<path d="M127.737 18.8087H121.364L120.419 21.7423H114.127L121.121 2.33106H128.034L135.001 21.7423H128.682L127.737 18.8087ZM126.279 14.2301L124.551 8.82891L122.822 14.2301H126.279Z" stroke="white" stroke-width="4" mask="url(#path-1-outside-1_409_73)"/>
<path d="M144.33 2.33106C146.328 2.33106 148.074 2.74232 149.568 3.56483C151.081 4.38734 152.242 5.52972 153.052 6.99196C153.862 8.4542 154.267 10.1175 154.267 11.9819C154.267 13.8279 153.862 15.4912 153.052 16.9718C152.242 18.4523 151.081 19.6221 149.568 20.4812C148.074 21.3219 146.328 21.7423 144.33 21.7423H136.363V2.33106H144.33ZM143.789 16.3138C145.14 16.3138 146.211 15.9391 147.003 15.1897C147.795 14.4403 148.191 13.371 148.191 11.9819C148.191 10.5927 147.795 9.52347 147.003 8.77407C146.211 8.02467 145.14 7.64997 143.789 7.64997H142.358V16.3138H143.789Z" stroke="white" stroke-width="4" mask="url(#path-1-outside-1_409_73)"/>
<path d="M168.692 18.8087H162.319L161.374 21.7423H155.082L162.076 2.33106H168.989L175.956 21.7423H169.637L168.692 18.8087ZM167.233 14.2301L165.505 8.82891L163.777 14.2301H167.233Z" stroke="white" stroke-width="4" mask="url(#path-1-outside-1_409_73)"/>
<path d="M192.332 2.33106V7.15647H187.255V21.7423H181.26V7.15647H176.238V2.33106H192.332Z" stroke="white" stroke-width="4" mask="url(#path-1-outside-1_409_73)"/>
<path d="M206.218 18.8087H199.845L198.9 21.7423H192.608L199.602 2.33106H206.515L213.482 21.7423H207.163L206.218 18.8087ZM204.76 14.2301L203.031 8.82891L201.303 14.2301H204.76Z" stroke="white" stroke-width="4" mask="url(#path-1-outside-1_409_73)"/>
<path d="M238.687 2.33106L232.26 21.7423H224.509L218.082 2.33106H224.455L228.398 15.6832L232.314 2.33106H238.687Z" stroke="white" stroke-width="4" mask="url(#path-1-outside-1_409_73)"/>
<path d="M246.023 2.33106V21.7423H240.028V2.33106H246.023Z" stroke="white" stroke-width="4" mask="url(#path-1-outside-1_409_73)"/>
<path d="M260.991 18.8087H254.618L253.673 21.7423H247.381L254.375 2.33106H261.288L268.255 21.7423H261.936L260.991 18.8087ZM259.533 14.2301L257.804 8.82891L256.076 14.2301H259.533Z" stroke="white" stroke-width="4" mask="url(#path-1-outside-1_409_73)"/>
<path d="M282.172 2.33106C284.17 2.33106 285.916 2.74232 287.411 3.56483C288.923 4.38734 290.084 5.52972 290.894 6.99196C291.704 8.4542 292.109 10.1175 292.109 11.9819C292.109 13.8279 291.704 15.4912 290.894 16.9718C290.084 18.4523 288.923 19.6221 287.411 20.4812C285.916 21.3219 284.17 21.7423 282.172 21.7423H274.206V2.33106H282.172ZM281.632 16.3138C282.982 16.3138 284.053 15.9391 284.845 15.1897C285.637 14.4403 286.033 13.371 286.033 11.9819C286.033 10.5927 285.637 9.52347 284.845 8.77407C284.053 8.02467 282.982 7.64997 281.632 7.64997H280.2V16.3138H281.632Z" stroke="white" stroke-width="4" mask="url(#path-1-outside-1_409_73)"/>
<path d="M300.269 7.18388V9.56917H306.21V14.1478H300.269V16.8895H307.02V21.7423H294.274V2.33106H307.02V7.18388H300.269Z" stroke="white" stroke-width="4" mask="url(#path-1-outside-1_409_73)"/>
<path d="M315.274 17.1363H321.053V21.7423H309.279V2.33106H315.274V17.1363Z" stroke="white" stroke-width="4" mask="url(#path-1-outside-1_409_73)"/>
<path d="M328.934 2.33106V21.7423H322.94V2.33106H328.934Z" stroke="white" stroke-width="4" mask="url(#path-1-outside-1_409_73)"/>
<path d="M350.896 2.33106L344.469 21.7423H336.719L330.292 2.33106H336.665L340.607 15.6832L344.523 2.33106H350.896Z" stroke="white" stroke-width="4" mask="url(#path-1-outside-1_409_73)"/>
<path d="M358.233 7.18388V9.56917H364.174V14.1478H358.233V16.8895H364.984V21.7423H352.238V2.33106H364.984V7.18388H358.233Z" stroke="white" stroke-width="4" mask="url(#path-1-outside-1_409_73)"/>
<path d="M376.857 21.7423L373.265 14.7784H373.238V21.7423H367.243V2.33106H376.154C377.703 2.33106 379.026 2.61437 380.124 3.18099C381.222 3.72933 382.041 4.48787 382.581 5.45661C383.14 6.40706 383.419 7.48547 383.419 8.69182C383.419 9.98956 383.059 11.1411 382.338 12.1464C381.636 13.1517 380.619 13.8736 379.287 14.3123L383.446 21.7423H376.857ZM373.238 10.7207H375.614C376.19 10.7207 376.623 10.5927 376.911 10.3368C377.199 10.0627 377.343 9.64228 377.343 9.07566C377.343 8.56387 377.19 8.16176 376.884 7.86931C376.596 7.57686 376.172 7.43064 375.614 7.43064H373.238V10.7207Z" stroke="white" stroke-width="4" mask="url(#path-1-outside-1_409_73)"/>
<path d="M403.697 2.33106L396.838 15.8477V21.7423H390.843V15.8477L383.984 2.33106H390.843L393.894 9.21274L396.946 2.33106H403.697Z" stroke="white" stroke-width="4" mask="url(#path-1-outside-1_409_73)"/>
<path d="M417.128 21.9343C414.842 21.9343 412.952 21.3951 411.457 20.3167C409.981 19.22 409.18 17.6206 409.054 15.5187H415.427C415.517 16.6336 416.003 17.1911 416.885 17.1911C417.209 17.1911 417.479 17.118 417.695 16.9718C417.929 16.8073 418.046 16.5605 418.046 16.2315C418.046 15.7746 417.803 15.409 417.317 15.1348C416.831 14.8424 416.075 14.5134 415.049 14.1478C413.825 13.7091 412.807 13.2796 411.997 12.8592C411.205 12.4388 410.521 11.8265 409.945 11.0223C409.369 10.218 409.09 9.18533 409.108 7.92414C409.108 6.66296 409.423 5.59369 410.053 4.71635C410.701 3.82072 411.574 3.14444 412.672 2.68748C413.789 2.23053 415.04 2.00206 416.426 2.00206C418.766 2.00206 420.621 2.5504 421.989 3.64708C423.375 4.74376 424.104 6.28826 424.176 8.28056H417.722C417.704 7.73222 417.569 7.33924 417.317 7.10163C417.065 6.86402 416.759 6.74521 416.399 6.74521C416.147 6.74521 415.94 6.8366 415.778 7.01938C415.616 7.18388 415.535 7.4215 415.535 7.73222C415.535 8.1709 415.769 8.53646 416.237 8.82891C416.723 9.10308 417.488 9.44122 418.532 9.84334C419.739 10.3003 420.729 10.739 421.503 11.1594C422.295 11.5798 422.979 12.1646 423.555 12.914C424.131 13.6634 424.419 14.6048 424.419 15.738C424.419 16.9261 424.131 17.9953 423.555 18.9458C422.979 19.878 422.142 20.6091 421.044 21.1392C419.946 21.6692 418.64 21.9343 417.128 21.9343Z" stroke="white" stroke-width="4" mask="url(#path-1-outside-1_409_73)"/>
<path d="M432.52 7.18388V9.56917H438.461V14.1478H432.52V16.8895H439.272V21.7423H426.526V2.33106H439.272V7.18388H432.52Z" stroke="white" stroke-width="4" mask="url(#path-1-outside-1_409_73)"/>
<path d="M451.144 21.7423L447.553 14.7784H447.526V21.7423H441.531V2.33106H450.442C451.99 2.33106 453.314 2.61437 454.412 3.18099C455.51 3.72933 456.329 4.48787 456.869 5.45661C457.427 6.40706 457.706 7.48547 457.706 8.69182C457.706 9.98956 457.346 11.1411 456.626 12.1464C455.924 13.1517 454.907 13.8736 453.575 14.3123L457.733 21.7423H451.144ZM447.526 10.7207H449.902C450.478 10.7207 450.91 10.5927 451.198 10.3368C451.486 10.0627 451.63 9.64228 451.63 9.07566C451.63 8.56387 451.477 8.16176 451.171 7.86931C450.883 7.57686 450.46 7.43064 449.902 7.43064H447.526V10.7207Z" stroke="white" stroke-width="4" mask="url(#path-1-outside-1_409_73)"/>
<path d="M478.875 2.33106L472.448 21.7423H464.698L458.271 2.33106H464.644L468.587 15.6832L472.502 2.33106H478.875Z" stroke="white" stroke-width="4" mask="url(#path-1-outside-1_409_73)"/>
<path d="M486.212 2.33106V21.7423H480.217V2.33106H486.212Z" stroke="white" stroke-width="4" mask="url(#path-1-outside-1_409_73)"/>
<path d="M488.38 12.0093C488.38 10.0901 488.758 8.38109 489.514 6.88229C490.288 5.38349 491.386 4.22284 492.808 3.40033C494.231 2.55954 495.905 2.13914 497.831 2.13914C499.487 2.13914 500.964 2.45901 502.26 3.09874C503.574 3.72019 504.636 4.60668 505.446 5.7582C506.274 6.90971 506.824 8.25315 507.094 9.7885H500.775C500.487 9.14877 500.073 8.65526 499.532 8.30798C499.01 7.94242 498.407 7.75964 497.723 7.75964C496.715 7.75964 495.914 8.14348 495.32 8.91116C494.744 9.67883 494.456 10.7115 494.456 12.0093C494.456 13.307 494.744 14.3397 495.32 15.1074C495.914 15.8751 496.715 16.2589 497.723 16.2589C498.407 16.2589 499.01 16.0853 499.532 15.738C500.073 15.3724 500.487 14.8698 500.775 14.2301H507.094C506.824 15.7654 506.274 17.1089 505.446 18.2604C504.636 19.4119 503.574 20.3075 502.26 20.9472C500.964 21.5687 499.487 21.8794 497.831 21.8794C495.905 21.8794 494.231 21.4682 492.808 20.6457C491.386 19.8049 490.288 18.6351 489.514 17.1363C488.758 15.6375 488.38 13.9285 488.38 12.0093Z" stroke="white" stroke-width="4" mask="url(#path-1-outside-1_409_73)"/>
<path d="M515.247 7.18388V9.56917H521.188V14.1478H515.247V16.8895H521.998V21.7423H509.252V2.33106H521.998V7.18388H515.247Z" stroke="white" stroke-width="4" mask="url(#path-1-outside-1_409_73)"/>
</svg>
