<svg width="259" height="24" viewBox="0 0 259 24" fill="none" xmlns="http://www.w3.org/2000/svg">
<mask id="path-1-outside-1_409_72" maskUnits="userSpaceOnUse" x="0" y="0" width="259.247" height="24.0229" fill="black">
<rect fill="white" width="259.247" height="24.0229"/>
<path d="M24.9761 2.35636V21.66H19.0099V12.0354L16.0672 21.66H10.9378L7.99519 12.0354V21.66H2.00191V2.35636H9.34503L13.5565 13.944L17.66 2.35636H24.9761Z"/>
<path d="M33.5388 2.35636V13.2351C33.5388 14.1258 33.7277 14.8346 34.1057 15.3618C34.5016 15.8707 35.1316 16.1252 35.9955 16.1252C36.8594 16.1252 37.4983 15.8707 37.9122 15.3618C38.3262 14.8346 38.5331 14.1258 38.5331 13.2351V2.35636H44.4994V13.2351C44.4994 15.0709 44.1215 16.6432 43.3656 17.9519C42.6097 19.2425 41.5748 20.2149 40.2609 20.8693C38.9471 21.5237 37.4803 21.8508 35.8605 21.8508C34.2407 21.8508 32.8008 21.5237 31.541 20.8693C30.2991 20.2149 29.3273 19.2425 28.6253 17.9519C27.9234 16.6614 27.5725 15.0891 27.5725 13.2351V2.35636H33.5388Z"/>
<path d="M55.0484 2.35636C57.0462 2.35636 58.792 2.76533 60.2858 3.58328C61.7976 4.40123 62.9585 5.53727 63.7684 6.99141C64.5783 8.44554 64.9832 10.0996 64.9832 11.9536C64.9832 13.7895 64.5783 15.4436 63.7684 16.9159C62.9585 18.3882 61.7976 19.5515 60.2858 20.4058C58.792 21.2419 57.0462 21.66 55.0484 21.66H47.0844V2.35636H55.0484ZM54.5085 16.2615C55.8583 16.2615 56.9292 15.8889 57.7211 15.1436C58.513 14.3984 58.9089 13.3351 58.9089 11.9536C58.9089 10.5722 58.513 9.50888 57.7211 8.76363C56.9292 8.01839 55.8583 7.64577 54.5085 7.64577H53.0776V16.2615H54.5085Z"/>
<path d="M79.4039 18.7426H73.0327L72.0878 21.66H65.7975L72.7897 2.35636H79.7009L86.666 21.66H80.3488L79.4039 18.7426ZM77.9461 14.1894L76.2183 8.81816L74.4905 14.1894H77.9461Z"/>
<path d="M105.711 2.35636V21.66H99.7173V14.1348H94.021V21.66H88.0277V2.35636H94.021V9.30893H99.7173V2.35636H105.711Z"/>
<path d="M127.492 21.66L126.169 20.4058C124.477 21.4237 122.488 21.9326 120.203 21.9326C118.655 21.9326 117.305 21.6873 116.153 21.1965C115.019 20.7057 114.146 20.015 113.534 19.1243C112.922 18.2155 112.616 17.1794 112.616 16.0161C112.616 14.9074 112.895 13.8985 113.453 12.9897C114.029 12.0627 114.884 11.2811 116.018 10.6449C115.19 9.60885 114.776 8.51825 114.776 7.37312C114.776 6.39158 115.028 5.49183 115.532 4.67388C116.054 3.85593 116.81 3.21066 117.8 2.73807C118.79 2.24729 119.969 2.00191 121.336 2.00191C122.722 2.00191 123.901 2.25638 124.873 2.76533C125.845 3.2561 126.574 3.91046 127.06 4.72841C127.546 5.54636 127.789 6.42793 127.789 7.37312H122.335C122.335 7.02776 122.236 6.77329 122.038 6.6097C121.84 6.42793 121.606 6.33705 121.336 6.33705C121.048 6.33705 120.796 6.42793 120.58 6.6097C120.383 6.77329 120.284 7.00958 120.284 7.31859C120.284 7.90024 120.679 8.57278 121.471 9.3362L125.818 13.5895C126.07 13.0988 126.295 12.5444 126.493 11.9264L126.574 11.681H132.378L132.108 12.3899C131.424 14.2075 130.578 15.8253 129.57 17.2431L134.079 21.66H127.492ZM120.634 17.1613C121.282 17.1613 121.885 17.0613 122.443 16.8613L119.258 13.8622C118.952 14.0803 118.718 14.3348 118.556 14.6256C118.412 14.8983 118.34 15.18 118.34 15.4708C118.34 15.9434 118.538 16.3433 118.934 16.6705C119.348 16.9977 119.915 17.1613 120.634 17.1613Z"/>
<path d="M155.649 8.98175C155.649 10.1996 155.37 11.3084 154.812 12.3081C154.254 13.2896 153.426 14.0712 152.328 14.6529C151.248 15.2345 149.934 15.5254 148.387 15.5254H146.011V21.66H140.018V2.35636H148.387C150.726 2.35636 152.517 2.95619 153.759 4.15585C155.019 5.35551 155.649 6.96414 155.649 8.98175ZM147.712 10.754C148.953 10.754 149.574 10.1632 149.574 8.98175C149.574 7.80027 148.953 7.20953 147.712 7.20953H146.011V10.754H147.712Z"/>
<path d="M167.16 21.66L163.57 14.7347H163.543V21.66H157.55V2.35636H166.459C168.006 2.35636 169.329 2.63809 170.427 3.20157C171.525 3.74687 172.344 4.5012 172.884 5.46457C173.442 6.40975 173.721 7.48218 173.721 8.68184C173.721 9.97238 173.361 11.1175 172.641 12.1172C171.939 13.1169 170.922 13.8349 169.59 14.2712L173.748 21.66H167.16ZM163.543 10.6994H165.919C166.494 10.6994 166.926 10.5722 167.214 10.3177C167.502 10.0451 167.646 9.62703 167.646 9.06355C167.646 8.5546 167.493 8.15472 167.187 7.86389C166.899 7.57306 166.476 7.42765 165.919 7.42765H163.543V10.6994Z"/>
<path d="M187.892 18.7426H181.521L180.576 21.66H174.285L181.278 2.35636H188.189L195.154 21.66H188.837L187.892 18.7426ZM186.434 14.1894L184.706 8.81816L182.978 14.1894H186.434Z"/>
<path d="M208.07 21.66L202.509 13.2896V21.66H196.516V2.35636H202.509V10.4813L207.989 2.35636H214.765L208.178 11.5992L215.197 21.66H208.07Z"/>
<path d="M231.905 2.35636V7.155H226.83V21.66H220.837V7.155H215.815V2.35636H231.905Z"/>
<path d="M239.524 2.35636V21.66H233.531V2.35636H239.524Z"/>
<path d="M249.709 21.8508C247.423 21.8508 245.533 21.3146 244.04 20.2422C242.564 19.1516 241.763 17.5611 241.637 15.4708H248.008C248.098 16.5796 248.584 17.134 249.466 17.134C249.79 17.134 250.06 17.0613 250.276 16.9159C250.51 16.7523 250.627 16.5069 250.627 16.1797C250.627 15.7253 250.384 15.3618 249.898 15.0891C249.412 14.7983 248.656 14.4711 247.63 14.1076C246.406 13.6713 245.389 13.2442 244.58 12.8261C243.788 12.4081 243.104 11.7991 242.528 10.9994C241.952 10.1996 241.673 9.17261 241.691 7.91842C241.691 6.66423 242.006 5.60089 242.636 4.72841C243.284 3.83775 244.157 3.16522 245.254 2.7108C246.37 2.25638 247.621 2.02917 249.007 2.02917C251.347 2.02917 253.2 2.57447 254.568 3.66508C255.954 4.75568 256.683 6.29161 256.755 8.27286H250.303C250.285 7.72756 250.15 7.33676 249.898 7.10047C249.646 6.86417 249.34 6.74602 248.98 6.74602C248.728 6.74602 248.521 6.83691 248.359 7.01867C248.197 7.18226 248.116 7.41856 248.116 7.72756C248.116 8.1638 248.35 8.52734 248.818 8.81816C249.304 9.09081 250.069 9.42708 251.113 9.82697C252.319 10.2814 253.308 10.7176 254.082 11.1357C254.874 11.5538 255.558 12.1354 256.134 12.8807C256.71 13.6259 256.998 14.562 256.998 15.6889C256.998 16.8704 256.71 17.9338 256.134 18.879C255.558 19.806 254.721 20.533 253.623 21.0602C252.526 21.5873 251.221 21.8508 249.709 21.8508Z"/>
</mask>
<path d="M24.9761 2.35636V21.66H19.0099V12.0354L16.0672 21.66H10.9378L7.99519 12.0354V21.66H2.00191V2.35636H9.34503L13.5565 13.944L17.66 2.35636H24.9761Z" fill="#26413C"/>
<path d="M33.5388 2.35636V13.2351C33.5388 14.1258 33.7277 14.8346 34.1057 15.3618C34.5016 15.8707 35.1316 16.1252 35.9955 16.1252C36.8594 16.1252 37.4983 15.8707 37.9122 15.3618C38.3262 14.8346 38.5331 14.1258 38.5331 13.2351V2.35636H44.4994V13.2351C44.4994 15.0709 44.1215 16.6432 43.3656 17.9519C42.6097 19.2425 41.5748 20.2149 40.2609 20.8693C38.9471 21.5237 37.4803 21.8508 35.8605 21.8508C34.2407 21.8508 32.8008 21.5237 31.541 20.8693C30.2991 20.2149 29.3273 19.2425 28.6253 17.9519C27.9234 16.6614 27.5725 15.0891 27.5725 13.2351V2.35636H33.5388Z" fill="#26413C"/>
<path d="M55.0484 2.35636C57.0462 2.35636 58.792 2.76533 60.2858 3.58328C61.7976 4.40123 62.9585 5.53727 63.7684 6.99141C64.5783 8.44554 64.9832 10.0996 64.9832 11.9536C64.9832 13.7895 64.5783 15.4436 63.7684 16.9159C62.9585 18.3882 61.7976 19.5515 60.2858 20.4058C58.792 21.2419 57.0462 21.66 55.0484 21.66H47.0844V2.35636H55.0484ZM54.5085 16.2615C55.8583 16.2615 56.9292 15.8889 57.7211 15.1436C58.513 14.3984 58.9089 13.3351 58.9089 11.9536C58.9089 10.5722 58.513 9.50888 57.7211 8.76363C56.9292 8.01839 55.8583 7.64577 54.5085 7.64577H53.0776V16.2615H54.5085Z" fill="#26413C"/>
<path d="M79.4039 18.7426H73.0327L72.0878 21.66H65.7975L72.7897 2.35636H79.7009L86.666 21.66H80.3488L79.4039 18.7426ZM77.9461 14.1894L76.2183 8.81816L74.4905 14.1894H77.9461Z" fill="#26413C"/>
<path d="M105.711 2.35636V21.66H99.7173V14.1348H94.021V21.66H88.0277V2.35636H94.021V9.30893H99.7173V2.35636H105.711Z" fill="#26413C"/>
<path d="M127.492 21.66L126.169 20.4058C124.477 21.4237 122.488 21.9326 120.203 21.9326C118.655 21.9326 117.305 21.6873 116.153 21.1965C115.019 20.7057 114.146 20.015 113.534 19.1243C112.922 18.2155 112.616 17.1794 112.616 16.0161C112.616 14.9074 112.895 13.8985 113.453 12.9897C114.029 12.0627 114.884 11.2811 116.018 10.6449C115.19 9.60885 114.776 8.51825 114.776 7.37312C114.776 6.39158 115.028 5.49183 115.532 4.67388C116.054 3.85593 116.81 3.21066 117.8 2.73807C118.79 2.24729 119.969 2.00191 121.336 2.00191C122.722 2.00191 123.901 2.25638 124.873 2.76533C125.845 3.2561 126.574 3.91046 127.06 4.72841C127.546 5.54636 127.789 6.42793 127.789 7.37312H122.335C122.335 7.02776 122.236 6.77329 122.038 6.6097C121.84 6.42793 121.606 6.33705 121.336 6.33705C121.048 6.33705 120.796 6.42793 120.58 6.6097C120.383 6.77329 120.284 7.00958 120.284 7.31859C120.284 7.90024 120.679 8.57278 121.471 9.3362L125.818 13.5895C126.07 13.0988 126.295 12.5444 126.493 11.9264L126.574 11.681H132.378L132.108 12.3899C131.424 14.2075 130.578 15.8253 129.57 17.2431L134.079 21.66H127.492ZM120.634 17.1613C121.282 17.1613 121.885 17.0613 122.443 16.8613L119.258 13.8622C118.952 14.0803 118.718 14.3348 118.556 14.6256C118.412 14.8983 118.34 15.18 118.34 15.4708C118.34 15.9434 118.538 16.3433 118.934 16.6705C119.348 16.9977 119.915 17.1613 120.634 17.1613Z" fill="#26413C"/>
<path d="M155.649 8.98175C155.649 10.1996 155.37 11.3084 154.812 12.3081C154.254 13.2896 153.426 14.0712 152.328 14.6529C151.248 15.2345 149.934 15.5254 148.387 15.5254H146.011V21.66H140.018V2.35636H148.387C150.726 2.35636 152.517 2.95619 153.759 4.15585C155.019 5.35551 155.649 6.96414 155.649 8.98175ZM147.712 10.754C148.953 10.754 149.574 10.1632 149.574 8.98175C149.574 7.80027 148.953 7.20953 147.712 7.20953H146.011V10.754H147.712Z" fill="#26413C"/>
<path d="M167.16 21.66L163.57 14.7347H163.543V21.66H157.55V2.35636H166.459C168.006 2.35636 169.329 2.63809 170.427 3.20157C171.525 3.74687 172.344 4.5012 172.884 5.46457C173.442 6.40975 173.721 7.48218 173.721 8.68184C173.721 9.97238 173.361 11.1175 172.641 12.1172C171.939 13.1169 170.922 13.8349 169.59 14.2712L173.748 21.66H167.16ZM163.543 10.6994H165.919C166.494 10.6994 166.926 10.5722 167.214 10.3177C167.502 10.0451 167.646 9.62703 167.646 9.06355C167.646 8.5546 167.493 8.15472 167.187 7.86389C166.899 7.57306 166.476 7.42765 165.919 7.42765H163.543V10.6994Z" fill="#26413C"/>
<path d="M187.892 18.7426H181.521L180.576 21.66H174.285L181.278 2.35636H188.189L195.154 21.66H188.837L187.892 18.7426ZM186.434 14.1894L184.706 8.81816L182.978 14.1894H186.434Z" fill="#26413C"/>
<path d="M208.07 21.66L202.509 13.2896V21.66H196.516V2.35636H202.509V10.4813L207.989 2.35636H214.765L208.178 11.5992L215.197 21.66H208.07Z" fill="#26413C"/>
<path d="M231.905 2.35636V7.155H226.83V21.66H220.837V7.155H215.815V2.35636H231.905Z" fill="#26413C"/>
<path d="M239.524 2.35636V21.66H233.531V2.35636H239.524Z" fill="#26413C"/>
<path d="M249.709 21.8508C247.423 21.8508 245.533 21.3146 244.04 20.2422C242.564 19.1516 241.763 17.5611 241.637 15.4708H248.008C248.098 16.5796 248.584 17.134 249.466 17.134C249.79 17.134 250.06 17.0613 250.276 16.9159C250.51 16.7523 250.627 16.5069 250.627 16.1797C250.627 15.7253 250.384 15.3618 249.898 15.0891C249.412 14.7983 248.656 14.4711 247.63 14.1076C246.406 13.6713 245.389 13.2442 244.58 12.8261C243.788 12.4081 243.104 11.7991 242.528 10.9994C241.952 10.1996 241.673 9.17261 241.691 7.91842C241.691 6.66423 242.006 5.60089 242.636 4.72841C243.284 3.83775 244.157 3.16522 245.254 2.7108C246.37 2.25638 247.621 2.02917 249.007 2.02917C251.347 2.02917 253.2 2.57447 254.568 3.66508C255.954 4.75568 256.683 6.29161 256.755 8.27286H250.303C250.285 7.72756 250.15 7.33676 249.898 7.10047C249.646 6.86417 249.34 6.74602 248.98 6.74602C248.728 6.74602 248.521 6.83691 248.359 7.01867C248.197 7.18226 248.116 7.41856 248.116 7.72756C248.116 8.1638 248.35 8.52734 248.818 8.81816C249.304 9.09081 250.069 9.42708 251.113 9.82697C252.319 10.2814 253.308 10.7176 254.082 11.1357C254.874 11.5538 255.558 12.1354 256.134 12.8807C256.71 13.6259 256.998 14.562 256.998 15.6889C256.998 16.8704 256.71 17.9338 256.134 18.879C255.558 19.806 254.721 20.533 253.623 21.0602C252.526 21.5873 251.221 21.8508 249.709 21.8508Z" fill="#26413C"/>
<path d="M24.9761 2.35636V21.66H19.0099V12.0354L16.0672 21.66H10.9378L7.99519 12.0354V21.66H2.00191V2.35636H9.34503L13.5565 13.944L17.66 2.35636H24.9761Z" stroke="white" stroke-width="4" mask="url(#path-1-outside-1_409_72)"/>
<path d="M33.5388 2.35636V13.2351C33.5388 14.1258 33.7277 14.8346 34.1057 15.3618C34.5016 15.8707 35.1316 16.1252 35.9955 16.1252C36.8594 16.1252 37.4983 15.8707 37.9122 15.3618C38.3262 14.8346 38.5331 14.1258 38.5331 13.2351V2.35636H44.4994V13.2351C44.4994 15.0709 44.1215 16.6432 43.3656 17.9519C42.6097 19.2425 41.5748 20.2149 40.2609 20.8693C38.9471 21.5237 37.4803 21.8508 35.8605 21.8508C34.2407 21.8508 32.8008 21.5237 31.541 20.8693C30.2991 20.2149 29.3273 19.2425 28.6253 17.9519C27.9234 16.6614 27.5725 15.0891 27.5725 13.2351V2.35636H33.5388Z" stroke="white" stroke-width="4" mask="url(#path-1-outside-1_409_72)"/>
<path d="M55.0484 2.35636C57.0462 2.35636 58.792 2.76533 60.2858 3.58328C61.7976 4.40123 62.9585 5.53727 63.7684 6.99141C64.5783 8.44554 64.9832 10.0996 64.9832 11.9536C64.9832 13.7895 64.5783 15.4436 63.7684 16.9159C62.9585 18.3882 61.7976 19.5515 60.2858 20.4058C58.792 21.2419 57.0462 21.66 55.0484 21.66H47.0844V2.35636H55.0484ZM54.5085 16.2615C55.8583 16.2615 56.9292 15.8889 57.7211 15.1436C58.513 14.3984 58.9089 13.3351 58.9089 11.9536C58.9089 10.5722 58.513 9.50888 57.7211 8.76363C56.9292 8.01839 55.8583 7.64577 54.5085 7.64577H53.0776V16.2615H54.5085Z" stroke="white" stroke-width="4" mask="url(#path-1-outside-1_409_72)"/>
<path d="M79.4039 18.7426H73.0327L72.0878 21.66H65.7975L72.7897 2.35636H79.7009L86.666 21.66H80.3488L79.4039 18.7426ZM77.9461 14.1894L76.2183 8.81816L74.4905 14.1894H77.9461Z" stroke="white" stroke-width="4" mask="url(#path-1-outside-1_409_72)"/>
<path d="M105.711 2.35636V21.66H99.7173V14.1348H94.021V21.66H88.0277V2.35636H94.021V9.30893H99.7173V2.35636H105.711Z" stroke="white" stroke-width="4" mask="url(#path-1-outside-1_409_72)"/>
<path d="M127.492 21.66L126.169 20.4058C124.477 21.4237 122.488 21.9326 120.203 21.9326C118.655 21.9326 117.305 21.6873 116.153 21.1965C115.019 20.7057 114.146 20.015 113.534 19.1243C112.922 18.2155 112.616 17.1794 112.616 16.0161C112.616 14.9074 112.895 13.8985 113.453 12.9897C114.029 12.0627 114.884 11.2811 116.018 10.6449C115.19 9.60885 114.776 8.51825 114.776 7.37312C114.776 6.39158 115.028 5.49183 115.532 4.67388C116.054 3.85593 116.81 3.21066 117.8 2.73807C118.79 2.24729 119.969 2.00191 121.336 2.00191C122.722 2.00191 123.901 2.25638 124.873 2.76533C125.845 3.2561 126.574 3.91046 127.06 4.72841C127.546 5.54636 127.789 6.42793 127.789 7.37312H122.335C122.335 7.02776 122.236 6.77329 122.038 6.6097C121.84 6.42793 121.606 6.33705 121.336 6.33705C121.048 6.33705 120.796 6.42793 120.58 6.6097C120.383 6.77329 120.284 7.00958 120.284 7.31859C120.284 7.90024 120.679 8.57278 121.471 9.3362L125.818 13.5895C126.07 13.0988 126.295 12.5444 126.493 11.9264L126.574 11.681H132.378L132.108 12.3899C131.424 14.2075 130.578 15.8253 129.57 17.2431L134.079 21.66H127.492ZM120.634 17.1613C121.282 17.1613 121.885 17.0613 122.443 16.8613L119.258 13.8622C118.952 14.0803 118.718 14.3348 118.556 14.6256C118.412 14.8983 118.34 15.18 118.34 15.4708C118.34 15.9434 118.538 16.3433 118.934 16.6705C119.348 16.9977 119.915 17.1613 120.634 17.1613Z" stroke="white" stroke-width="4" mask="url(#path-1-outside-1_409_72)"/>
<path d="M155.649 8.98175C155.649 10.1996 155.37 11.3084 154.812 12.3081C154.254 13.2896 153.426 14.0712 152.328 14.6529C151.248 15.2345 149.934 15.5254 148.387 15.5254H146.011V21.66H140.018V2.35636H148.387C150.726 2.35636 152.517 2.95619 153.759 4.15585C155.019 5.35551 155.649 6.96414 155.649 8.98175ZM147.712 10.754C148.953 10.754 149.574 10.1632 149.574 8.98175C149.574 7.80027 148.953 7.20953 147.712 7.20953H146.011V10.754H147.712Z" stroke="white" stroke-width="4" mask="url(#path-1-outside-1_409_72)"/>
<path d="M167.16 21.66L163.57 14.7347H163.543V21.66H157.55V2.35636H166.459C168.006 2.35636 169.329 2.63809 170.427 3.20157C171.525 3.74687 172.344 4.5012 172.884 5.46457C173.442 6.40975 173.721 7.48218 173.721 8.68184C173.721 9.97238 173.361 11.1175 172.641 12.1172C171.939 13.1169 170.922 13.8349 169.59 14.2712L173.748 21.66H167.16ZM163.543 10.6994H165.919C166.494 10.6994 166.926 10.5722 167.214 10.3177C167.502 10.0451 167.646 9.62703 167.646 9.06355C167.646 8.5546 167.493 8.15472 167.187 7.86389C166.899 7.57306 166.476 7.42765 165.919 7.42765H163.543V10.6994Z" stroke="white" stroke-width="4" mask="url(#path-1-outside-1_409_72)"/>
<path d="M187.892 18.7426H181.521L180.576 21.66H174.285L181.278 2.35636H188.189L195.154 21.66H188.837L187.892 18.7426ZM186.434 14.1894L184.706 8.81816L182.978 14.1894H186.434Z" stroke="white" stroke-width="4" mask="url(#path-1-outside-1_409_72)"/>
<path d="M208.07 21.66L202.509 13.2896V21.66H196.516V2.35636H202.509V10.4813L207.989 2.35636H214.765L208.178 11.5992L215.197 21.66H208.07Z" stroke="white" stroke-width="4" mask="url(#path-1-outside-1_409_72)"/>
<path d="M231.905 2.35636V7.155H226.83V21.66H220.837V7.155H215.815V2.35636H231.905Z" stroke="white" stroke-width="4" mask="url(#path-1-outside-1_409_72)"/>
<path d="M239.524 2.35636V21.66H233.531V2.35636H239.524Z" stroke="white" stroke-width="4" mask="url(#path-1-outside-1_409_72)"/>
<path d="M249.709 21.8508C247.423 21.8508 245.533 21.3146 244.04 20.2422C242.564 19.1516 241.763 17.5611 241.637 15.4708H248.008C248.098 16.5796 248.584 17.134 249.466 17.134C249.79 17.134 250.06 17.0613 250.276 16.9159C250.51 16.7523 250.627 16.5069 250.627 16.1797C250.627 15.7253 250.384 15.3618 249.898 15.0891C249.412 14.7983 248.656 14.4711 247.63 14.1076C246.406 13.6713 245.389 13.2442 244.58 12.8261C243.788 12.4081 243.104 11.7991 242.528 10.9994C241.952 10.1996 241.673 9.17261 241.691 7.91842C241.691 6.66423 242.006 5.60089 242.636 4.72841C243.284 3.83775 244.157 3.16522 245.254 2.7108C246.37 2.25638 247.621 2.02917 249.007 2.02917C251.347 2.02917 253.2 2.57447 254.568 3.66508C255.954 4.75568 256.683 6.29161 256.755 8.27286H250.303C250.285 7.72756 250.15 7.33676 249.898 7.10047C249.646 6.86417 249.34 6.74602 248.98 6.74602C248.728 6.74602 248.521 6.83691 248.359 7.01867C248.197 7.18226 248.116 7.41856 248.116 7.72756C248.116 8.1638 248.35 8.52734 248.818 8.81816C249.304 9.09081 250.069 9.42708 251.113 9.82697C252.319 10.2814 253.308 10.7176 254.082 11.1357C254.874 11.5538 255.558 12.1354 256.134 12.8807C256.71 13.6259 256.998 14.562 256.998 15.6889C256.998 16.8704 256.71 17.9338 256.134 18.879C255.558 19.806 254.721 20.533 253.623 21.0602C252.526 21.5873 251.221 21.8508 249.709 21.8508Z" stroke="white" stroke-width="4" mask="url(#path-1-outside-1_409_72)"/>
</svg>
