<svg width="11" height="11" viewBox="0 0 11 11" fill="none" xmlns="http://www.w3.org/2000/svg">
<g clip-path="url(#clip0_409_53)">
<path d="M5.98456 1.68153C6.11989 1.54405 6.3034 1.46682 6.49475 1.46682C6.6861 1.46682 6.86961 1.54405 7.00493 1.68153L10.2522 4.98154C10.3875 5.11906 10.4635 5.30555 10.4635 5.5C10.4635 5.69446 10.3875 5.88095 10.2522 6.01847L7.00493 9.31847C6.86883 9.45205 6.68655 9.52597 6.49735 9.5243C6.30814 9.52263 6.12715 9.4455 5.99335 9.30954C5.85956 9.17357 5.78367 8.98964 5.78202 8.79736C5.78038 8.60509 5.85311 8.41985 5.98456 8.28154L7.93799 6.23334H1.08259C0.891208 6.23334 0.707661 6.15607 0.572331 6.01855C0.437 5.88102 0.360973 5.69449 0.360973 5.5C0.360973 5.30551 0.437 5.11898 0.572331 4.98146C0.707661 4.84393 0.891208 4.76667 1.08259 4.76667H7.93799L5.98456 2.71847C5.84928 2.58095 5.77328 2.39445 5.77328 2.2C5.77328 2.00555 5.84928 1.81905 5.98456 1.68153Z" fill="black"/>
</g>
<defs>
<clipPath id="clip0_409_53">
<rect width="10.6593" height="10.8323" fill="white" transform="scale(1.01548)"/>
</clipPath>
</defs>
</svg>
