<svg width="951" height="217" viewBox="0 0 951 217" fill="none" xmlns="http://www.w3.org/2000/svg">
<path d="M32.1763 31.4804C30.441 29.7363 28.3742 28.3536 26.0962 27.4126C23.8182 26.4717 21.3747 25.9916 18.9083 26.0001C8.57403 26.0001 0.151418 34.3806 0.151418 44.6632C0.151418 47.9589 1.02207 51.1604 2.64981 53.9853L0 63.6652L9.9368 61.0663C12.6812 62.5541 15.7664 63.345 18.9083 63.345C29.2426 63.345 37.6652 54.9646 37.6652 44.682C37.6652 39.6914 35.7157 35.0021 32.1763 31.4804ZM18.9083 60.1812C16.1071 60.1812 13.3626 59.4279 10.9589 58.0154L10.391 57.6764L4.48575 59.2207L6.05671 53.4956L5.67817 52.9118C4.12187 50.439 3.2955 47.5808 3.29334 44.6632C3.29334 36.1132 10.2964 29.1451 18.8894 29.1451C23.0534 29.1451 26.9713 30.7647 29.905 33.7026C31.3577 35.1414 32.5088 36.8527 33.2919 38.7374C34.0749 40.6221 34.4741 42.6426 34.4665 44.682C34.5043 53.232 27.5013 60.1812 18.9083 60.1812ZM27.4634 48.5803C26.9902 48.3543 24.6811 47.2244 24.2647 47.0549C23.8294 46.9042 23.5265 46.8289 23.2048 47.2809C22.883 47.7517 21.9934 48.8063 21.7285 49.1076C21.4635 49.4278 21.1796 49.4655 20.7064 49.2206C20.2332 48.9946 18.719 48.4862 16.9399 46.9042C15.5393 45.6613 14.6118 44.1358 14.3279 43.665C14.0629 43.1942 14.2901 42.9494 14.5361 42.7046C14.7443 42.4974 15.0093 42.1584 15.2364 41.8948C15.4635 41.6311 15.5582 41.424 15.7096 41.1226C15.861 40.8025 15.7853 40.5388 15.6717 40.3128C15.5582 40.0869 14.6118 37.7893 14.2333 36.8477C13.8547 35.9437 13.4573 36.0567 13.1734 36.0379H12.2648C11.9431 36.0379 11.451 36.1509 11.0156 36.6217C10.5992 37.0925 9.38791 38.2224 9.38791 40.52C9.38791 42.8176 11.0724 45.0398 11.2996 45.3411C11.5267 45.6613 14.6118 50.3694 19.3058 52.3845C20.4225 52.8741 21.2931 53.1566 21.9745 53.3638C23.0912 53.7216 24.1133 53.6651 24.9272 53.5521C25.8357 53.4203 27.7095 52.4222 28.088 51.3299C28.4855 50.2376 28.4855 49.3148 28.353 49.1076C28.2205 48.9005 27.9366 48.8063 27.4634 48.5803Z" fill="white"/>
<path d="M62.1059 45.1498C62.7534 41.4988 64.0931 38.5937 66.1249 36.4343C68.1567 34.2749 70.8695 33.1952 74.2633 33.1952C77.0766 33.1952 79.153 33.9521 80.4927 35.4659C81.8547 36.9574 82.5357 39.0278 82.5357 41.6769C82.5357 42.8123 82.424 43.9699 82.2008 45.1498C81.5533 48.8008 80.2136 51.7171 78.1818 53.8987C76.15 56.0581 73.4372 57.1378 70.0434 57.1378C67.2301 57.1378 65.1425 56.3921 63.7805 54.9005C62.4408 53.3867 61.771 51.2941 61.771 48.6227C61.771 47.6877 61.8826 46.53 62.1059 45.1498ZM74.8661 45.1498C75.0448 44.2593 75.1341 43.4579 75.1341 42.7455C75.1341 41.0536 74.4308 40.2077 73.0241 40.2077C71.9077 40.2077 71.0928 40.6418 70.5792 41.51C70.088 42.3559 69.6973 43.5692 69.407 45.1498C69.2284 46.0848 69.1391 46.8862 69.1391 47.5541C69.1391 48.3778 69.2954 49.0122 69.608 49.4575C69.9429 49.9027 70.5011 50.1253 71.2826 50.1253C72.3766 50.1253 73.1692 49.6912 73.6605 48.823C74.174 47.9548 74.5759 46.7304 74.8661 45.1498Z" fill="white"/>
<path d="M88.4338 43.8475C87.0718 42.9793 86.3909 41.7103 86.3909 40.0407C86.3909 39.64 86.4243 39.2281 86.4913 38.8052C86.6923 37.6921 87.2058 36.6235 88.0319 35.5994C88.8804 34.5531 90.0303 33.696 91.4816 33.0282C92.9328 32.3603 94.6186 32.0264 96.5388 32.0264C98.2803 32.0264 99.7316 32.3047 100.893 32.8612C102.054 33.3955 102.902 34.1079 103.438 34.9984C103.996 35.8666 104.275 36.8016 104.275 37.8034C104.275 38.1373 104.242 38.4712 104.175 38.8052C103.773 41.0759 102.523 42.7566 100.424 43.8475C102.076 44.9161 102.902 46.4187 102.902 48.3555C102.902 48.8453 102.857 49.3128 102.768 49.758C102.478 51.4499 101.797 52.8858 100.725 54.0657C99.6535 55.2456 98.3473 56.1361 96.8067 56.7371C95.2884 57.3382 93.6808 57.6387 91.9839 57.6387C89.6395 57.6387 87.697 57.0822 86.1564 55.9691C84.6381 54.856 83.879 53.2865 83.879 51.2607C83.879 50.7264 83.9237 50.2255 84.013 49.758C84.4818 47.1311 85.9555 45.1609 88.4338 43.8475ZM95.467 38.0371C95.0205 38.0371 94.6186 38.2263 94.2613 38.6048C93.9041 38.961 93.6697 39.4508 93.558 40.0741C93.5134 40.3412 93.491 40.5305 93.491 40.6418C93.491 41.1093 93.6027 41.4655 93.826 41.7103C94.0716 41.933 94.3841 42.0443 94.7637 42.0443C95.2103 42.0443 95.601 41.8773 95.9359 41.5434C96.2932 41.2094 96.5276 40.7197 96.6392 40.0741C96.6839 39.8069 96.7062 39.6177 96.7062 39.5064C96.7062 39.0389 96.5946 38.6827 96.3713 38.4378C96.148 38.1707 95.8466 38.0371 95.467 38.0371ZM93.8594 47.0198C93.1003 47.0198 92.4751 47.2869 91.9839 47.8212C91.4927 48.3555 91.2471 49.0122 91.2471 49.7914C91.2471 50.3257 91.3922 50.7598 91.6825 51.0937C91.9951 51.4277 92.4528 51.5946 93.0556 51.5946C93.8371 51.5946 94.4623 51.3275 94.9312 50.7932C95.4224 50.2589 95.668 49.6022 95.668 48.823C95.668 48.2665 95.5117 47.8324 95.1991 47.5207C94.8865 47.1868 94.44 47.0198 93.8594 47.0198Z" fill="white"/>
<path d="M125.818 39.3728H116.105L115.603 42.1778C116.675 41.3541 118.059 40.9423 119.756 40.9423C121.676 40.9423 123.116 41.4988 124.076 42.6119C125.036 43.7028 125.516 45.1387 125.516 46.9196C125.516 47.4762 125.461 48.1106 125.349 48.823C124.858 51.4944 123.73 53.5759 121.966 55.0675C120.202 56.5368 118.003 57.2714 115.369 57.2714C112.846 57.2714 110.892 56.7149 109.508 55.6018C108.123 54.4664 107.431 52.9637 107.431 51.0937C107.431 50.6262 107.487 50.0808 107.599 49.4575H114.833L114.799 49.758C114.799 50.0697 114.9 50.348 115.101 50.5928C115.302 50.8155 115.648 50.9268 116.139 50.9268C116.697 50.9268 117.144 50.7264 117.478 50.3257C117.813 49.925 118.048 49.3796 118.182 48.6894C118.226 48.4223 118.249 48.2331 118.249 48.1218C118.249 47.6543 118.115 47.3092 117.847 47.0866C117.601 46.8417 117.244 46.7193 116.775 46.7193C116.306 46.7193 115.927 46.8306 115.636 47.0532C115.369 47.2758 115.201 47.5318 115.134 47.8212H107.9L110.546 32.8612H126.957L125.818 39.3728Z" fill="white"/>
<path d="M128.469 40.575L129.708 33.6293H141.062L136.875 57.2714H129.072L132.019 40.575H128.469Z" fill="white"/>
<path d="M157.419 42.8123L156.314 48.9232H140.707L141.812 42.8123H157.419Z" fill="white"/>
<path d="M177.955 38.7718L166.501 57.2714H158.865L170.219 39.6734H161.645L162.784 33.3287H178.927L177.955 38.7718Z" fill="white"/>
<path d="M179.487 40.5082C180.022 37.859 181.15 35.8332 182.869 34.4307C184.611 33.0282 186.843 32.3269 189.567 32.3269C191.89 32.3269 193.665 32.839 194.893 33.863C196.143 34.8871 196.768 36.2339 196.768 37.9036C196.768 38.282 196.735 38.6938 196.668 39.1391C196.4 40.6974 195.819 41.9218 194.926 42.8123C194.033 43.7028 193.095 44.2927 192.113 44.5821V44.7157C194.189 45.5394 195.228 46.9864 195.228 49.0568C195.228 49.4352 195.194 49.8471 195.127 50.2923C194.747 52.474 193.698 54.2215 191.979 55.535C190.26 56.8484 188.127 57.5052 185.582 57.5052C183.037 57.5052 181.061 56.982 179.654 55.9357C178.247 54.8671 177.544 53.1975 177.544 50.9268C177.544 50.3925 177.6 49.7358 177.711 48.9566H184.946C184.856 49.3128 184.812 49.6578 184.812 49.9918C184.812 50.9268 185.314 51.3943 186.319 51.3943C186.788 51.3943 187.19 51.205 187.524 50.8266C187.882 50.4259 188.06 49.925 188.06 49.3239C188.06 48.8342 187.871 48.4668 187.491 48.2219C187.111 47.9771 186.497 47.8546 185.649 47.8546H184.41L185.482 41.8773H186.687C188.183 41.9663 189.043 41.3653 189.266 40.0741C189.288 39.9628 189.3 39.7958 189.3 39.5732C189.3 38.8163 188.976 38.4378 188.328 38.4378C187.837 38.4378 187.469 38.6271 187.223 39.0055C187 39.384 186.832 39.8849 186.721 40.5082H179.487Z" fill="white"/>
<path d="M200.092 40.5082C200.627 37.859 201.755 35.8332 203.474 34.4307C205.216 33.0282 207.449 32.3269 210.173 32.3269C212.495 32.3269 214.27 32.839 215.498 33.863C216.748 34.8871 217.373 36.2339 217.373 37.9036C217.373 38.282 217.34 38.6938 217.273 39.1391C217.005 40.6974 216.424 41.9218 215.531 42.8123C214.638 43.7028 213.7 44.2927 212.718 44.5821V44.7157C214.794 45.5394 215.833 46.9864 215.833 49.0568C215.833 49.4352 215.799 49.8471 215.732 50.2923C215.353 52.474 214.303 54.2215 212.584 55.535C210.865 56.8484 208.732 57.5052 206.187 57.5052C203.642 57.5052 201.666 56.982 200.259 55.9357C198.852 54.8671 198.149 53.1975 198.149 50.9268C198.149 50.3925 198.205 49.7358 198.317 48.9566H205.551C205.461 49.3128 205.417 49.6578 205.417 49.9918C205.417 50.9268 205.919 51.3943 206.924 51.3943C207.393 51.3943 207.795 51.205 208.13 50.8266C208.487 50.4259 208.665 49.925 208.665 49.3239C208.665 48.8342 208.476 48.4668 208.096 48.2219C207.716 47.9771 207.102 47.8546 206.254 47.8546H205.015L206.087 41.8773H207.292C208.788 41.9663 209.648 41.3653 209.871 40.0741C209.893 39.9628 209.905 39.7958 209.905 39.5732C209.905 38.8163 209.581 38.4378 208.933 38.4378C208.442 38.4378 208.074 38.6271 207.828 39.0055C207.605 39.384 207.437 39.8849 207.326 40.5082H200.092Z" fill="white"/>
<path d="M226.055 49.6578C226.078 50.3257 226.2 50.8155 226.424 51.1271C226.669 51.4388 227.06 51.5946 227.596 51.5946C228.422 51.5946 229.036 51.1828 229.438 50.3591C229.84 49.5131 230.208 48.1663 230.543 46.3186C230.03 46.9419 229.36 47.4317 228.534 47.7878C227.73 48.144 226.848 48.3221 225.888 48.3221C224.057 48.3221 222.606 47.8435 221.534 46.8862C220.485 45.9067 219.96 44.4819 219.96 42.6119C219.96 41.9886 220.027 41.3319 220.161 40.6418C220.607 38.1262 221.735 36.1337 223.543 34.6644C225.352 33.1729 227.585 32.4271 230.242 32.4271C233.01 32.4271 234.986 33.0838 236.17 34.3973C237.353 35.6885 237.945 37.5362 237.945 39.9405C237.945 41.1872 237.8 42.6565 237.509 44.3484C236.728 48.7117 235.489 51.9953 233.792 54.1993C232.095 56.4032 229.684 57.5052 226.558 57.5052C224.883 57.5052 223.476 57.1935 222.338 56.5702C221.221 55.9468 220.395 55.112 219.859 54.0657C219.324 53.0194 219.056 51.8729 219.056 50.6262C219.056 50.4259 219.078 50.1031 219.123 49.6578H226.055ZM228.735 42.6453C229.404 42.6453 229.963 42.4339 230.409 42.0109C230.856 41.5879 231.079 40.998 231.079 40.2411C231.079 39.7513 230.934 39.384 230.644 39.1391C230.353 38.8942 229.94 38.7718 229.404 38.7718C228.779 38.7718 228.266 38.9387 227.864 39.2727C227.462 39.5843 227.205 40.0741 227.094 40.7419C227.071 40.8533 227.06 40.998 227.06 41.1761C227.06 41.6436 227.205 42.0109 227.495 42.278C227.808 42.5229 228.221 42.6453 228.735 42.6453Z" fill="white"/>
<path d="M255.048 42.8123L253.943 48.9232H238.336L239.441 42.8123H255.048Z" fill="white"/>
<path d="M275.584 38.7718L264.13 57.2714H256.494L267.848 39.6734H259.274L260.413 33.3287H276.555L275.584 38.7718Z" fill="white"/>
<path d="M295.368 39.3728H285.656L285.153 42.1778C286.225 41.3541 287.609 40.9423 289.306 40.9423C291.226 40.9423 292.667 41.4988 293.627 42.6119C294.587 43.7028 295.067 45.1387 295.067 46.9196C295.067 47.4762 295.011 48.1106 294.899 48.823C294.408 51.4944 293.281 53.5759 291.517 55.0675C289.753 56.5368 287.554 57.2714 284.919 57.2714C282.396 57.2714 280.442 56.7149 279.058 55.6018C277.674 54.4664 276.981 52.9637 276.981 51.0937C276.981 50.6262 277.037 50.0808 277.149 49.4575H284.383L284.349 49.758C284.349 50.0697 284.45 50.348 284.651 50.5928C284.852 50.8155 285.198 50.9268 285.689 50.9268C286.247 50.9268 286.694 50.7264 287.029 50.3257C287.364 49.925 287.598 49.3796 287.732 48.6894C287.777 48.4223 287.799 48.2331 287.799 48.1218C287.799 47.6543 287.665 47.3092 287.397 47.0866C287.152 46.8417 286.794 46.7193 286.325 46.7193C285.857 46.7193 285.477 46.8306 285.187 47.0532C284.919 47.2758 284.751 47.5318 284.684 47.8212H277.45L280.096 32.8612H296.507L295.368 39.3728Z" fill="white"/>
<path d="M302.105 43.8475C300.743 42.9793 300.062 41.7103 300.062 40.0407C300.062 39.64 300.096 39.2281 300.163 38.8052C300.364 37.6921 300.877 36.6235 301.703 35.5994C302.552 34.5531 303.702 33.696 305.153 33.0282C306.604 32.3603 308.29 32.0264 310.21 32.0264C311.952 32.0264 313.403 32.3047 314.564 32.8612C315.725 33.3955 316.573 34.1079 317.109 34.9984C317.668 35.8666 317.947 36.8016 317.947 37.8034C317.947 38.1373 317.913 38.4712 317.846 38.8052C317.444 41.0759 316.194 42.7566 314.095 43.8475C315.747 44.9161 316.573 46.4187 316.573 48.3555C316.573 48.8453 316.529 49.3128 316.439 49.758C316.149 51.4499 315.468 52.8858 314.397 54.0657C313.325 55.2456 312.019 56.1361 310.478 56.7371C308.96 57.3382 307.352 57.6387 305.655 57.6387C303.311 57.6387 301.368 57.0822 299.828 55.9691C298.309 54.856 297.55 53.2865 297.55 51.2607C297.55 50.7264 297.595 50.2255 297.684 49.758C298.153 47.1311 299.627 45.1609 302.105 43.8475ZM309.138 38.0371C308.692 38.0371 308.29 38.2263 307.933 38.6048C307.575 38.961 307.341 39.4508 307.229 40.0741C307.185 40.3412 307.162 40.5305 307.162 40.6418C307.162 41.1093 307.274 41.4655 307.497 41.7103C307.743 41.933 308.055 42.0443 308.435 42.0443C308.882 42.0443 309.272 41.8773 309.607 41.5434C309.965 41.2094 310.199 40.7197 310.311 40.0741C310.355 39.8069 310.378 39.6177 310.378 39.5064C310.378 39.0389 310.266 38.6827 310.043 38.4378C309.819 38.1707 309.518 38.0371 309.138 38.0371ZM307.531 47.0198C306.772 47.0198 306.146 47.2869 305.655 47.8212C305.164 48.3555 304.918 49.0122 304.918 49.7914C304.918 50.3257 305.064 50.7598 305.354 51.0937C305.666 51.4277 306.124 51.5946 306.727 51.5946C307.508 51.5946 308.134 51.3275 308.603 50.7932C309.094 50.2589 309.339 49.6022 309.339 48.823C309.339 48.2665 309.183 47.8324 308.87 47.5207C308.558 47.1868 308.111 47.0198 307.531 47.0198Z" fill="white"/>
<path d="M331.987 40.2744C331.987 39.6066 331.875 39.1168 331.652 38.8052C331.451 38.4935 331.083 38.3377 330.547 38.3377C329.699 38.3377 329.051 38.7718 328.604 39.64C328.18 40.4859 327.812 41.8105 327.499 43.6137C328.035 42.9904 328.705 42.5006 329.509 42.1444C330.335 41.7883 331.228 41.6102 332.188 41.6102C334.019 41.6102 335.459 42.0999 336.508 43.0794C337.558 44.0367 338.083 45.4392 338.083 47.2869C338.083 47.9103 338.016 48.5781 337.882 49.2905C337.435 51.8061 336.307 53.8097 334.499 55.3012C332.69 56.7705 330.458 57.5052 327.801 57.5052C325.054 57.5052 323.09 56.8373 321.906 55.5016C320.745 54.1659 320.165 52.2736 320.165 49.8248C320.165 48.4668 320.321 46.9419 320.634 45.25C321.169 42.2224 321.906 39.7736 322.844 37.9036C323.804 36.0335 325.032 34.6533 326.528 33.7628C328.046 32.8724 329.888 32.4271 332.054 32.4271C334.443 32.4271 336.196 33.0505 337.312 34.2971C338.429 35.5215 338.987 37.091 338.987 39.0055C338.987 39.5621 338.964 39.985 338.92 40.2744H331.987ZM329.341 47.2869C328.671 47.2869 328.113 47.4984 327.667 47.9214C327.22 48.3444 326.997 48.9343 326.997 49.6912C326.997 50.181 327.142 50.5483 327.432 50.7932C327.723 51.0381 328.136 51.1605 328.671 51.1605C329.297 51.1605 329.81 51.0047 330.212 50.693C330.614 50.3591 330.871 49.8582 330.982 49.1903C331.005 49.1013 331.016 48.9677 331.016 48.7896C331.016 48.2999 330.86 47.9325 330.547 47.6877C330.257 47.4205 329.855 47.2869 329.341 47.2869Z" fill="white"/>
<path d="M26.4439 90.0308H11.2194C8.24456 90.0343 5.39261 91.2177 3.28927 93.3214C1.18594 95.4251 0.00299575 98.2773 0 101.252V116.477C0.00349593 119.451 1.18692 122.303 3.29061 124.407C5.3943 126.51 8.24645 127.693 11.2213 127.696H26.4458C29.4206 127.693 32.2726 126.509 34.3759 124.405C36.4793 122.302 37.6622 119.45 37.6652 116.475V101.25C37.6617 98.2754 36.4783 95.4234 34.3746 93.3201C32.2709 91.2168 29.4187 90.0338 26.4439 90.0308ZM33.877 116.475C33.877 117.451 33.6847 118.417 33.3112 119.319C32.9376 120.221 32.3901 121.04 31.6999 121.731C31.0097 122.421 30.1903 122.968 29.2884 123.342C28.3866 123.716 27.42 123.908 26.4439 123.908H11.2194C9.24834 123.907 7.3582 123.124 5.96464 121.73C4.57108 120.336 3.78821 118.446 3.78821 116.475V101.25C3.78871 99.2792 4.57206 97.389 5.96597 95.9955C7.35988 94.6019 9.25022 93.819 11.2213 93.819H26.4458C28.4169 93.8195 30.307 94.6029 31.7006 95.9968C33.0941 97.3907 33.877 99.2811 33.877 101.252V116.475Z" fill="white"/>
<path d="M18.8317 99.1221C16.2498 99.1261 13.7748 100.154 11.9493 101.98C10.1238 103.805 9.09675 106.281 9.09326 108.862C9.09625 111.445 10.1234 113.921 11.9493 115.747C13.7753 117.574 16.251 118.601 18.8336 118.605C21.4164 118.602 23.8927 117.574 25.719 115.748C27.5454 113.922 28.5728 111.445 28.5758 108.862C28.5718 106.28 27.5437 103.804 25.717 101.979C23.8904 100.153 21.4142 99.1265 18.8317 99.124V99.1221ZM18.8317 114.816C17.2531 114.816 15.7391 114.189 14.6229 113.073C13.5067 111.957 12.8796 110.443 12.8796 108.864C12.8796 107.286 13.5067 105.772 14.6229 104.656C15.7391 103.539 17.2531 102.912 18.8317 102.912C20.4103 102.912 21.9242 103.539 23.0405 104.656C24.1567 105.772 24.7838 107.286 24.7838 108.864C24.7838 110.443 24.1567 111.957 23.0405 113.073C21.9242 114.189 20.4103 114.816 18.8317 114.816Z" fill="white"/>
<path d="M28.5927 101.529C29.8815 101.529 30.9264 100.485 30.9264 99.1957C30.9264 97.9068 29.8815 96.862 28.5927 96.862C27.3038 96.862 26.259 97.9068 26.259 99.1957C26.259 100.485 27.3038 101.529 28.5927 101.529Z" fill="white"/>
<path d="M77.7223 96.7665C79.9495 96.7665 81.919 97.1989 83.6309 98.0636C85.3427 98.9283 86.6588 100.142 87.5791 101.706C88.5178 103.252 88.9872 105.027 88.9872 107.032C88.9872 108.688 88.6927 110.188 88.1037 111.531C87.5147 112.855 86.6496 113.904 85.5083 114.677C84.3671 115.449 82.9958 115.836 81.3945 115.836C80.3821 115.836 79.517 115.652 78.7991 115.284C78.0997 114.916 77.5935 114.391 77.2806 113.711C76.8204 114.428 76.2038 114.98 75.4307 115.366C74.676 115.734 73.8109 115.918 72.8353 115.918C71.4917 115.918 70.4425 115.532 69.6878 114.759C68.9331 113.987 68.5558 112.901 68.5558 111.503C68.5558 110.197 68.8135 108.964 69.3289 107.805C69.8443 106.646 70.5621 105.717 71.4824 105.018C72.4028 104.3 73.4336 103.942 74.5748 103.942C75.3294 103.942 75.9553 104.098 76.4523 104.411C76.9676 104.723 77.3174 105.147 77.5014 105.68L77.7775 104.08H82.5265L81.4497 110.178C81.3945 110.418 81.3668 110.647 81.3668 110.868C81.3668 111.567 81.6614 111.917 82.2504 111.917C82.9866 111.917 83.5388 111.475 83.907 110.592C84.2935 109.691 84.4868 108.559 84.4868 107.198C84.4868 105.929 84.1831 104.815 83.5756 103.859C82.9866 102.884 82.1399 102.129 81.0355 101.596C79.9495 101.062 78.6703 100.796 77.1977 100.796C75.2098 100.796 73.3875 101.283 71.7309 102.258C70.0927 103.215 68.7951 104.521 67.8379 106.177C66.8992 107.814 66.4298 109.599 66.4298 111.531C66.4298 113.628 67.0372 115.293 68.2521 116.525C69.4669 117.758 71.1327 118.374 73.2495 118.374C75.127 118.374 76.8388 118.043 78.385 117.381L79.4341 121.217C77.5198 122.063 75.3663 122.486 72.9734 122.486C70.783 122.486 68.8595 122.054 67.2029 121.189C65.5463 120.325 64.267 119.092 63.3651 117.491C62.4632 115.909 62.0122 114.069 62.0122 111.972C62.0122 109.047 62.7025 106.434 64.083 104.135C65.4635 101.817 67.3501 100.014 69.743 98.7259C72.1359 97.4197 74.7957 96.7665 77.7223 96.7665ZM74.8509 111.669C75.311 111.669 75.7252 111.466 76.0933 111.061C76.4799 110.657 76.6731 110.151 76.6731 109.544C76.6731 109.12 76.5627 108.789 76.3418 108.55C76.1209 108.293 75.8356 108.164 75.4859 108.164C75.0073 108.164 74.584 108.375 74.2158 108.799C73.8477 109.203 73.6636 109.718 73.6636 110.344C73.6636 110.749 73.7649 111.071 73.9674 111.31C74.1882 111.549 74.4827 111.669 74.8509 111.669Z" fill="white"/>
<path d="M99.6242 102.286C100.14 101.568 100.793 101.007 101.585 100.602C102.394 100.179 103.306 99.9677 104.318 99.9677C105.882 99.9677 107.143 100.492 108.1 101.541C109.058 102.589 109.536 104.043 109.536 105.901C109.536 106.6 109.472 107.281 109.343 107.943C109.048 109.58 108.515 111.006 107.742 112.22C106.968 113.416 106.039 114.336 104.953 114.98C103.867 115.606 102.717 115.918 101.502 115.918C100.489 115.918 99.6518 115.716 98.9892 115.311C98.3449 114.888 97.894 114.318 97.6363 113.6L95.9521 123.176H89.8226L93.8813 100.161H100.011L99.6242 102.286ZM103.131 107.943C103.167 107.777 103.186 107.557 103.186 107.281C103.186 106.655 103.02 106.177 102.689 105.846C102.358 105.496 101.907 105.321 101.336 105.321C100.673 105.321 100.084 105.551 99.569 106.011C99.072 106.471 98.7499 107.115 98.6026 107.943C98.5658 108.109 98.5474 108.329 98.5474 108.605C98.5474 109.231 98.7131 109.718 99.0444 110.068C99.3757 110.399 99.8267 110.565 100.397 110.565C101.06 110.565 101.64 110.335 102.137 109.875C102.652 109.415 102.983 108.771 103.131 107.943Z" fill="white"/>
<path d="M110.439 107.943C110.733 106.306 111.267 104.889 112.04 103.693C112.813 102.479 113.743 101.559 114.829 100.934C115.915 100.29 117.065 99.9677 118.28 99.9677C119.292 99.9677 120.13 100.179 120.792 100.602C121.455 101.007 121.915 101.568 122.173 102.286L122.56 100.161H128.661L125.9 115.725H119.798L120.185 113.6C119.67 114.318 119.007 114.888 118.197 115.311C117.387 115.716 116.476 115.918 115.464 115.918C113.899 115.918 112.638 115.394 111.681 114.345C110.724 113.297 110.245 111.843 110.245 109.985C110.245 109.286 110.31 108.605 110.439 107.943ZM121.179 107.943C121.216 107.777 121.234 107.557 121.234 107.281C121.234 106.655 121.069 106.177 120.737 105.846C120.406 105.496 119.955 105.321 119.384 105.321C118.722 105.321 118.133 105.551 117.617 106.011C117.12 106.471 116.798 107.115 116.651 107.943C116.614 108.109 116.596 108.329 116.596 108.605C116.596 109.231 116.761 109.718 117.093 110.068C117.424 110.399 117.875 110.565 118.446 110.565C119.108 110.565 119.688 110.335 120.185 109.875C120.7 109.415 121.032 108.771 121.179 107.943Z" fill="white"/>
<path d="M129.205 107.943C129.499 106.306 130.033 104.889 130.806 103.693C131.579 102.479 132.509 101.559 133.595 100.934C134.681 100.29 135.831 99.9677 137.046 99.9677C138.059 99.9677 138.887 100.179 139.531 100.602C140.194 101.007 140.654 101.568 140.912 102.286L142.154 95.3039H148.283L144.667 115.725H138.537L138.924 113.6C138.408 114.318 137.746 114.888 136.936 115.311C136.144 115.716 135.242 115.918 134.23 115.918C132.665 115.918 131.404 115.394 130.447 114.345C129.49 113.297 129.012 111.843 129.012 109.985C129.012 109.286 129.076 108.605 129.205 107.943ZM139.945 107.943C139.982 107.777 140 107.557 140 107.281C140 106.655 139.835 106.177 139.503 105.846C139.172 105.496 138.721 105.321 138.151 105.321C137.488 105.321 136.899 105.551 136.383 106.011C135.887 106.471 135.564 107.115 135.417 107.943C135.38 108.109 135.362 108.329 135.362 108.605C135.362 109.231 135.528 109.718 135.859 110.068C136.19 110.399 136.641 110.565 137.212 110.565C137.874 110.565 138.454 110.335 138.951 109.875C139.467 109.415 139.798 108.771 139.945 107.943Z" fill="white"/>
<path d="M147.971 107.943C148.266 106.306 148.799 104.889 149.572 103.693C150.346 102.479 151.275 101.559 152.361 100.934C153.447 100.29 154.597 99.9677 155.812 99.9677C156.825 99.9677 157.662 100.179 158.325 100.602C158.987 101.007 159.448 101.568 159.705 102.286L160.092 100.161H166.194L163.433 115.725H157.331L157.717 113.6C157.202 114.318 156.539 114.888 155.73 115.311C154.92 115.716 154.008 115.918 152.996 115.918C151.432 115.918 150.171 115.394 149.214 114.345C148.256 113.297 147.778 111.843 147.778 109.985C147.778 109.286 147.842 108.605 147.971 107.943ZM158.711 107.943C158.748 107.777 158.767 107.557 158.767 107.281C158.767 106.655 158.601 106.177 158.27 105.846C157.938 105.496 157.487 105.321 156.917 105.321C156.254 105.321 155.665 105.551 155.15 106.011C154.653 106.471 154.331 107.115 154.183 107.943C154.147 108.109 154.128 108.329 154.128 108.605C154.128 109.231 154.294 109.718 154.625 110.068C154.956 110.399 155.407 110.565 155.978 110.565C156.641 110.565 157.22 110.335 157.717 109.875C158.233 109.415 158.564 108.771 158.711 107.943Z" fill="white"/>
<path d="M174.385 109.461C174.367 109.534 174.358 109.626 174.358 109.737C174.358 110.252 174.689 110.509 175.352 110.509H176.815L175.876 115.725H173.557C169.931 115.725 168.118 114.189 168.118 111.117C168.118 110.565 168.173 109.976 168.283 109.35L169.001 105.266H167.069L167.98 100.161H169.912L170.575 96.4078H176.704L176.042 100.161H178.582L177.671 105.266H175.131L174.385 109.461Z" fill="white"/>
<path d="M178.763 107.943C179.057 106.306 179.591 104.889 180.364 103.693C181.137 102.479 182.067 101.559 183.153 100.934C184.239 100.29 185.389 99.9677 186.604 99.9677C187.616 99.9677 188.454 100.179 189.117 100.602C189.779 101.007 190.239 101.568 190.497 102.286L190.884 100.161H196.985L194.224 115.725H188.123L188.509 113.6C187.994 114.318 187.331 114.888 186.521 115.311C185.711 115.716 184.8 115.918 183.788 115.918C182.223 115.918 180.962 115.394 180.005 114.345C179.048 113.297 178.569 111.843 178.569 109.985C178.569 109.286 178.634 108.605 178.763 107.943ZM189.503 107.943C189.54 107.777 189.558 107.557 189.558 107.281C189.558 106.655 189.393 106.177 189.061 105.846C188.73 105.496 188.279 105.321 187.708 105.321C187.046 105.321 186.457 105.551 185.941 106.011C185.444 106.471 185.122 107.115 184.975 107.943C184.938 108.109 184.92 108.329 184.92 108.605C184.92 109.231 185.085 109.718 185.417 110.068C185.748 110.399 186.199 110.565 186.77 110.565C187.432 110.565 188.012 110.335 188.509 109.875C189.024 109.415 189.356 108.771 189.503 107.943Z" fill="white"/>
<path d="M199.986 115.946C199.029 115.946 198.274 115.716 197.722 115.256C197.188 114.796 196.922 114.198 196.922 113.462C196.922 112.818 197.096 112.22 197.446 111.669C197.814 111.117 198.311 110.684 198.937 110.372C199.581 110.04 200.29 109.875 201.063 109.875C202.002 109.875 202.738 110.114 203.272 110.592C203.806 111.052 204.073 111.65 204.073 112.386C204.073 113.03 203.898 113.628 203.548 114.18C203.198 114.713 202.71 115.146 202.085 115.477C201.459 115.79 200.759 115.946 199.986 115.946Z" fill="white"/>
<path d="M206.346 107.943C206.64 106.324 207.229 104.917 208.113 103.721C208.996 102.507 210.092 101.577 211.398 100.934C212.724 100.29 214.159 99.9677 215.706 99.9677C217.73 99.9677 219.332 100.538 220.51 101.679C221.706 102.819 222.314 104.402 222.332 106.425H215.844C215.715 105.616 215.31 105.211 214.629 105.211C214.132 105.211 213.699 105.441 213.331 105.901C212.981 106.361 212.724 107.042 212.558 107.943C212.484 108.458 212.448 108.799 212.448 108.964C212.448 109.534 212.558 109.967 212.779 110.261C213 110.537 213.304 110.675 213.69 110.675C214.39 110.675 214.923 110.27 215.291 109.461H221.78C221.062 111.485 219.902 113.067 218.301 114.207C216.718 115.348 214.914 115.918 212.889 115.918C210.828 115.918 209.19 115.376 207.975 114.29C206.778 113.186 206.18 111.659 206.18 109.709C206.18 109.139 206.235 108.55 206.346 107.943Z" fill="white"/>
<path d="M229.99 115.918C228.61 115.918 227.395 115.652 226.346 115.118C225.297 114.585 224.478 113.83 223.889 112.855C223.3 111.862 223.005 110.712 223.005 109.406C223.005 107.603 223.428 105.984 224.275 104.549C225.14 103.114 226.318 101.991 227.809 101.182C229.3 100.372 230.966 99.9677 232.807 99.9677C234.187 99.9677 235.402 100.244 236.451 100.796C237.5 101.329 238.319 102.093 238.908 103.086C239.497 104.061 239.792 105.202 239.792 106.508C239.792 108.311 239.369 109.93 238.522 111.365C237.675 112.8 236.506 113.922 235.015 114.732C233.524 115.523 231.849 115.918 229.99 115.918ZM230.929 110.62C231.721 110.62 232.346 110.261 232.807 109.544C233.267 108.826 233.497 108.026 233.497 107.143C233.497 106.517 233.34 106.048 233.027 105.735C232.733 105.423 232.346 105.266 231.868 105.266C231.076 105.266 230.451 105.625 229.99 106.342C229.53 107.06 229.3 107.86 229.3 108.743C229.3 109.369 229.447 109.838 229.742 110.151C230.036 110.464 230.432 110.62 230.929 110.62Z" fill="white"/>
<path d="M29.6629 154.062H35.4382L22.8204 170.018L37.6652 191.727H26.0423L16.9399 178.559L6.52236 191.727H0.743888L14.2406 174.659L0 154.063H11.9179L20.1462 166.099L29.6629 154.062ZM27.6368 187.904H30.8368L10.179 157.685H6.74521L27.6368 187.904Z" fill="white"/>
<path d="M77.4811 160.797C79.7083 160.797 81.6778 161.23 83.3897 162.094C85.1015 162.959 86.4176 164.173 87.3379 165.737C88.2766 167.283 88.746 169.058 88.746 171.063C88.746 172.719 88.4515 174.218 87.8625 175.561C87.2735 176.886 86.4084 177.935 85.2671 178.707C84.1259 179.48 82.7546 179.866 81.1532 179.866C80.1409 179.866 79.2758 179.682 78.5579 179.314C77.8584 178.947 77.3523 178.422 77.0393 177.741C76.5792 178.459 75.9626 179.011 75.1895 179.397C74.4348 179.765 73.5697 179.949 72.5941 179.949C71.2504 179.949 70.2013 179.563 69.4466 178.79C68.6919 178.017 68.3146 176.932 68.3146 175.534C68.3146 174.228 68.5723 172.995 69.0877 171.836C69.603 170.677 70.3209 169.748 71.2412 169.049C72.1616 168.331 73.1923 167.972 74.3336 167.972C75.0882 167.972 75.7141 168.129 76.211 168.442C76.7264 168.754 77.0762 169.177 77.2602 169.711L77.5363 168.11H82.2853L81.2085 174.209C81.1532 174.448 81.1256 174.678 81.1256 174.899C81.1256 175.598 81.4201 175.948 82.0092 175.948C82.7454 175.948 83.2976 175.506 83.6658 174.623C84.0523 173.722 84.2456 172.59 84.2456 171.229C84.2456 169.959 83.9419 168.846 83.3344 167.89C82.7454 166.915 81.8987 166.16 80.7943 165.627C79.7083 165.093 78.4291 164.826 76.9565 164.826C74.9686 164.826 73.1463 165.314 71.4897 166.289C69.8515 167.246 68.5539 168.552 67.5967 170.208C66.658 171.845 66.1886 173.63 66.1886 175.561C66.1886 177.659 66.796 179.324 68.0109 180.556C69.2257 181.789 70.8915 182.405 73.0083 182.405C74.8858 182.405 76.5976 182.074 78.1437 181.412L79.1929 185.248C77.2786 186.094 75.125 186.517 72.7322 186.517C70.5418 186.517 68.6183 186.085 66.9617 185.22C65.3051 184.355 64.0258 183.123 63.1239 181.522C62.222 179.94 61.771 178.1 61.771 176.003C61.771 173.078 62.4612 170.465 63.8417 168.166C65.2223 165.848 67.1089 164.045 69.5018 162.757C71.8947 161.45 74.5544 160.797 77.4811 160.797ZM74.6097 175.699C75.0698 175.699 75.484 175.497 75.8521 175.092C76.2387 174.688 76.4319 174.182 76.4319 173.574C76.4319 173.151 76.3215 172.82 76.1006 172.581C75.8797 172.323 75.5944 172.195 75.2447 172.195C74.7661 172.195 74.3428 172.406 73.9746 172.829C73.6065 173.234 73.4224 173.749 73.4224 174.375C73.4224 174.779 73.5237 175.101 73.7261 175.341C73.947 175.58 74.2415 175.699 74.6097 175.699Z" fill="white"/>
<path d="M99.383 166.317C99.8984 165.599 100.552 165.038 101.343 164.633C102.153 164.21 103.064 163.999 104.077 163.999C105.641 163.999 106.902 164.523 107.859 165.572C108.816 166.62 109.295 168.074 109.295 169.932C109.295 170.631 109.231 171.312 109.102 171.974C108.807 173.611 108.273 175.037 107.5 176.251C106.727 177.447 105.798 178.367 104.712 179.011C103.626 179.636 102.475 179.949 101.26 179.949C100.248 179.949 99.4106 179.747 98.748 179.342C98.1037 178.919 97.6528 178.349 97.3951 177.631L95.7108 187.207H89.5814L93.6401 164.192H99.7695L99.383 166.317ZM102.889 171.974C102.926 171.808 102.945 171.588 102.945 171.312C102.945 170.686 102.779 170.208 102.448 169.877C102.116 169.527 101.665 169.352 101.095 169.352C100.432 169.352 99.8431 169.582 99.3278 170.042C98.8308 170.502 98.5087 171.146 98.3614 171.974C98.3246 172.139 98.3062 172.36 98.3062 172.636C98.3062 173.262 98.4718 173.749 98.8032 174.099C99.1345 174.43 99.5855 174.596 100.156 174.596C100.819 174.596 101.399 174.366 101.895 173.906C102.411 173.446 102.742 172.802 102.889 171.974Z" fill="white"/>
<path d="M110.197 171.974C110.492 170.336 111.026 168.92 111.799 167.724C112.572 166.51 113.501 165.59 114.587 164.964C115.673 164.321 116.824 163.999 118.039 163.999C119.051 163.999 119.889 164.21 120.551 164.633C121.214 165.038 121.674 165.599 121.932 166.317L122.318 164.192H128.42L125.659 179.756H119.557L119.944 177.631C119.428 178.349 118.766 178.919 117.956 179.342C117.146 179.747 116.235 179.949 115.223 179.949C113.658 179.949 112.397 179.425 111.44 178.376C110.483 177.328 110.004 175.874 110.004 174.016C110.004 173.317 110.069 172.636 110.197 171.974ZM120.938 171.974C120.975 171.808 120.993 171.588 120.993 171.312C120.993 170.686 120.827 170.208 120.496 169.877C120.165 169.527 119.714 169.352 119.143 169.352C118.48 169.352 117.891 169.582 117.376 170.042C116.879 170.502 116.557 171.146 116.41 171.974C116.373 172.139 116.355 172.36 116.355 172.636C116.355 173.262 116.52 173.749 116.852 174.099C117.183 174.43 117.634 174.596 118.204 174.596C118.867 174.596 119.447 174.366 119.944 173.906C120.459 173.446 120.791 172.802 120.938 171.974Z" fill="white"/>
<path d="M128.964 171.974C129.258 170.336 129.792 168.92 130.565 167.724C131.338 166.51 132.268 165.59 133.354 164.964C134.44 164.321 135.59 163.999 136.805 163.999C137.817 163.999 138.646 164.21 139.29 164.633C139.952 165.038 140.413 165.599 140.67 166.317L141.913 159.335H148.042L144.425 179.756H138.296L138.682 177.631C138.167 178.349 137.504 178.919 136.694 179.342C135.903 179.747 135.001 179.949 133.989 179.949C132.424 179.949 131.163 179.425 130.206 178.376C129.249 177.328 128.77 175.874 128.77 174.016C128.77 173.317 128.835 172.636 128.964 171.974ZM139.704 171.974C139.741 171.808 139.759 171.588 139.759 171.312C139.759 170.686 139.594 170.208 139.262 169.877C138.931 169.527 138.48 169.352 137.909 169.352C137.247 169.352 136.658 169.582 136.142 170.042C135.645 170.502 135.323 171.146 135.176 171.974C135.139 172.139 135.121 172.36 135.121 172.636C135.121 173.262 135.286 173.749 135.618 174.099C135.949 174.43 136.4 174.596 136.971 174.596C137.633 174.596 138.213 174.366 138.71 173.906C139.225 173.446 139.557 172.802 139.704 171.974Z" fill="white"/>
<path d="M147.73 171.974C148.024 170.336 148.558 168.92 149.331 167.724C150.104 166.51 151.034 165.59 152.12 164.964C153.206 164.321 154.356 163.999 155.571 163.999C156.583 163.999 157.421 164.21 158.084 164.633C158.746 165.038 159.206 165.599 159.464 166.317L159.851 164.192H165.952L163.191 179.756H157.09L157.476 177.631C156.961 178.349 156.298 178.919 155.488 179.342C154.678 179.747 153.767 179.949 152.755 179.949C151.19 179.949 149.929 179.425 148.972 178.376C148.015 177.328 147.537 175.874 147.537 174.016C147.537 173.317 147.601 172.636 147.73 171.974ZM158.47 171.974C158.507 171.808 158.525 171.588 158.525 171.312C158.525 170.686 158.36 170.208 158.028 169.877C157.697 169.527 157.246 169.352 156.676 169.352C156.013 169.352 155.424 169.582 154.908 170.042C154.411 170.502 154.089 171.146 153.942 171.974C153.905 172.139 153.887 172.36 153.887 172.636C153.887 173.262 154.053 173.749 154.384 174.099C154.715 174.43 155.166 174.596 155.737 174.596C156.399 174.596 156.979 174.366 157.476 173.906C157.992 173.446 158.323 172.802 158.47 171.974Z" fill="white"/>
<path d="M174.144 173.492C174.126 173.565 174.116 173.657 174.116 173.768C174.116 174.283 174.448 174.54 175.11 174.54H176.574L175.635 179.756H173.316C169.69 179.756 167.877 178.22 167.877 175.147C167.877 174.596 167.932 174.007 168.042 173.381L168.76 169.297H166.827L167.739 164.192H169.671L170.334 160.439H176.463L175.801 164.192H178.341L177.43 169.297H174.89L174.144 173.492Z" fill="white"/>
<path d="M178.522 171.974C178.816 170.336 179.35 168.92 180.123 167.724C180.896 166.51 181.826 165.59 182.912 164.964C183.998 164.321 185.148 163.999 186.363 163.999C187.375 163.999 188.213 164.21 188.875 164.633C189.538 165.038 189.998 165.599 190.256 166.317L190.642 164.192H196.744L193.983 179.756H187.881L188.268 177.631C187.752 178.349 187.09 178.919 186.28 179.342C185.47 179.747 184.559 179.949 183.547 179.949C181.982 179.949 180.721 179.425 179.764 178.376C178.807 177.328 178.328 175.874 178.328 174.016C178.328 173.317 178.393 172.636 178.522 171.974ZM189.262 171.974C189.299 171.808 189.317 171.588 189.317 171.312C189.317 170.686 189.151 170.208 188.82 169.877C188.489 169.527 188.038 169.352 187.467 169.352C186.805 169.352 186.216 169.582 185.7 170.042C185.203 170.502 184.881 171.146 184.734 171.974C184.697 172.139 184.679 172.36 184.679 172.636C184.679 173.262 184.844 173.749 185.176 174.099C185.507 174.43 185.958 174.596 186.528 174.596C187.191 174.596 187.771 174.366 188.268 173.906C188.783 173.446 189.115 172.802 189.262 171.974Z" fill="white"/>
<path d="M199.745 179.977C198.788 179.977 198.033 179.747 197.481 179.287C196.947 178.827 196.68 178.229 196.68 177.493C196.68 176.849 196.855 176.251 197.205 175.699C197.573 175.147 198.07 174.715 198.696 174.402C199.34 174.071 200.049 173.906 200.822 173.906C201.761 173.906 202.497 174.145 203.031 174.623C203.564 175.083 203.831 175.681 203.831 176.417C203.831 177.061 203.656 177.659 203.307 178.211C202.957 178.744 202.469 179.177 201.843 179.508C201.218 179.82 200.518 179.977 199.745 179.977Z" fill="white"/>
<path d="M206.105 171.974C206.399 170.355 206.988 168.947 207.872 167.752C208.755 166.537 209.85 165.608 211.157 164.964C212.483 164.321 213.918 163.999 215.464 163.999C217.489 163.999 219.091 164.569 220.269 165.71C221.465 166.85 222.072 168.432 222.091 170.456H215.602C215.474 169.647 215.069 169.242 214.388 169.242C213.891 169.242 213.458 169.472 213.09 169.932C212.74 170.392 212.483 171.072 212.317 171.974C212.243 172.489 212.206 172.829 212.206 172.995C212.206 173.565 212.317 173.998 212.538 174.292C212.759 174.568 213.062 174.706 213.449 174.706C214.148 174.706 214.682 174.301 215.05 173.492H221.539C220.821 175.515 219.661 177.098 218.06 178.238C216.477 179.379 214.673 179.949 212.648 179.949C210.587 179.949 208.948 179.406 207.734 178.321C206.537 177.217 205.939 175.69 205.939 173.74C205.939 173.17 205.994 172.581 206.105 171.974Z" fill="white"/>
<path d="M229.749 179.949C228.369 179.949 227.154 179.682 226.105 179.149C225.055 178.615 224.236 177.861 223.647 176.886C223.058 175.893 222.764 174.743 222.764 173.436C222.764 171.634 223.187 170.015 224.034 168.58C224.899 167.145 226.077 166.022 227.568 165.213C229.059 164.403 230.725 163.999 232.565 163.999C233.946 163.999 235.161 164.275 236.21 164.826C237.259 165.36 238.078 166.123 238.667 167.117C239.256 168.092 239.551 169.233 239.551 170.539C239.551 172.342 239.127 173.961 238.281 175.396C237.434 176.831 236.265 177.953 234.774 178.763C233.283 179.554 231.608 179.949 229.749 179.949ZM230.688 174.651C231.479 174.651 232.105 174.292 232.565 173.574C233.026 172.857 233.256 172.057 233.256 171.174C233.256 170.548 233.099 170.079 232.786 169.766C232.492 169.453 232.105 169.297 231.627 169.297C230.835 169.297 230.209 169.656 229.749 170.373C229.289 171.091 229.059 171.891 229.059 172.774C229.059 173.4 229.206 173.869 229.501 174.182C229.795 174.494 230.191 174.651 230.688 174.651Z" fill="white"/>
<path d="M541.064 7.61036L546.212 15.3927H540.346L536.213 8.72827L534.876 15.3927H530L533.094 0.23648H537.945L536.609 6.79343L543.366 0.23648H548.96L541.064 7.61036Z" fill="white"/>
<path d="M558.702 0.23648C560.533 0.23648 561.928 0.594783 562.885 1.31139C563.842 2.01366 564.32 2.95242 564.32 4.12765C564.32 4.48596 564.287 4.80843 564.221 5.09507C564.023 6.12698 563.52 7.03708 562.712 7.82534C561.903 8.59928 560.83 9.15106 559.494 9.4807L562.216 15.3927H556.821L554.494 9.80318H553.974L552.836 15.3927H547.959L551.053 0.23648H558.702ZM554.568 6.92242H556.969C558.256 6.92242 559.015 6.39213 559.246 5.33155C559.279 5.15957 559.296 5.03774 559.296 4.96608C559.296 4.57911 559.147 4.27814 558.85 4.06316C558.57 3.84818 558.149 3.74068 557.588 3.74068H555.187L554.568 6.92242Z" fill="white"/>
<path d="M572.269 0.23648L569.2 15.3927H564.324L567.418 0.23648H572.269Z" fill="white"/>
<path d="M588.175 0.23648L587.482 3.5902H582.853L580.452 15.3927H575.576L577.977 3.5902H573.373L574.066 0.23648H588.175Z" fill="white"/>
<path d="M594.821 0.23648L591.752 15.3927H586.876L589.97 0.23648H594.821Z" fill="white"/>
<path d="M605.554 7.61036L610.702 15.3927H604.836L600.702 8.72827L599.366 15.3927H594.49L597.584 0.23648H602.435L601.098 6.79343L607.856 0.23648H613.45L605.554 7.61036Z" fill="white"/>
<path d="M635.349 8.74976C634.54 9.91067 633.674 10.9497 632.75 11.867L636.215 15.3927H630.72L629.557 14.2318C627.791 15.1634 625.828 15.6292 623.666 15.6292C621.785 15.6292 620.292 15.278 619.186 14.5758C618.097 13.8735 617.552 12.9276 617.552 11.738C617.552 10.6488 617.957 9.66702 618.765 8.79276C619.59 7.9185 620.688 7.20906 622.057 6.66444C621.562 6.00516 621.315 5.34588 621.315 4.68661C621.315 3.78368 621.595 2.98825 622.156 2.30031C622.717 1.59803 623.485 1.06058 624.458 0.687942C625.448 0.300975 626.562 0.107491 627.8 0.107491C629.4 0.107491 630.63 0.415631 631.488 1.03191C632.346 1.63386 632.775 2.4078 632.775 3.35372C632.775 3.54004 632.75 3.75502 632.7 3.99866H628.196C628.212 3.94133 628.22 3.86967 628.22 3.78368C628.22 3.54004 628.13 3.35372 627.948 3.22473C627.767 3.09574 627.536 3.03124 627.255 3.03124C626.876 3.03124 626.554 3.13874 626.29 3.35372C626.042 3.55437 625.918 3.81951 625.918 4.14915C625.918 4.63644 626.207 5.18106 626.785 5.78301L630.201 9.24422C630.349 9.05791 630.572 8.74976 630.869 8.3198L631.488 7.54587H636.289L635.349 8.74976ZM624.681 12.254C625.506 12.254 626.306 12.0963 627.082 11.781L624.211 8.92175C623.683 9.17973 623.27 9.4807 622.973 9.82467C622.692 10.1686 622.552 10.5269 622.552 10.8996C622.552 11.3009 622.734 11.6305 623.097 11.8885C623.476 12.1321 624.004 12.254 624.681 12.254Z" fill="white"/>
<path d="M649.988 15.5432C647.975 15.5432 646.349 15.1849 645.112 14.4683C643.891 13.7373 643.28 12.6768 643.28 11.2866C643.28 11.1719 643.297 10.9712 643.33 10.6846H648.453C648.404 11.1719 648.519 11.5517 648.8 11.824C649.08 12.0963 649.509 12.2325 650.087 12.2325C650.565 12.2325 650.945 12.1393 651.226 11.953C651.523 11.7667 651.671 11.5015 651.671 11.1576C651.671 10.7563 651.457 10.4266 651.028 10.1686C650.615 9.91067 649.938 9.60969 648.998 9.26572C648.057 8.92175 647.282 8.59928 646.671 8.2983C646.061 7.98299 645.533 7.5602 645.087 7.02991C644.642 6.48529 644.419 5.81168 644.419 5.00908C644.419 3.96283 644.716 3.06707 645.31 2.3218C645.904 1.5622 646.729 0.988917 647.785 0.601949C648.858 0.20065 650.079 0 651.448 0C652.686 0 653.783 0.171985 654.74 0.515956C655.697 0.845595 656.44 1.32572 656.968 1.95634C657.512 2.58695 657.785 3.33222 657.785 4.19215C657.785 4.42146 657.776 4.59345 657.76 4.7081H652.537C652.554 4.63644 652.562 4.53612 652.562 4.40713C652.562 4.06316 652.438 3.79801 652.191 3.6117C651.943 3.41105 651.605 3.31072 651.176 3.31072C650.73 3.31072 650.367 3.41105 650.087 3.6117C649.823 3.79801 649.691 4.06316 649.691 4.40713C649.691 4.77976 649.897 5.10224 650.31 5.37455C650.739 5.63253 651.399 5.94067 652.29 6.29897C653.247 6.68594 654.031 7.05141 654.641 7.39538C655.268 7.72502 655.805 8.16931 656.25 8.72827C656.696 9.28722 656.918 9.97516 656.918 10.7921C656.918 11.695 656.638 12.5119 656.077 13.2429C655.516 13.9595 654.716 14.5256 653.676 14.9412C652.636 15.3425 651.407 15.5432 649.988 15.5432Z" fill="white"/>
<path d="M669.959 12.9204H663.771L662.335 15.3927H657.236L666.667 0.23648H672.26L675.528 15.3927H670.404L669.959 12.9204ZM669.389 9.71718L668.523 4.7941L665.652 9.71718H669.389Z" fill="white"/>
<path d="M687.826 0.23648C689.658 0.23648 691.052 0.594783 692.009 1.31139C692.966 2.01366 693.445 2.95242 693.445 4.12765C693.445 4.48596 693.412 4.80843 693.346 5.09507C693.148 6.12698 692.645 7.03708 691.836 7.82534C691.028 8.59928 689.955 9.15106 688.618 9.4807L691.341 15.3927H685.945L683.619 9.80318H683.099L681.96 15.3927H677.084L680.178 0.23648H687.826ZM683.693 6.92242H686.094C687.381 6.92242 688.14 6.39213 688.371 5.33155C688.404 5.15957 688.42 5.03774 688.42 4.96608C688.42 4.57911 688.272 4.27814 687.975 4.06316C687.694 3.84818 687.274 3.74068 686.713 3.74068H684.312L683.693 6.92242Z" fill="white"/>
<path d="M705.007 12.9204H698.819L697.384 15.3927H692.285L701.715 0.23648H707.309L710.576 15.3927H705.453L705.007 12.9204ZM704.438 9.71718L703.572 4.7941L700.701 9.71718H704.438Z" fill="white"/>
<path d="M728.321 15.3927H723.444L718.742 6.92242L717.009 15.3927H712.133L715.227 0.23648H720.078L724.806 8.81426L726.538 0.23648H731.39L728.321 15.3927Z" fill="white"/>
<path d="M531 41.3305L533.026 32.0645H534.965L539.322 38.7757L538.555 38.736L540.002 32.0645H542.317L540.291 41.3305H538.366L533.996 34.6193L534.777 34.659L533.316 41.3305H531Z" fill="white"/>
<path d="M546.06 41.4364C545.462 41.4364 544.907 41.3128 544.396 41.0657C543.884 40.8098 543.474 40.4436 543.166 39.967C542.857 39.4905 542.703 38.9169 542.703 38.2462C542.703 37.6461 542.809 37.0946 543.021 36.5916C543.243 36.0886 543.552 35.6518 543.947 35.2811C544.343 34.9105 544.801 34.6237 545.322 34.4207C545.843 34.2089 546.403 34.103 547.001 34.103C547.647 34.103 548.202 34.2133 548.665 34.4339C549.128 34.6546 549.471 34.9987 549.693 35.4664C549.924 35.9253 550.006 36.521 549.939 37.2534C549.89 38.0918 549.702 38.8287 549.374 39.464C549.046 40.0906 548.602 40.5759 548.043 40.9201C547.493 41.2643 546.832 41.4364 546.06 41.4364ZM546.755 39.7288C547.199 39.7288 547.589 39.6317 547.927 39.4376C548.274 39.2346 548.545 38.961 548.737 38.6169C548.94 38.2639 549.041 37.8535 549.041 37.3858C549.041 36.9005 548.882 36.5166 548.564 36.2342C548.255 35.9518 547.821 35.8106 547.261 35.8106C546.827 35.8106 546.436 35.9121 546.089 36.1151C545.742 36.3092 545.467 36.5828 545.264 36.9358C545.071 37.2799 544.975 37.6859 544.975 38.1536C544.975 38.6389 545.129 39.0228 545.438 39.3052C545.756 39.5876 546.195 39.7288 546.755 39.7288ZM548.303 41.3305L548.607 39.9141L549.114 37.7962L549.418 35.6782L549.736 34.2089H551.994L550.445 41.3305H548.303Z" fill="white"/>
<path d="M563.853 34.103C564.509 34.103 565.064 34.231 565.517 34.4869C565.971 34.734 566.294 35.1002 566.487 35.5856C566.68 36.0709 566.694 36.671 566.53 37.3858L565.676 41.3305H563.419L564.243 37.5314C564.369 37.0019 564.33 36.596 564.128 36.3136C563.925 36.0312 563.573 35.89 563.071 35.89C562.541 35.89 562.102 36.0356 561.754 36.3268C561.407 36.6092 561.166 37.0593 561.031 37.677L560.235 41.3305H557.977L558.802 37.5314C558.918 37.0019 558.874 36.596 558.672 36.3136C558.479 36.0312 558.131 35.89 557.63 35.89C557.099 35.89 556.66 36.0356 556.313 36.3268C555.965 36.6092 555.719 37.0681 555.575 37.7035L554.793 41.3305H552.535L554.084 34.2089H556.226L555.821 36.0224L555.473 35.612C555.83 35.1002 556.274 34.7208 556.805 34.4737C557.335 34.2266 557.9 34.103 558.498 34.103C558.98 34.103 559.415 34.1824 559.801 34.3413C560.186 34.5001 560.5 34.7384 560.741 35.0561C560.992 35.365 561.137 35.7532 561.175 36.221L560.307 36.0224C560.693 35.3958 561.185 34.9193 561.783 34.5928C562.391 34.2663 563.081 34.103 563.853 34.103Z" fill="white"/>
<path d="M571.259 41.4364C570.661 41.4364 570.106 41.3128 569.595 41.0657C569.084 40.8098 568.674 40.4436 568.365 39.967C568.056 39.4905 567.902 38.9169 567.902 38.2462C567.902 37.6461 568.008 37.0946 568.22 36.5916C568.442 36.0886 568.751 35.6518 569.146 35.2811C569.542 34.9105 570 34.6237 570.521 34.4207C571.042 34.2089 571.602 34.103 572.2 34.103C572.847 34.103 573.401 34.2133 573.864 34.4339C574.328 34.6546 574.67 34.9987 574.892 35.4664C575.123 35.9253 575.205 36.521 575.138 37.2534C575.09 38.0918 574.902 38.8287 574.574 39.464C574.245 40.0906 573.802 40.5759 573.242 40.9201C572.692 41.2643 572.031 41.4364 571.259 41.4364ZM571.954 39.7288C572.398 39.7288 572.789 39.6317 573.126 39.4376C573.474 39.2346 573.744 38.961 573.937 38.6169C574.139 38.2639 574.241 37.8535 574.241 37.3858C574.241 36.9005 574.081 36.5166 573.763 36.2342C573.454 35.9518 573.02 35.8106 572.461 35.8106C572.026 35.8106 571.636 35.9121 571.288 36.1151C570.941 36.3092 570.666 36.5828 570.463 36.9358C570.27 37.2799 570.174 37.6859 570.174 38.1536C570.174 38.6389 570.328 39.0228 570.637 39.3052C570.955 39.5876 571.394 39.7288 571.954 39.7288ZM573.503 41.3305L573.806 39.9141L574.313 37.7962L574.617 35.6782L574.935 34.2089H577.193L575.644 41.3305H573.503Z" fill="white"/>
<path d="M583.903 36.6843C583.517 36.6843 583.199 36.5739 582.948 36.3533C582.697 36.1239 582.571 35.8371 582.571 35.4929C582.571 35.0782 582.716 34.7472 583.006 34.5001C583.305 34.2442 583.662 34.1163 584.076 34.1163C584.462 34.1163 584.776 34.2266 585.017 34.4472C585.268 34.6678 585.393 34.9546 585.393 35.3076C585.393 35.5812 585.321 35.8238 585.176 36.0356C585.041 36.2386 584.863 36.3974 584.641 36.5122C584.419 36.6269 584.173 36.6843 583.903 36.6843ZM582.861 41.4364C582.475 41.4364 582.157 41.326 581.906 41.1054C581.655 40.876 581.529 40.5892 581.529 40.245C581.529 39.8303 581.674 39.4993 581.964 39.2522C582.263 38.9963 582.62 38.8684 583.034 38.8684C583.42 38.8684 583.734 38.9787 583.975 39.1993C584.226 39.4199 584.351 39.7067 584.351 40.0597C584.351 40.3333 584.279 40.5759 584.134 40.7877C583.999 40.9907 583.821 41.1496 583.599 41.2643C583.377 41.379 583.131 41.4364 582.861 41.4364Z" fill="white"/>
<path d="M530 68.54L532.026 59.2741H533.965L538.322 65.9853L537.555 65.9456L539.002 59.2741H541.317L539.291 68.54H537.366L532.996 61.8289L533.777 61.8686L532.316 68.54H530Z" fill="white"/>
<path d="M545.61 68.6459C544.819 68.6459 544.129 68.5136 543.541 68.2488C542.952 67.9841 542.494 67.6134 542.166 67.1369C541.847 66.6604 541.688 66.1 541.688 65.4558C541.688 64.6616 541.891 63.9556 542.296 63.3379C542.701 62.7113 543.256 62.2171 543.96 61.8553C544.674 61.4935 545.485 61.3126 546.392 61.3126C547.192 61.3126 547.882 61.445 548.461 61.7097C549.05 61.9745 549.503 62.3451 549.821 62.8216C550.15 63.2893 550.314 63.8497 550.314 64.5027C550.314 65.2881 550.111 65.9941 549.706 66.6207C549.3 67.2472 548.746 67.7414 548.041 68.1032C547.337 68.465 546.527 68.6459 545.61 68.6459ZM545.755 66.9516C546.199 66.9516 546.589 66.8545 546.927 66.6604C547.274 66.4574 547.545 66.1794 547.737 65.8264C547.93 65.4735 548.027 65.0631 548.027 64.5954C548.027 64.1189 547.873 63.735 547.564 63.4438C547.255 63.1526 546.821 63.0069 546.261 63.0069C545.817 63.0069 545.422 63.1084 545.075 63.3114C544.737 63.5055 544.467 63.7791 544.264 64.1321C544.071 64.4851 543.975 64.8954 543.975 65.3631C543.975 65.8485 544.129 66.2368 544.438 66.528C544.747 66.8104 545.186 66.9516 545.755 66.9516Z" fill="white"/>
<path d="M551.941 68.6459C551.555 68.6459 551.237 68.5356 550.986 68.315C550.735 68.0856 550.61 67.7988 550.61 67.4546C550.61 67.0398 550.754 66.7089 551.044 66.4618C551.343 66.2059 551.7 66.0779 552.115 66.0779C552.501 66.0779 552.814 66.1883 553.055 66.4089C553.306 66.6295 553.432 66.9163 553.432 67.2693C553.432 67.5429 553.359 67.7855 553.215 67.9973C553.08 68.2003 552.901 68.3591 552.679 68.4739C552.457 68.5886 552.211 68.6459 551.941 68.6459Z" fill="white"/>
<path d="M561.969 68.6459C561.41 68.6459 560.932 68.5445 560.536 68.3415C560.141 68.1297 559.856 67.8297 559.683 67.4414C559.519 67.0443 559.494 66.5765 559.61 66.0382L560.956 59.8433H563.214L561.868 66.025C561.81 66.325 561.844 66.5633 561.969 66.7398C562.095 66.9163 562.326 67.0045 562.664 67.0045C562.818 67.0045 562.973 66.9825 563.127 66.9384C563.291 66.8942 563.441 66.8325 563.576 66.753L563.909 68.2224C563.629 68.3812 563.32 68.4915 562.982 68.5533C562.645 68.6151 562.307 68.6459 561.969 68.6459ZM559.031 63.1658L559.379 61.5773H564.777L564.43 63.1658H559.031Z" fill="white"/>
<path d="M568.988 68.6459C568.177 68.6459 567.473 68.5136 566.875 68.2488C566.286 67.9841 565.828 67.6134 565.5 67.1369C565.172 66.6604 565.008 66.1 565.008 65.4558C565.008 64.6616 565.201 63.9556 565.587 63.3379C565.982 62.7113 566.523 62.2171 567.208 61.8553C567.902 61.4935 568.698 61.3126 569.596 61.3126C570.358 61.3126 571.014 61.445 571.564 61.7097C572.114 61.9656 572.538 62.3274 572.837 62.7952C573.146 63.254 573.301 63.8056 573.301 64.4498C573.301 64.6351 573.286 64.8204 573.257 65.0057C573.238 65.1911 573.209 65.3676 573.17 65.5352H566.73L566.962 64.3307H572.114L571.188 64.7013C571.265 64.3042 571.241 63.9733 571.115 63.7085C570.99 63.4349 570.787 63.2276 570.507 63.0864C570.228 62.9364 569.89 62.8613 569.494 62.8613C569.002 62.8613 568.583 62.9717 568.235 63.1923C567.898 63.4041 567.642 63.6997 567.468 64.0792C567.295 64.4586 567.208 64.8866 567.208 65.3631C567.208 65.9103 567.372 66.3206 567.7 66.5942C568.038 66.8589 568.544 66.9913 569.219 66.9913C569.615 66.9913 569.996 66.9339 570.363 66.8192C570.729 66.7045 571.043 66.5412 571.303 66.3295L572.244 67.6929C571.791 68.0194 571.279 68.2621 570.71 68.4209C570.15 68.5709 569.576 68.6459 568.988 68.6459Z" fill="white"/>
<path d="M573.936 68.54L576.078 58.7181H578.336L576.194 68.54H573.936Z" fill="white"/>
<path d="M583.268 68.6459C582.641 68.6459 582.091 68.5356 581.618 68.315C581.155 68.0944 580.808 67.7546 580.576 67.2958C580.344 66.828 580.262 66.228 580.33 65.4955C580.388 64.6483 580.576 63.9115 580.894 63.2849C581.222 62.6584 581.666 62.173 582.226 61.8289C582.785 61.4847 583.446 61.3126 584.208 61.3126C584.816 61.3126 585.376 61.4406 585.887 61.6965C586.399 61.9436 586.809 62.3054 587.117 62.7819C587.426 63.2496 587.581 63.8232 587.581 64.5027C587.581 65.094 587.47 65.6455 587.248 66.1574C587.026 66.6604 586.717 67.0972 586.321 67.4678C585.936 67.8385 585.482 68.1297 584.961 68.3415C584.44 68.5445 583.876 68.6459 583.268 68.6459ZM577.725 71.108L579.838 61.4185H581.98L581.661 62.8349L581.169 64.9528L580.865 67.0707L579.983 71.108H577.725ZM583.007 66.9384C583.461 66.9384 583.856 66.8413 584.194 66.6471C584.532 66.4442 584.797 66.1706 584.99 65.8264C585.193 65.4735 585.294 65.0631 585.294 64.5954C585.294 64.11 585.14 63.7262 584.831 63.4438C584.522 63.1614 584.083 63.0202 583.514 63.0202C583.08 63.0202 582.689 63.1217 582.342 63.3246C581.994 63.5188 581.724 63.7923 581.531 64.1453C581.338 64.4895 581.242 64.8954 581.242 65.3631C581.242 65.8485 581.396 66.2324 581.705 66.5148C582.014 66.7972 582.448 66.9384 583.007 66.9384Z" fill="white"/>
<path d="M594.45 63.8938C594.064 63.8938 593.745 63.7835 593.494 63.5629C593.244 63.3335 593.118 63.0467 593.118 62.7025C593.118 62.2877 593.263 61.9568 593.552 61.7097C593.851 61.4538 594.208 61.3258 594.623 61.3258C595.009 61.3258 595.323 61.4362 595.564 61.6568C595.815 61.8774 595.94 62.1642 595.94 62.5172C595.94 62.7907 595.868 63.0334 595.723 63.2452C595.588 63.4482 595.41 63.607 595.188 63.7218C594.966 63.8365 594.72 63.8938 594.45 63.8938ZM593.408 68.6459C593.022 68.6459 592.703 68.5356 592.452 68.315C592.202 68.0856 592.076 67.7988 592.076 67.4546C592.076 67.0398 592.221 66.7089 592.51 66.4618C592.809 66.2059 593.166 66.0779 593.581 66.0779C593.967 66.0779 594.281 66.1883 594.522 66.4089C594.773 66.6295 594.898 66.9163 594.898 67.2693C594.898 67.5429 594.826 67.7855 594.681 67.9973C594.546 68.2003 594.368 68.3591 594.146 68.4739C593.924 68.5886 593.678 68.6459 593.408 68.6459Z" fill="white"/>
<path d="M530 95.7496L532.026 86.4836H536.122C537.386 86.4836 538.36 86.7396 539.045 87.2514C539.74 87.7544 540.087 88.4604 540.087 89.3693C540.087 90.1459 539.889 90.8254 539.494 91.4078C539.098 91.9814 538.529 92.4227 537.786 92.7315C537.053 93.0404 536.18 93.1948 535.167 93.1948H531.881L533.126 92.2153L532.359 95.7496H530ZM533.068 92.4668L532.243 91.4475H535.268C536.04 91.4475 536.638 91.2887 537.062 90.971C537.497 90.6445 537.714 90.1724 537.714 89.5546C537.714 89.1046 537.55 88.7737 537.222 88.5619C536.894 88.3412 536.431 88.2309 535.832 88.2309H532.981L534.226 87.1852L533.068 92.4668Z" fill="white"/>
<path d="M544.439 95.8555C543.628 95.8555 542.924 95.7231 542.326 95.4584C541.737 95.1936 541.279 94.823 540.951 94.3465C540.623 93.8699 540.459 93.3096 540.459 92.6654C540.459 91.8711 540.652 91.1652 541.038 90.5474C541.433 89.9209 541.974 89.4267 542.659 89.0649C543.353 88.7031 544.149 88.5222 545.047 88.5222C545.809 88.5222 546.465 88.6545 547.015 88.9193C547.565 89.1752 547.989 89.537 548.288 90.0047C548.597 90.4636 548.751 91.0151 548.751 91.6593C548.751 91.8447 548.737 92.03 548.708 92.2153C548.689 92.4006 548.66 92.5771 548.621 92.7448H542.181L542.413 91.5402H547.565L546.638 91.9108C546.716 91.5137 546.692 91.1828 546.566 90.9181C546.441 90.6445 546.238 90.4371 545.958 90.2959C545.678 90.1459 545.341 90.0709 544.945 90.0709C544.453 90.0709 544.033 90.1812 543.686 90.4018C543.348 90.6136 543.093 90.9092 542.919 91.2887C542.745 91.6682 542.659 92.0962 542.659 92.5727C542.659 93.1198 542.823 93.5302 543.151 93.8037C543.488 94.0685 543.995 94.2009 544.67 94.2009C545.066 94.2009 545.447 94.1435 545.814 94.0288C546.18 93.914 546.494 93.7508 546.754 93.539L547.695 94.9024C547.241 95.2289 546.73 95.4716 546.161 95.6305C545.601 95.7805 545.027 95.8555 544.439 95.8555Z" fill="white"/>
<path d="M552.224 95.8555C551.539 95.8555 550.892 95.7849 550.284 95.6437C549.686 95.5025 549.223 95.326 548.895 95.1142L549.763 93.6184C550.101 93.8214 550.511 93.9846 550.994 94.1082C551.486 94.2317 551.978 94.2935 552.47 94.2935C553 94.2935 553.386 94.2317 553.628 94.1082C553.869 93.9846 553.989 93.817 553.989 93.6052C553.989 93.4375 553.888 93.314 553.685 93.2345C553.483 93.1463 553.227 93.0757 552.918 93.0228C552.61 92.9698 552.277 92.908 551.92 92.8374C551.573 92.7668 551.24 92.6698 550.921 92.5462C550.613 92.4138 550.357 92.2285 550.154 91.9903C549.961 91.7432 549.865 91.4211 549.865 91.024C549.865 90.4856 550.029 90.0312 550.357 89.6605C550.695 89.2899 551.158 89.0075 551.746 88.8134C552.344 88.6192 553.02 88.5222 553.772 88.5222C554.313 88.5222 554.838 88.5751 555.35 88.681C555.861 88.7869 556.295 88.9325 556.652 89.1178L555.842 90.6268C555.475 90.4151 555.089 90.2739 554.684 90.2033C554.288 90.1238 553.907 90.0841 553.541 90.0841C553.01 90.0841 552.624 90.1547 552.383 90.2959C552.151 90.4283 552.036 90.5915 552.036 90.7857C552.036 90.9534 552.132 91.0857 552.325 91.1828C552.528 91.271 552.783 91.3461 553.092 91.4078C553.401 91.4608 553.734 91.5226 554.091 91.5932C554.448 91.6549 554.781 91.752 555.089 91.8844C555.398 92.0079 555.649 92.1888 555.842 92.4271C556.044 92.6565 556.146 92.9698 556.146 93.3669C556.146 93.9052 555.972 94.3641 555.625 94.7436C555.287 95.1142 554.824 95.3922 554.235 95.5775C553.647 95.7628 552.976 95.8555 552.224 95.8555Z" fill="white"/>
<path d="M560.592 95.8555C559.994 95.8555 559.439 95.7319 558.928 95.4848C558.417 95.2289 558.007 94.8627 557.698 94.3862C557.389 93.9096 557.235 93.336 557.235 92.6654C557.235 92.0653 557.341 91.5137 557.553 91.0107C557.775 90.5077 558.084 90.0709 558.479 89.7003C558.875 89.3296 559.333 89.0428 559.854 88.8398C560.375 88.628 560.935 88.5222 561.533 88.5222C562.179 88.5222 562.734 88.6325 563.197 88.8531C563.66 89.0737 564.003 89.4179 564.225 89.8856C564.456 90.3445 564.538 90.9401 564.471 91.6726C564.423 92.5109 564.235 93.2478 563.907 93.8832C563.578 94.5097 563.135 94.9951 562.575 95.3392C562.025 95.6834 561.364 95.8555 560.592 95.8555ZM561.287 94.1479C561.731 94.1479 562.122 94.0508 562.459 93.8567C562.807 93.6537 563.077 93.3802 563.27 93.036C563.472 92.683 563.574 92.2727 563.574 91.8049C563.574 91.3196 563.414 90.9357 563.096 90.6533C562.787 90.3709 562.353 90.2297 561.794 90.2297C561.359 90.2297 560.969 90.3312 560.621 90.5342C560.274 90.7283 559.999 91.0019 559.796 91.3549C559.603 91.699 559.507 92.105 559.507 92.5727C559.507 93.0581 559.661 93.4419 559.97 93.7243C560.288 94.0067 560.727 94.1479 561.287 94.1479ZM562.836 95.7496L563.139 94.3332L563.646 92.2153L563.95 90.0974L564.268 88.628H566.526L564.977 95.7496H562.836Z" fill="white"/>
<path d="M573.146 88.5222C573.812 88.5222 574.376 88.6501 574.839 88.906C575.302 89.1531 575.63 89.5193 575.823 90.0047C576.016 90.4901 576.036 91.0901 575.881 91.8049L575.013 95.7496H572.755L573.595 91.9373C573.71 91.4167 573.662 91.0151 573.45 90.7327C573.247 90.4504 572.871 90.3092 572.321 90.3092C571.752 90.3092 571.274 90.4592 570.888 90.7592C570.512 91.0593 570.252 91.5181 570.107 92.1359L569.325 95.7496H567.068L568.616 88.628H570.758L570.309 90.6401L569.991 90.0312C570.367 89.5105 570.83 89.1311 571.38 88.8928C571.94 88.6457 572.529 88.5222 573.146 88.5222Z" fill="white"/>
<path d="M583.242 91.1034C582.856 91.1034 582.538 90.9931 582.287 90.7725C582.036 90.543 581.911 90.2562 581.911 89.912C581.911 89.4973 582.055 89.1664 582.345 88.9193C582.644 88.6633 583.001 88.5354 583.416 88.5354C583.802 88.5354 584.115 88.6457 584.356 88.8663C584.607 89.0869 584.733 89.3737 584.733 89.7267C584.733 90.0003 584.66 90.243 584.516 90.4548C584.381 90.6577 584.202 90.8166 583.98 90.9313C583.758 91.046 583.512 91.1034 583.242 91.1034ZM582.2 95.8555C581.814 95.8555 581.496 95.7452 581.245 95.5246C580.994 95.2951 580.869 95.0083 580.869 94.6642C580.869 94.2494 581.013 93.9185 581.303 93.6714C581.602 93.4155 581.959 93.2875 582.374 93.2875C582.76 93.2875 583.073 93.3978 583.314 93.6184C583.565 93.839 583.691 94.1258 583.691 94.4788C583.691 94.7524 583.618 94.9951 583.474 95.2069C583.339 95.4098 583.16 95.5687 582.938 95.6834C582.716 95.7981 582.47 95.8555 582.2 95.8555Z" fill="white"/>
<g filter="url(#filter0_i_409_160)">
<rect x="606.901" y="28.8288" width="340.098" height="17.6494" fill="#F2F2F2"/>
</g>
<g filter="url(#filter1_i_409_160)">
<rect x="607" y="55" width="340" height="18" fill="#F2F2F2"/>
</g>
<g filter="url(#filter2_i_409_160)">
<rect x="606.901" y="83.2478" width="340.098" height="80.1578" fill="#F2F2F2"/>
</g>
<g filter="url(#filter3_d_409_160)">
<rect x="606.659" y="178.849" width="340.098" height="30.1511" rx="7" fill="#8DB3AF"/>
</g>
<path d="M748.322 203.852C746.933 203.852 745.677 203.629 744.554 203.184C743.451 202.738 742.575 202.096 741.928 201.258C741.281 200.42 740.948 199.431 740.929 198.29H745.211C745.268 199.057 745.553 199.663 746.067 200.108C746.6 200.554 747.323 200.777 748.236 200.777C749.169 200.777 749.901 200.572 750.434 200.162C750.967 199.734 751.233 199.181 751.233 198.504C751.233 197.951 751.053 197.497 750.691 197.14C750.33 196.784 749.873 196.507 749.321 196.311C748.788 196.097 748.046 195.865 747.095 195.616C745.801 195.259 744.745 194.912 743.926 194.573C743.127 194.216 742.432 193.69 741.843 192.995C741.272 192.282 740.986 191.337 740.986 190.161C740.986 189.055 741.281 188.093 741.871 187.272C742.461 186.452 743.289 185.828 744.354 185.401C745.42 184.955 746.638 184.732 748.008 184.732C750.063 184.732 751.728 185.204 753.003 186.149C754.297 187.076 755.011 188.378 755.144 190.054H750.748C750.71 189.412 750.415 188.886 749.863 188.476C749.331 188.048 748.617 187.834 747.723 187.834C746.942 187.834 746.314 188.021 745.839 188.396C745.382 188.77 745.154 189.314 745.154 190.027C745.154 190.526 745.325 190.945 745.667 191.284C746.029 191.605 746.467 191.872 746.98 192.086C747.513 192.282 748.255 192.514 749.207 192.781C750.501 193.138 751.557 193.494 752.375 193.851C753.193 194.207 753.897 194.742 754.487 195.455C755.077 196.168 755.372 197.104 755.372 198.263C755.372 199.262 755.096 200.189 754.544 201.044C753.993 201.9 753.184 202.586 752.118 203.103C751.053 203.603 749.787 203.852 748.322 203.852Z" fill="white"/>
<path d="M762.833 188.021V192.701H769.541V195.669H762.833V200.616H770.397V203.665H758.837V184.973H770.397V188.021H762.833Z" fill="white"/>
<path d="M791.069 203.665H787.073L778.024 190.856V203.665H774.028V184.973H778.024L787.073 197.809V184.973H791.069V203.665Z" fill="white"/>
<path d="M801.983 184.999C804.076 184.999 805.912 185.383 807.491 186.149C809.09 186.916 810.317 188.012 811.174 189.439C812.049 190.847 812.487 192.487 812.487 194.359C812.487 196.231 812.049 197.871 811.174 199.279C810.317 200.67 809.09 201.749 807.491 202.515C805.912 203.282 804.076 203.665 801.983 203.665H795.018V184.999H801.983ZM801.84 200.483C803.933 200.483 805.55 199.948 806.692 198.878C807.834 197.809 808.405 196.302 808.405 194.359C808.405 192.416 807.834 190.9 806.692 189.813C805.55 188.708 803.933 188.155 801.84 188.155H799.014V200.483H801.84Z" fill="white"/>
<defs>
<filter id="filter0_i_409_160" x="606.901" y="28.8288" width="340.099" height="21.6494" filterUnits="userSpaceOnUse" color-interpolation-filters="sRGB">
<feFlood flood-opacity="0" result="BackgroundImageFix"/>
<feBlend mode="normal" in="SourceGraphic" in2="BackgroundImageFix" result="shape"/>
<feColorMatrix in="SourceAlpha" type="matrix" values="0 0 0 0 0 0 0 0 0 0 0 0 0 0 0 0 0 0 127 0" result="hardAlpha"/>
<feOffset dy="4"/>
<feGaussianBlur stdDeviation="2"/>
<feComposite in2="hardAlpha" operator="arithmetic" k2="-1" k3="1"/>
<feColorMatrix type="matrix" values="0 0 0 0 0 0 0 0 0 0 0 0 0 0 0 0 0 0 0.25 0"/>
<feBlend mode="normal" in2="shape" result="effect1_innerShadow_409_160"/>
</filter>
<filter id="filter1_i_409_160" x="607" y="55" width="340" height="22" filterUnits="userSpaceOnUse" color-interpolation-filters="sRGB">
<feFlood flood-opacity="0" result="BackgroundImageFix"/>
<feBlend mode="normal" in="SourceGraphic" in2="BackgroundImageFix" result="shape"/>
<feColorMatrix in="SourceAlpha" type="matrix" values="0 0 0 0 0 0 0 0 0 0 0 0 0 0 0 0 0 0 127 0" result="hardAlpha"/>
<feOffset dy="4"/>
<feGaussianBlur stdDeviation="2"/>
<feComposite in2="hardAlpha" operator="arithmetic" k2="-1" k3="1"/>
<feColorMatrix type="matrix" values="0 0 0 0 0 0 0 0 0 0 0 0 0 0 0 0 0 0 0.25 0"/>
<feBlend mode="normal" in2="shape" result="effect1_innerShadow_409_160"/>
</filter>
<filter id="filter2_i_409_160" x="606.901" y="83.2478" width="340.099" height="84.1578" filterUnits="userSpaceOnUse" color-interpolation-filters="sRGB">
<feFlood flood-opacity="0" result="BackgroundImageFix"/>
<feBlend mode="normal" in="SourceGraphic" in2="BackgroundImageFix" result="shape"/>
<feColorMatrix in="SourceAlpha" type="matrix" values="0 0 0 0 0 0 0 0 0 0 0 0 0 0 0 0 0 0 127 0" result="hardAlpha"/>
<feOffset dy="4"/>
<feGaussianBlur stdDeviation="2"/>
<feComposite in2="hardAlpha" operator="arithmetic" k2="-1" k3="1"/>
<feColorMatrix type="matrix" values="0 0 0 0 0 0 0 0 0 0 0 0 0 0 0 0 0 0 0.25 0"/>
<feBlend mode="normal" in2="shape" result="effect1_innerShadow_409_160"/>
</filter>
<filter id="filter3_d_409_160" x="602.659" y="178.849" width="348.099" height="38.1511" filterUnits="userSpaceOnUse" color-interpolation-filters="sRGB">
<feFlood flood-opacity="0" result="BackgroundImageFix"/>
<feColorMatrix in="SourceAlpha" type="matrix" values="0 0 0 0 0 0 0 0 0 0 0 0 0 0 0 0 0 0 127 0" result="hardAlpha"/>
<feOffset dy="4"/>
<feGaussianBlur stdDeviation="2"/>
<feComposite in2="hardAlpha" operator="out"/>
<feColorMatrix type="matrix" values="0 0 0 0 0 0 0 0 0 0 0 0 0 0 0 0 0 0 0.25 0"/>
<feBlend mode="normal" in2="BackgroundImageFix" result="effect1_dropShadow_409_160"/>
<feBlend mode="normal" in="SourceGraphic" in2="effect1_dropShadow_409_160" result="shape"/>
</filter>
</defs>
</svg>
