<svg width="64" height="22" viewBox="0 0 64 22" fill="none" xmlns="http://www.w3.org/2000/svg">
<path d="M0 0H64V21.3333H0V0Z" fill="#26413C"/>
<path d="M12.1097 10.2391C12.7549 10.3766 13.2732 10.6992 13.6645 11.2069C14.0559 11.704 14.2515 12.2752 14.2515 12.9204C14.2515 13.8512 13.9236 14.5916 13.2679 15.1416C12.6227 15.681 11.7183 15.9507 10.5549 15.9507H5.36683V4.8131H10.3803C11.5121 4.8131 12.3953 5.07224 13.0299 5.59051C13.6751 6.10878 13.9977 6.81216 13.9977 7.70063C13.9977 8.3564 13.8232 8.90112 13.4741 9.33478C13.1357 9.76844 12.6808 10.0699 12.1097 10.2391ZM8.07984 9.31891H9.85678C10.301 9.31891 10.6395 9.22372 10.8722 9.03333C11.1154 8.83237 11.2371 8.5415 11.2371 8.16073C11.2371 7.77996 11.1154 7.48909 10.8722 7.28812C10.6395 7.08716 10.301 6.98668 9.85678 6.98668H8.07984V9.31891ZM10.0789 13.7613C10.5337 13.7613 10.8828 13.6608 11.126 13.4598C11.3799 13.2483 11.5068 12.9468 11.5068 12.5555C11.5068 12.1641 11.3746 11.8574 11.1102 11.6353C10.8563 11.4132 10.502 11.3021 10.0472 11.3021H8.07984V13.7613H10.0789Z" fill="white"/>
<path d="M18.5381 6.98668V9.23959H22.1713V11.3338H18.5381V13.7771H22.6473V15.9507H15.8251V4.8131H22.6473V6.98668H18.5381Z" fill="white"/>
<path d="M30.0885 15.9507L27.7721 11.7463H27.1216V15.9507H24.4086V4.8131H28.962C29.8399 4.8131 30.5856 4.96647 31.199 5.2732C31.8231 5.57993 32.2885 6.00301 32.5952 6.54244C32.9019 7.07129 33.0553 7.66361 33.0553 8.31938C33.0553 9.05978 32.8438 9.72084 32.4207 10.3026C32.0082 10.8843 31.3947 11.2968 30.5803 11.5401L33.1505 15.9507H30.0885ZM27.1216 9.82661H28.8033C29.3005 9.82661 29.6707 9.70498 29.9139 9.4617C30.1678 9.21843 30.2947 8.87468 30.2947 8.43044C30.2947 8.00736 30.1678 7.67419 29.9139 7.43091C29.6707 7.18764 29.3005 7.06601 28.8033 7.06601H27.1216V9.82661Z" fill="white"/>
<path d="M37.4714 4.8131V15.9507H34.7584V4.8131H37.4714Z" fill="white"/>
<path d="M47.4496 4.8131V6.98668H44.4986V15.9507H41.7856V6.98668H38.8346V4.8131H47.4496Z" fill="white"/>
<path d="M55.7444 13.9834H51.5876L50.9213 15.9507H48.0813L52.1112 4.8131H55.2526L59.2824 15.9507H56.4108L55.7444 13.9834ZM55.0463 11.8891L53.666 7.81169L52.3016 11.8891H55.0463Z" fill="white"/>
</svg>
