<svg width="62" height="20" viewBox="0 0 62 20" fill="none" xmlns="http://www.w3.org/2000/svg">
<g filter="url(#filter0_d_409_422)">
<path d="M9.98489 11.9498C8.89298 11.9498 7.8902 11.6935 6.97655 11.181C6.06291 10.6685 5.33868 9.96095 4.80386 9.05845C4.26905 8.1448 4.00164 7.11417 4.00164 5.96654C4.00164 4.83006 4.26905 3.81057 4.80386 2.90806C5.33868 1.99442 6.06291 1.28133 6.97655 0.768797C7.8902 0.256266 8.89298 0 9.98489 0C11.088 0 12.0907 0.256266 12.9932 0.768797C13.9069 1.28133 14.6255 1.99442 15.1492 2.90806C15.684 3.81057 15.9514 4.83006 15.9514 5.96654C15.9514 7.11417 15.684 8.1448 15.1492 9.05845C14.6255 9.96095 13.9069 10.6685 12.9932 11.181C12.0796 11.6935 11.0768 11.9498 9.98489 11.9498ZM9.98489 9.86067C10.6868 9.86067 11.3052 9.70468 11.84 9.39271C12.3749 9.06959 12.7927 8.61277 13.0935 8.02224C13.3943 7.43172 13.5448 6.74648 13.5448 5.96654C13.5448 5.1866 13.3943 4.50694 13.0935 3.92756C12.7927 3.33703 12.3749 2.88578 11.84 2.5738C11.3052 2.26183 10.6868 2.10584 9.98489 2.10584C9.28295 2.10584 8.659 2.26183 8.11304 2.5738C7.57822 2.88578 7.1604 3.33703 6.85956 3.92756C6.55873 4.50694 6.40831 5.1866 6.40831 5.96654C6.40831 6.74648 6.55873 7.43172 6.85956 8.02224C7.1604 8.61277 7.57822 9.06959 8.11304 9.39271C8.659 9.70468 9.28295 9.86067 9.98489 9.86067Z" fill="#3E505B"/>
<path d="M23.7089 11.8328L21.1351 7.28687H20.032V11.8328H17.6922V0.16713H22.071C22.9735 0.16713 23.7423 0.328689 24.3774 0.651807C25.0125 0.963783 25.486 1.39275 25.798 1.93871C26.1211 2.47352 26.2827 3.07519 26.2827 3.74371C26.2827 4.51251 26.0598 5.20889 25.6142 5.83284C25.1685 6.44565 24.5055 6.86904 23.6253 7.10303L26.4164 11.8328H23.7089ZM20.032 5.532H21.9874C22.6225 5.532 23.0961 5.38159 23.4081 5.08075C23.72 4.76878 23.876 4.33981 23.876 3.79385C23.876 3.25904 23.72 2.84678 23.4081 2.55709C23.0961 2.25626 22.6225 2.10584 21.9874 2.10584H20.032V5.532Z" fill="#3E505B"/>
<path d="M32.4769 0.16713C33.7026 0.16713 34.7778 0.406683 35.7026 0.885789C36.6385 1.36489 37.3571 2.05013 37.8585 2.94149C38.3711 3.82171 38.6273 4.84677 38.6273 6.01668C38.6273 7.18659 38.3711 8.21166 37.8585 9.09188C37.3571 9.96095 36.6385 10.635 35.7026 11.1141C34.7778 11.5933 33.7026 11.8328 32.4769 11.8328H28.399V0.16713H32.4769ZM32.3934 9.84396C33.619 9.84396 34.5661 9.5097 35.2346 8.84118C35.9031 8.17266 36.2374 7.23116 36.2374 6.01668C36.2374 4.8022 35.9031 3.85513 35.2346 3.17547C34.5661 2.48467 33.619 2.13926 32.3934 2.13926H30.7388V9.84396H32.3934Z" fill="#3E505B"/>
<path d="M42.7186 2.0557V4.98048H46.6462V6.83562H42.7186V9.92753H47.1476V11.8328H40.3788V0.150416H47.1476V2.0557H42.7186Z" fill="#3E505B"/>
<path d="M55.2906 11.8328L52.7168 7.28687H51.6137V11.8328H49.2739V0.16713H53.6527C54.5552 0.16713 55.324 0.328689 55.9591 0.651807C56.5942 0.963783 57.0677 1.39275 57.3797 1.93871C57.7028 2.47352 57.8644 3.07519 57.8644 3.74371C57.8644 4.51251 57.6416 5.20889 57.1959 5.83284C56.7502 6.44565 56.0872 6.86904 55.207 7.10303L57.9981 11.8328H55.2906ZM51.6137 5.532H53.5692C54.2042 5.532 54.6778 5.38159 54.9898 5.08075C55.3017 4.76878 55.4577 4.33981 55.4577 3.79385C55.4577 3.25904 55.3017 2.84678 54.9898 2.55709C54.6778 2.25626 54.2042 2.10584 53.5692 2.10584H51.6137V5.532Z" fill="#3E505B"/>
</g>
<defs>
<filter id="filter0_d_409_422" x="0" y="0" width="62" height="19.9531" filterUnits="userSpaceOnUse" color-interpolation-filters="sRGB">
<feFlood flood-opacity="0" result="BackgroundImageFix"/>
<feColorMatrix in="SourceAlpha" type="matrix" values="0 0 0 0 0 0 0 0 0 0 0 0 0 0 0 0 0 0 127 0" result="hardAlpha"/>
<feOffset dy="4"/>
<feGaussianBlur stdDeviation="2"/>
<feComposite in2="hardAlpha" operator="out"/>
<feColorMatrix type="matrix" values="0 0 0 0 0 0 0 0 0 0 0 0 0 0 0 0 0 0 0.25 0"/>
<feBlend mode="normal" in2="BackgroundImageFix" result="effect1_dropShadow_409_422"/>
<feBlend mode="normal" in="SourceGraphic" in2="effect1_dropShadow_409_422" result="shape"/>
</filter>
</defs>
</svg>
