<svg width="225" height="225" viewBox="0 0 225 225" fill="none" xmlns="http://www.w3.org/2000/svg">
<path fill-rule="evenodd" clip-rule="evenodd" d="M112.5 225C127.274 225 141.903 222.09 155.552 216.436C169.201 210.783 181.603 202.496 192.049 192.049C202.496 181.603 210.783 169.201 216.436 155.552C222.09 141.903 225 127.274 225 112.5C225 97.7263 222.09 83.0972 216.436 69.4481C210.783 55.799 202.496 43.3971 192.049 32.9505C181.603 22.5039 169.201 14.2172 155.552 8.56355C141.903 2.9099 127.274 -2.20145e-07 112.5 0C82.6631 4.44604e-07 54.0483 11.8526 32.9505 32.9505C11.8526 54.0483 0 82.6631 0 112.5C0 142.337 11.8526 170.952 32.9505 192.049C54.0483 213.147 82.6631 225 112.5 225ZM109.6 158L172.1 83L152.9 67L99.15 131.488L71.3375 103.663L53.6625 121.337L91.1625 158.837L100.838 168.513L109.6 158Z" fill="#4ECB71"/>
</svg>
